<svg width="827" height="702" viewBox="0 0 827 702" fill="none" xmlns="http://www.w3.org/2000/svg">
<g filter="url(#filter0_d_2_22)">
<g filter="url(#filter1_d_2_22)">
<g filter="url(#filter2_d_2_22)">
<mask id="path-1-inside-1_2_22" fill="white">
<path fill-rule="evenodd" clip-rule="evenodd" d="M235.342 480.919C231.091 476.847 227.042 472.547 223.238 468.053C227.902 464.108 232.57 460.157 237.233 456.212C240.621 460.218 244.218 464.045 248.013 467.668C243.79 472.088 239.572 476.502 235.342 480.919ZM557.461 320.466C558.187 323.449 558.75 326.469 559.151 329.511C556.005 329.922 552.85 330.337 549.708 330.741C549.353 328.035 548.852 325.351 548.217 322.686C551.296 321.945 554.375 321.204 557.461 320.466ZM574.019 268.902C575.081 273.324 575.923 277.805 576.515 282.336C571.849 282.948 567.18 283.549 562.51 284.167C561.98 280.14 561.245 276.163 560.295 272.22C564.861 271.109 569.44 270.005 574.019 268.902ZM515.853 308.11C516.921 312.536 517.749 317.027 518.345 321.551C513.679 322.163 509.01 322.764 504.344 323.375C503.81 319.355 503.072 315.367 502.129 311.429C506.691 310.324 511.274 309.214 515.853 308.11ZM177.362 541.543C170.973 535.433 164.9 528.975 159.185 522.219C163.842 518.271 168.516 514.323 173.18 510.378C178.479 516.646 184.114 522.622 190.028 528.299C185.813 532.723 181.591 537.126 177.362 541.543ZM297.914 559.821C290.745 557.909 283.689 555.603 276.771 552.935C278.972 547.241 281.176 541.54 283.374 535.836C289.685 538.268 296.119 540.366 302.649 542.112C301.077 548.019 299.488 553.925 297.914 559.821ZM305.207 532.585C299.02 530.931 292.916 528.936 286.941 526.626C289.141 520.932 291.339 515.228 293.543 509.527C298.918 511.606 304.394 513.388 309.953 514.874C308.364 520.78 306.785 526.682 305.207 532.585ZM312.496 505.356C307.274 503.959 302.129 502.279 297.085 500.33C299.285 494.636 301.487 488.925 303.691 483.224C308.122 484.934 312.646 486.406 317.228 487.637C315.656 493.544 314.071 499.443 312.496 505.356ZM290.634 587.064C282.497 584.885 274.471 582.284 266.619 579.244C268.82 573.55 271.017 567.846 273.222 562.145C280.464 564.939 287.857 567.351 295.366 569.362C293.787 575.265 292.209 581.168 290.634 587.064ZM283.337 614.306C274.229 611.866 265.265 608.945 256.467 605.554C258.661 599.856 260.865 594.155 263.069 588.454C271.257 591.617 279.605 594.333 288.083 596.595C286.498 602.494 284.916 608.403 283.337 614.306ZM365.325 566.49C357.972 566.964 350.591 567.043 343.236 566.738C343.493 560.629 343.743 554.534 343.996 548.431C350.71 548.711 357.447 548.632 364.152 548.208C364.534 554.297 364.929 560.393 365.325 566.49ZM363.523 538.352C363.128 532.256 362.732 526.159 362.347 520.059C356.629 520.426 350.892 520.49 345.169 520.252C344.916 526.355 344.659 532.464 344.402 538.573C350.771 538.838 357.157 538.769 363.523 538.352ZM361.71 510.217C356.34 510.563 350.956 510.628 345.582 510.398C345.833 504.285 346.082 498.189 346.346 492.084C351.066 492.281 355.812 492.22 360.542 491.928C360.93 498.021 361.326 504.117 361.71 510.217ZM367.123 594.635C366.731 588.531 366.336 582.435 365.947 576.342C358.25 576.83 350.53 576.915 342.823 576.593C342.566 582.702 342.313 588.804 342.06 594.907C350.416 595.268 358.778 595.173 367.123 594.635ZM368.925 622.773C359.589 623.375 350.231 623.479 340.88 623.082C341.143 616.977 341.393 610.881 341.646 604.778C350.344 605.143 359.061 605.032 367.749 604.48C368.145 610.577 368.536 616.68 368.925 622.773ZM259.699 561.426C259.278 561.236 257.964 560.557 257.627 560.468C251.173 557.44 245.168 554.265 239.001 550.678C242.095 545.411 245.206 540.146 248.299 534.879C253.934 538.177 259.476 541.085 265.382 543.867C265.602 544.038 266.917 544.576 267.281 544.742C264.749 550.306 262.223 555.875 259.699 561.426ZM271.369 535.763C271.005 535.597 269.854 535.003 269.56 534.931C263.935 532.275 258.679 529.515 253.312 526.381C256.406 521.114 259.513 515.855 262.61 510.582C267.487 513.433 272.21 515.921 277.316 518.33C277.51 518.468 278.637 518.934 278.947 519.086C276.419 524.644 273.894 530.195 271.369 535.763ZM283.03 510.086C282.719 509.951 281.741 509.439 281.484 509.379C276.686 507.113 272.198 504.752 267.616 502.08C270.716 496.817 273.81 491.55 276.915 486.281C280.993 488.662 284.965 490.752 289.243 492.771C289.404 492.891 290.355 493.28 290.609 493.392C288.09 498.964 285.558 504.528 283.03 510.086ZM248.324 586.455C247.857 586.238 246.373 585.487 245.992 585.382C238.738 581.963 231.987 578.41 225.059 574.366C228.153 569.1 231.264 563.834 234.358 558.567C240.771 562.323 247.034 565.621 253.753 568.785C254.013 568.978 255.509 569.586 255.913 569.775C253.374 575.335 250.842 580.9 248.324 586.455ZM329.951 580.289C322.107 579.516 314.309 578.328 306.593 576.736C307.83 570.751 309.067 564.766 310.314 558.778C317.4 560.253 324.556 561.344 331.749 562.051C331.161 568.136 330.557 574.204 329.951 580.289ZM332.719 552.226C325.877 551.555 319.054 550.514 312.304 549.118C313.551 543.13 314.791 537.155 316.028 531.17C322.136 532.425 328.313 533.375 334.524 533.992C333.922 540.07 333.323 546.158 332.719 552.226ZM335.501 524.171C336.089 518.085 336.697 512.011 337.298 505.933C332.072 505.417 326.89 504.626 321.742 503.562C320.509 509.541 319.271 515.526 318.028 521.507C323.799 522.7 329.637 523.596 335.501 524.171ZM327.246 607.645C327.848 601.567 328.453 595.482 329.051 589.411C320.883 588.602 312.762 587.36 304.735 585.695C303.495 591.67 302.254 597.661 301.014 603.636C309.68 605.449 318.437 606.784 327.246 607.645ZM532.564 260.673C533.679 262.722 534.763 264.78 535.824 266.86C538.086 271.347 540.135 275.773 542.089 280.41C536.457 282.771 530.825 285.132 525.183 287.495C523.399 283.283 521.532 279.245 519.473 275.157C518.514 273.252 517.53 271.375 516.503 269.51C521.844 266.566 527.202 263.623 532.564 260.673ZM490.497 207.29C495.942 212.264 501.12 217.516 506.001 223.038C501.431 227.081 496.857 231.131 492.279 235.187C487.828 230.16 483.102 225.364 478.134 220.834C482.253 216.318 486.382 211.8 490.497 207.29ZM452.471 248.935C456.44 252.562 460.226 256.4 463.793 260.431C459.219 264.48 454.645 268.53 450.078 272.583C446.937 269.038 443.601 265.662 440.106 262.469C444.231 257.957 448.352 253.451 452.471 248.935ZM528.533 165.643C535.441 171.956 542.012 178.622 548.207 185.619C543.642 189.683 539.068 193.732 534.494 197.782C528.723 191.26 522.598 185.045 516.168 179.176C520.296 174.674 524.408 170.155 528.533 165.643ZM433.641 170.276C440.42 173.261 447.047 176.601 453.478 180.279C450.438 185.576 447.406 190.888 444.366 196.185C438.501 192.826 432.461 189.771 426.272 187.065C428.734 181.469 431.179 175.872 433.641 170.276ZM410.981 221.923C415.923 224.096 420.749 226.529 425.436 229.217C422.402 234.518 419.361 239.815 416.321 245.113C412.2 242.76 407.953 240.609 403.606 238.709C406.068 233.113 408.523 227.513 410.981 221.923ZM444.967 144.458C452.669 147.836 460.191 151.63 467.498 155.814C464.463 161.115 461.419 166.419 458.389 171.713C451.652 167.859 444.713 164.356 437.602 161.241C440.06 155.652 442.505 150.055 444.967 144.458ZM456.293 118.641C464.921 122.42 473.338 126.67 481.513 131.355C478.476 136.645 475.438 141.953 472.404 147.254C464.799 142.899 456.961 138.947 448.935 135.428C451.39 129.828 453.846 124.228 456.293 118.641ZM368.212 153.606C375.567 154.246 382.882 155.261 390.122 156.666C388.946 162.669 387.78 168.668 386.618 174.661C380.015 173.377 373.354 172.439 366.646 171.871C367.166 165.781 367.692 159.695 368.212 153.606ZM363.399 209.795C368.742 210.246 374.064 210.994 379.328 212.027C378.155 218.022 376.986 224.011 375.827 230.015C371.207 229.107 366.528 228.455 361.827 228.057C362.343 221.973 362.866 215.877 363.399 209.795ZM370.625 125.515C378.977 126.236 387.277 127.396 395.511 128.994C394.338 134.99 393.166 140.986 391.997 146.975C384.418 145.498 376.753 144.431 369.056 143.77C369.576 137.68 370.099 131.601 370.625 125.515ZM373.025 97.4165C372.505 103.506 371.989 109.59 371.459 115.682C380.165 116.431 388.827 117.64 397.399 119.31C398.571 113.315 399.731 107.311 400.903 101.315C391.687 99.5208 382.373 98.2176 373.025 97.4165ZM299.224 159.159C306.473 157.334 313.822 155.903 321.222 154.873C322.069 160.921 322.917 166.97 323.761 173.025C317.007 173.96 310.307 175.262 303.702 176.937C302.203 171.007 300.717 165.085 299.224 159.159ZM306.097 186.504C307.583 192.426 309.076 198.352 310.568 204.278C316.195 202.86 321.91 201.749 327.66 200.959C326.812 194.911 325.969 188.856 325.125 182.801C318.718 183.688 312.364 184.926 306.097 186.504ZM312.977 213.853C318.262 212.521 323.616 211.484 329.021 210.725C329.869 216.773 330.708 222.835 331.553 228.873C326.812 229.538 322.104 230.453 317.452 231.621C315.952 225.708 314.463 219.775 312.977 213.853ZM292.348 131.803C293.83 137.732 295.323 143.658 296.815 149.584C304.416 147.671 312.105 146.171 319.858 145.097C319.021 139.045 318.177 132.99 317.333 126.935C308.92 128.114 300.575 129.739 292.348 131.803ZM285.471 104.465C294.68 102.154 304.02 100.335 313.423 99.0204C314.264 105.065 315.111 111.113 315.959 117.162C307.203 118.382 298.507 120.079 289.946 122.233C288.449 116.313 286.964 110.391 285.471 104.465ZM237.309 186.092C243.519 182.103 249.568 178.622 256.151 175.256C256.209 175.201 256.559 175.04 256.668 174.988C259.416 180.455 262.168 185.914 264.91 191.36C264.821 191.406 264.509 191.579 264.44 191.592C258.439 194.668 252.934 197.835 247.263 201.473C243.936 196.352 240.622 191.222 237.309 186.092ZM252.623 209.764C255.943 214.898 259.26 220.021 262.573 225.151C267.394 222.066 272.093 219.361 277.188 216.752C277.251 216.736 277.513 216.587 277.598 216.547C274.843 211.094 272.091 205.634 269.353 200.182C269.257 200.225 268.964 200.365 268.903 200.409C263.211 203.318 258.004 206.322 252.623 209.764ZM267.939 233.446C272.472 230.539 276.859 228.008 281.659 225.556C281.695 225.524 281.967 225.406 282.034 225.366C284.782 230.832 287.531 236.282 290.276 241.738C290.216 241.765 289.999 241.896 289.947 241.91C285.737 244.058 281.894 246.275 277.903 248.824C274.573 243.693 271.252 238.576 267.939 233.446ZM221.989 162.417C225.302 167.547 228.622 172.681 231.939 177.804C238.462 173.625 244.788 169.985 251.676 166.459C251.76 166.436 252.115 166.235 252.224 166.183C249.475 160.734 246.72 155.281 243.979 149.818C243.859 149.872 243.457 150.047 243.392 150.115C235.916 153.939 229.068 157.887 221.989 162.417ZM206.669 138.742C214.573 133.671 222.277 129.237 230.629 124.965C230.722 124.895 231.16 124.688 231.301 124.628C234.053 130.088 236.787 135.546 239.543 140.999C239.426 141.064 239.025 141.284 238.92 141.312C231.134 145.292 223.994 149.407 216.622 154.139C213.313 149.003 209.989 143.875 206.669 138.742ZM187.113 231.688C189.112 229.174 191.141 226.731 193.252 224.299C196.01 221.146 198.8 218.134 201.734 215.135C206.09 219.408 210.452 223.686 214.811 227.97C212.14 230.697 209.591 233.459 207.073 236.335C205.157 238.552 203.295 240.783 201.473 243.08C196.695 239.279 191.906 235.48 187.113 231.688ZM209.212 249.21C210.943 247.037 212.699 244.93 214.519 242.818C216.909 240.087 219.315 237.482 221.854 234.891C226.205 239.171 230.574 243.452 234.937 247.729C232.654 250.061 230.486 252.407 228.347 254.857C226.703 256.755 225.126 258.645 223.578 260.607C218.789 256.808 214 253.009 209.212 249.21ZM231.303 266.728C232.772 264.889 234.254 263.103 235.797 261.333C237.808 259.029 239.836 256.833 241.983 254.644C246.339 258.917 250.704 263.205 255.068 267.465C253.182 269.399 251.389 271.342 249.611 273.365C248.263 274.92 246.954 276.498 245.667 278.115C240.885 274.319 236.096 270.521 231.303 266.728ZM165.028 214.173C167.301 211.323 169.597 208.556 171.988 205.792C175.114 202.214 178.283 198.776 181.607 195.392C185.963 199.666 190.321 203.95 194.683 208.227C191.614 211.369 188.699 214.52 185.819 217.825C183.605 220.373 181.487 222.924 179.385 225.555C174.599 221.767 169.81 217.968 165.028 214.173ZM142.926 196.657C145.46 193.463 148.042 190.367 150.713 187.286C154.222 183.276 157.757 179.449 161.469 175.652C165.838 179.934 170.194 184.207 174.552 188.491C171.092 192.035 167.793 195.592 164.541 199.326C162.054 202.195 159.655 205.079 157.286 208.05C152.501 204.245 147.718 200.45 142.926 196.657ZM154.111 291.16C156.612 284.164 159.481 277.283 162.722 270.581C168.221 273.243 173.723 275.898 179.225 278.553C176.283 284.659 173.654 290.928 171.377 297.32C165.627 295.264 159.868 293.221 154.111 291.16ZM180.674 300.628C182.834 294.575 185.317 288.637 188.109 282.852C193.615 285.501 199.117 288.156 204.615 290.818C202.109 296.017 199.879 301.349 197.934 306.784C192.19 304.731 186.439 302.675 180.674 300.628ZM207.241 310.089C209.059 304.996 211.15 299.982 213.51 295.113C219.016 297.762 224.508 300.42 230.016 303.079C227.942 307.361 226.101 311.76 224.501 316.245C218.757 314.193 212.985 312.142 207.241 310.089ZM127.557 281.707C130.394 273.747 133.662 265.929 137.338 258.321C142.837 260.983 148.332 263.634 153.841 266.293C150.454 273.308 147.436 280.51 144.825 287.849C139.06 285.802 133.305 283.753 127.557 281.707ZM100.994 272.239C104.17 263.325 107.822 254.581 111.937 246.06C117.446 248.719 122.938 251.377 128.444 254.025C124.618 261.954 121.214 270.099 118.264 278.392C112.493 276.341 106.745 274.296 100.994 272.239ZM142.146 357.671C142.254 350.212 142.759 342.77 143.667 335.366C149.736 336.104 155.799 336.856 161.869 337.594C161.045 344.348 160.579 351.14 160.479 357.941C154.364 357.849 148.262 357.763 142.146 357.671ZM170.337 358.073C170.432 351.632 170.87 345.195 171.648 338.795C177.718 339.533 183.781 340.284 189.85 341.022C189.138 346.771 188.754 352.55 188.67 358.344C182.551 358.258 176.452 358.166 170.337 358.073ZM198.531 358.487C198.616 353.057 198.984 347.613 199.647 342.224C205.713 342.969 211.776 343.72 217.845 344.458C217.258 349.21 216.945 353.978 216.87 358.761C210.755 358.668 204.642 358.586 198.531 358.487ZM113.955 357.268C120.054 357.36 126.169 357.452 132.271 357.537C132.391 349.723 132.921 341.916 133.87 334.164C127.8 333.426 121.738 332.675 115.685 331.938C114.652 340.339 114.073 348.798 113.955 357.268ZM85.7578 356.861C85.8911 347.384 86.5351 337.911 87.6963 328.506C93.7491 329.243 99.8218 329.991 105.881 330.732C104.804 339.487 104.202 348.305 104.078 357.124C97.9754 357.039 91.8666 356.95 85.7578 356.861ZM152.491 425.891C150.197 418.874 148.263 411.721 146.719 404.492C152.693 403.222 158.667 401.952 164.642 400.682C166.047 407.264 167.803 413.775 169.911 420.181C164.101 422.085 158.302 423.986 152.491 425.891ZM179.29 417.102C185.089 415.2 190.896 413.303 196.703 411.388C194.918 405.938 193.422 400.4 192.229 394.797C186.255 396.067 180.277 397.344 174.302 398.614C175.628 404.859 177.294 411.036 179.29 417.102ZM206.084 408.32C204.408 403.216 203.003 398.012 201.885 392.753C207.859 391.483 213.837 390.206 219.816 388.929C220.797 393.552 222.028 398.125 223.504 402.61C217.69 404.521 211.877 406.414 206.084 408.32ZM125.697 434.672C131.503 432.775 137.303 430.874 143.113 428.969C140.698 421.609 138.686 414.119 137.076 406.544C131.102 407.814 125.124 409.091 119.145 410.368C120.898 418.583 123.079 426.7 125.697 434.672ZM98.895 443.468C95.9747 434.534 93.5229 425.447 91.5551 416.242C97.5294 414.972 103.508 413.695 109.482 412.425C111.307 420.991 113.587 429.44 116.311 437.764C110.509 439.655 104.716 441.561 98.895 443.468ZM183.766 485.813C179.314 479.884 175.181 473.724 171.38 467.358C176.626 464.226 181.878 461.099 187.114 457.97C190.575 463.778 194.356 469.399 198.414 474.8C193.527 478.474 188.653 482.139 183.766 485.813ZM206.315 468.861C202.459 463.737 198.887 458.413 195.596 452.907C200.849 449.779 206.088 446.644 211.33 443.519C214.284 448.46 217.499 453.241 220.946 457.847C216.065 461.525 211.199 465.194 206.315 468.861ZM228.839 451.922C233.727 448.248 238.608 444.57 243.492 440.903C240.63 437.103 237.993 433.159 235.56 429.076C230.303 432.21 225.061 435.335 219.826 438.464C222.578 443.111 225.594 447.592 228.839 451.922ZM161.227 502.761C166.115 499.087 170.996 495.409 175.879 491.742C171.214 485.539 166.877 479.076 162.894 472.411C157.642 475.538 152.4 478.663 147.154 481.794C151.473 489.025 156.175 496.035 161.227 502.761ZM138.699 519.707C133.027 512.172 127.767 504.336 122.941 496.239C128.198 493.104 133.44 489.98 138.696 486.845C143.185 494.378 148.076 501.674 153.351 508.687C148.46 512.368 143.58 516.029 138.699 519.707ZM232.719 532.627C226.641 528.473 220.783 523.986 215.178 519.212C219.143 514.564 223.113 509.908 227.078 505.26C232.186 509.623 237.53 513.716 243.08 517.513C239.616 522.548 236.162 527.597 232.719 532.627ZM248.641 509.366C243.388 505.759 238.315 501.885 233.475 497.747C237.447 493.102 241.406 488.449 245.371 483.801C249.729 487.519 254.283 491.006 259.01 494.238C255.555 499.288 252.105 504.331 248.641 509.366ZM264.59 486.103C260.15 483.063 255.872 479.788 251.782 476.295C255.753 471.651 259.708 467.005 263.674 462.356C267.282 465.429 271.046 468.31 274.952 470.989C271.485 476.014 268.041 481.06 264.59 486.103ZM216.782 555.897C209.889 551.166 203.237 546.079 196.875 540.657C200.847 536.012 204.806 531.36 208.775 526.705C214.644 531.71 220.778 536.409 227.134 540.769C223.684 545.812 220.233 550.855 216.782 555.897ZM200.847 579.151C193.133 573.866 185.691 568.173 178.576 562.112C182.548 557.467 186.506 552.815 190.472 548.166C197.09 553.817 204.018 559.116 211.202 564.032C207.751 569.075 204.29 574.121 200.847 579.151ZM480.72 258.148C484.384 262.791 487.798 267.625 490.946 272.643C485.765 275.891 480.598 279.147 475.417 282.396C472.622 277.945 469.585 273.637 466.321 269.508C471.133 265.72 475.924 261.937 480.72 258.148ZM546.571 206.195C552.091 213.182 557.23 220.462 561.959 227.992C556.795 231.241 551.621 234.494 546.443 237.753C542.057 230.775 537.299 224.015 532.193 217.55C536.988 213.76 541.78 209.978 546.571 206.195ZM456.144 198.027C461.913 201.782 467.474 205.85 472.821 210.183C468.963 214.921 465.109 219.668 461.255 224.399C456.416 220.457 451.359 216.786 446.142 213.376C449.477 208.257 452.802 203.142 456.144 198.027ZM440.743 221.642C445.683 224.857 450.447 228.332 455.011 232.045C451.153 236.782 447.303 241.523 443.445 246.261C439.364 242.95 435.133 239.853 430.741 236.991C434.076 231.872 437.41 226.771 440.743 221.642ZM486.549 151.364C493.959 156.181 501.117 161.418 507.973 166.994C504.111 171.738 500.258 176.469 496.4 181.206C490.042 176.024 483.412 171.188 476.538 166.716C479.873 161.597 483.208 156.479 486.549 151.364ZM398.217 172.573C403.35 173.893 408.248 175.359 413.266 177.063C413.895 177.152 416.895 178.354 417.71 178.657C415.584 184.376 413.45 190.108 411.333 195.842C409.988 195.339 408.651 194.868 407.311 194.403C402.761 192.855 398.341 191.54 393.687 190.338C395.199 184.414 396.706 178.497 398.217 172.573ZM391.255 199.893C389.751 205.821 388.237 211.735 386.732 217.663C390.626 218.665 394.335 219.772 398.139 221.067C399.275 221.457 400.389 221.853 401.52 222.268C403.64 216.545 405.764 210.815 407.898 205.083C407.2 204.821 404.645 203.797 404.1 203.73C399.809 202.269 395.638 201.027 391.255 199.893ZM411.97 118.611C418.581 120.325 424.891 122.209 431.357 124.404C433.282 125.065 435.186 125.748 437.081 126.445C434.951 132.171 432.83 137.911 430.708 143.623C428.947 142.969 427.177 142.345 425.403 141.727C419.415 139.684 413.566 137.951 407.437 136.366C408.951 130.452 410.463 124.528 411.97 118.611ZM332.259 139.123C332.759 139.085 334.459 139.032 334.808 138.933C342.169 138.446 349.188 138.291 356.562 138.483C356.392 144.581 356.22 150.695 356.057 156.796C349.276 156.646 342.845 156.777 336.077 157.218C335.77 157.183 334.165 157.361 333.731 157.393C333.232 151.307 332.751 145.222 332.259 139.123ZM334.512 167.23C335.007 173.322 335.496 179.411 335.991 185.504C336.366 185.482 337.751 185.318 338.013 185.354C343.848 184.967 349.421 184.852 355.28 184.991C355.444 178.89 355.615 172.776 355.779 166.675C349.332 166.515 343.188 166.653 336.751 167.073C336.451 167.148 334.957 167.195 334.512 167.23ZM336.786 195.331C337.161 195.309 338.443 195.263 338.705 195.193C344.22 194.824 349.474 194.711 355 194.844C354.836 200.945 354.665 207.059 354.501 213.16C349.567 213.042 344.89 213.152 339.977 213.471C339.743 213.433 338.579 213.565 338.269 213.598C337.766 207.519 337.281 201.424 336.786 195.331ZM330.05 111.722C330.549 117.808 331.033 123.903 331.522 129.992C332.017 129.96 333.82 129.746 334.164 129.794C341.841 129.294 349.129 129.145 356.807 129.318C356.971 123.217 357.143 117.103 357.313 111.006C349.051 110.805 341.161 110.969 332.908 111.516C332.515 111.616 330.598 111.676 330.05 111.722ZM261.488 156.781C268.643 153.665 275.97 150.939 283.425 148.606C285.256 154.435 287.087 160.265 288.915 166.084C282.083 168.229 275.362 170.73 268.795 173.593C266.353 167.995 263.922 162.393 261.488 156.781ZM272.723 182.649C275.161 188.255 277.596 193.85 280.023 199.458C285.685 197 291.462 194.847 297.35 193.005C295.523 187.169 293.692 181.339 291.857 175.516C285.37 177.551 278.966 179.934 272.723 182.649ZM283.961 208.511C289.296 206.19 294.757 204.156 300.304 202.417C302.135 208.247 303.959 214.073 305.786 219.909C300.855 221.455 296 223.265 291.268 225.323C288.834 219.711 286.399 214.116 283.961 208.511ZM250.533 131.577C252.97 137.183 255.405 142.778 257.833 148.386C265.294 145.137 272.93 142.29 280.682 139.854C278.854 134.035 277.027 128.199 275.2 122.362C266.829 124.998 258.582 128.076 250.533 131.577ZM200.57 196.194C206.413 190.88 212.532 185.884 218.913 181.216C222.516 186.151 226.126 191.072 229.729 196.007C223.883 200.286 218.267 204.883 212.9 209.756C208.792 205.237 204.691 200.721 200.57 196.194ZM219.54 217.054C224.653 212.423 229.994 208.039 235.561 203.97C239.167 208.898 242.777 213.837 246.383 218.765C241.337 222.453 236.497 226.412 231.872 230.626C227.768 226.1 223.661 221.581 219.54 217.054ZM238.522 237.921C242.886 233.945 247.455 230.21 252.215 226.727C255.825 231.649 259.435 236.587 263.048 241.519C258.812 244.615 254.734 247.944 250.852 251.483C246.738 246.96 242.63 242.441 238.522 237.921ZM182.087 175.854C186.195 180.374 190.309 184.897 194.417 189.416C200.493 183.882 206.864 178.679 213.503 173.824C209.897 168.896 206.29 163.968 202.677 159.036C195.522 164.264 188.645 169.883 182.087 175.854ZM155.599 252.946C159.439 246.051 163.633 239.352 168.183 232.911C173.181 236.424 178.175 239.943 183.173 243.457C179.001 249.382 175.144 255.525 171.624 261.853C166.271 258.878 160.942 255.907 155.599 252.946ZM180.242 266.643C183.59 260.614 187.268 254.765 191.237 249.129C196.228 252.655 201.223 256.158 206.213 259.684C202.628 264.791 199.303 270.092 196.26 275.547C190.92 272.579 185.584 269.622 180.242 266.643ZM204.891 280.344C207.762 275.188 210.894 270.191 214.291 265.364C219.289 268.877 224.293 272.394 229.277 275.917C226.263 280.204 223.461 284.658 220.909 289.248C215.57 286.28 210.224 283.308 204.891 280.344ZM131.567 239.584C135.873 231.835 140.6 224.321 145.695 217.073C150.693 220.586 155.687 224.106 160.679 227.615C155.948 234.34 151.572 241.306 147.589 248.481C142.252 245.523 136.913 242.556 131.567 239.584ZM131.229 321.026C132.626 313.357 134.42 305.749 136.614 298.275C142.481 299.992 148.344 301.716 154.207 303.439C152.184 310.296 150.538 317.265 149.269 324.3C143.261 323.209 137.24 322.111 131.229 321.026ZM158.981 326.063C160.189 319.363 161.766 312.743 163.676 306.219C169.54 307.943 175.41 309.653 181.267 311.373C179.531 317.273 178.114 323.278 177.024 329.331C171.002 328.249 164.995 327.158 158.981 326.063ZM186.719 331.092C192.726 332.183 198.747 333.282 204.755 334.373C205.674 329.291 206.87 324.264 208.316 319.31C202.453 317.586 196.597 315.866 190.726 314.156C189.098 319.73 187.761 325.383 186.719 331.092ZM104.19 316.118C105.753 307.502 107.786 298.945 110.238 290.533C116.102 292.257 121.965 293.98 127.828 295.704C125.537 303.484 123.663 311.399 122.219 319.395C116.205 318.3 110.198 317.209 104.19 316.118ZM130.265 394.781C129.332 388.559 128.671 382.557 128.215 376.274C128.089 374.364 127.977 372.461 127.894 370.539C133.994 370.26 140.097 369.992 146.202 369.734C146.271 371.498 146.376 373.246 146.5 375.006C146.925 380.775 147.524 386.274 148.381 392C142.344 392.934 136.305 393.858 130.265 394.781ZM158.136 390.518C164.172 389.601 170.215 388.671 176.248 387.744C175.512 382.803 174.978 378.049 174.622 373.062C174.522 371.537 174.437 370.03 174.368 368.497C168.255 368.767 162.156 369.029 156.06 369.301C156.1 370.226 156.157 373.679 156.337 374.331C156.738 379.821 157.324 385.082 158.136 390.518ZM186.018 386.252C185.317 381.588 184.812 377.089 184.481 372.382C184.323 371.813 184.267 368.864 184.243 368.064C190.342 367.803 196.442 367.524 202.551 367.26C202.604 368.545 202.678 369.825 202.763 371.103C203.07 375.301 203.515 379.306 204.136 383.465C198.09 384.402 192.046 385.332 186.018 386.252ZM103.09 398.942C109.12 398.004 115.169 397.095 121.208 396.172C120.239 389.691 119.547 383.449 119.068 376.915C118.931 374.918 118.816 372.943 118.734 370.942C112.628 371.217 106.529 371.478 100.426 371.746C100.526 373.899 100.641 376.042 100.79 378.188C101.294 385.213 102.041 391.972 103.09 398.942ZM152.696 463.5C152.481 463.093 151.862 461.745 151.645 461.479C148.447 455.107 145.654 448.908 143.035 442.27C148.714 440.042 154.403 437.812 160.089 435.571C162.491 441.651 165.043 447.349 167.985 453.184C168.058 453.456 168.762 454.701 168.941 455.034C163.537 457.872 158.112 460.687 152.696 463.5ZM177.71 450.499C183.127 447.67 188.553 444.854 193.968 442.042C193.815 441.741 193.216 440.68 193.141 440.442C190.621 435.408 188.425 430.533 186.35 425.279C180.661 427.509 174.978 429.743 169.292 431.984C171.582 437.77 174.014 443.186 176.808 448.741C176.986 448.968 177.523 450.135 177.71 450.499ZM202.732 437.486C202.565 437.177 202.107 436.179 201.952 435.975C199.572 431.233 197.497 426.606 195.534 421.664C201.223 419.433 206.906 417.199 212.601 414.973C214.333 419.366 216.18 423.455 218.299 427.683C218.352 427.882 218.861 428.777 218.993 429.021C213.567 431.854 208.145 434.663 202.732 437.486ZM128.3 476.195C133.717 473.365 139.139 470.556 144.558 467.737C144.352 467.344 143.568 465.946 143.471 465.624C140.139 458.981 137.245 452.528 134.497 445.622C128.815 447.856 123.132 450.09 117.443 452.321C120.405 459.775 123.532 466.742 127.134 473.913C127.373 474.219 128.064 475.731 128.3 476.195ZM196.368 521.68C190.68 516.24 185.272 510.483 180.177 504.475C184.84 500.53 189.511 496.589 194.175 492.644C198.847 498.161 203.807 503.438 209.035 508.436C204.81 512.846 200.591 517.26 196.368 521.68ZM215.859 501.301C210.874 496.541 206.155 491.519 201.704 486.262C206.372 482.311 211.042 478.37 215.706 474.425C219.731 479.179 224.011 483.736 228.516 488.043C224.293 492.463 220.075 496.877 215.859 501.301Z"/>
</mask>
<path fill-rule="evenodd" clip-rule="evenodd" d="M235.342 480.919C231.091 476.847 227.042 472.547 223.238 468.053C227.902 464.108 232.57 460.157 237.233 456.212C240.621 460.218 244.218 464.045 248.013 467.668C243.79 472.088 239.572 476.502 235.342 480.919ZM557.461 320.466C558.187 323.449 558.75 326.469 559.151 329.511C556.005 329.922 552.85 330.337 549.708 330.741C549.353 328.035 548.852 325.351 548.217 322.686C551.296 321.945 554.375 321.204 557.461 320.466ZM574.019 268.902C575.081 273.324 575.923 277.805 576.515 282.336C571.849 282.948 567.18 283.549 562.51 284.167C561.98 280.14 561.245 276.163 560.295 272.22C564.861 271.109 569.44 270.005 574.019 268.902ZM515.853 308.11C516.921 312.536 517.749 317.027 518.345 321.551C513.679 322.163 509.01 322.764 504.344 323.375C503.81 319.355 503.072 315.367 502.129 311.429C506.691 310.324 511.274 309.214 515.853 308.11ZM177.362 541.543C170.973 535.433 164.9 528.975 159.185 522.219C163.842 518.271 168.516 514.323 173.18 510.378C178.479 516.646 184.114 522.622 190.028 528.299C185.813 532.723 181.591 537.126 177.362 541.543ZM297.914 559.821C290.745 557.909 283.689 555.603 276.771 552.935C278.972 547.241 281.176 541.54 283.374 535.836C289.685 538.268 296.119 540.366 302.649 542.112C301.077 548.019 299.488 553.925 297.914 559.821ZM305.207 532.585C299.02 530.931 292.916 528.936 286.941 526.626C289.141 520.932 291.339 515.228 293.543 509.527C298.918 511.606 304.394 513.388 309.953 514.874C308.364 520.78 306.785 526.682 305.207 532.585ZM312.496 505.356C307.274 503.959 302.129 502.279 297.085 500.33C299.285 494.636 301.487 488.925 303.691 483.224C308.122 484.934 312.646 486.406 317.228 487.637C315.656 493.544 314.071 499.443 312.496 505.356ZM290.634 587.064C282.497 584.885 274.471 582.284 266.619 579.244C268.82 573.55 271.017 567.846 273.222 562.145C280.464 564.939 287.857 567.351 295.366 569.362C293.787 575.265 292.209 581.168 290.634 587.064ZM283.337 614.306C274.229 611.866 265.265 608.945 256.467 605.554C258.661 599.856 260.865 594.155 263.069 588.454C271.257 591.617 279.605 594.333 288.083 596.595C286.498 602.494 284.916 608.403 283.337 614.306ZM365.325 566.49C357.972 566.964 350.591 567.043 343.236 566.738C343.493 560.629 343.743 554.534 343.996 548.431C350.71 548.711 357.447 548.632 364.152 548.208C364.534 554.297 364.929 560.393 365.325 566.49ZM363.523 538.352C363.128 532.256 362.732 526.159 362.347 520.059C356.629 520.426 350.892 520.49 345.169 520.252C344.916 526.355 344.659 532.464 344.402 538.573C350.771 538.838 357.157 538.769 363.523 538.352ZM361.71 510.217C356.34 510.563 350.956 510.628 345.582 510.398C345.833 504.285 346.082 498.189 346.346 492.084C351.066 492.281 355.812 492.22 360.542 491.928C360.93 498.021 361.326 504.117 361.71 510.217ZM367.123 594.635C366.731 588.531 366.336 582.435 365.947 576.342C358.25 576.83 350.53 576.915 342.823 576.593C342.566 582.702 342.313 588.804 342.06 594.907C350.416 595.268 358.778 595.173 367.123 594.635ZM368.925 622.773C359.589 623.375 350.231 623.479 340.88 623.082C341.143 616.977 341.393 610.881 341.646 604.778C350.344 605.143 359.061 605.032 367.749 604.48C368.145 610.577 368.536 616.68 368.925 622.773ZM259.699 561.426C259.278 561.236 257.964 560.557 257.627 560.468C251.173 557.44 245.168 554.265 239.001 550.678C242.095 545.411 245.206 540.146 248.299 534.879C253.934 538.177 259.476 541.085 265.382 543.867C265.602 544.038 266.917 544.576 267.281 544.742C264.749 550.306 262.223 555.875 259.699 561.426ZM271.369 535.763C271.005 535.597 269.854 535.003 269.56 534.931C263.935 532.275 258.679 529.515 253.312 526.381C256.406 521.114 259.513 515.855 262.61 510.582C267.487 513.433 272.21 515.921 277.316 518.33C277.51 518.468 278.637 518.934 278.947 519.086C276.419 524.644 273.894 530.195 271.369 535.763ZM283.03 510.086C282.719 509.951 281.741 509.439 281.484 509.379C276.686 507.113 272.198 504.752 267.616 502.08C270.716 496.817 273.81 491.55 276.915 486.281C280.993 488.662 284.965 490.752 289.243 492.771C289.404 492.891 290.355 493.28 290.609 493.392C288.09 498.964 285.558 504.528 283.03 510.086ZM248.324 586.455C247.857 586.238 246.373 585.487 245.992 585.382C238.738 581.963 231.987 578.41 225.059 574.366C228.153 569.1 231.264 563.834 234.358 558.567C240.771 562.323 247.034 565.621 253.753 568.785C254.013 568.978 255.509 569.586 255.913 569.775C253.374 575.335 250.842 580.9 248.324 586.455ZM329.951 580.289C322.107 579.516 314.309 578.328 306.593 576.736C307.83 570.751 309.067 564.766 310.314 558.778C317.4 560.253 324.556 561.344 331.749 562.051C331.161 568.136 330.557 574.204 329.951 580.289ZM332.719 552.226C325.877 551.555 319.054 550.514 312.304 549.118C313.551 543.13 314.791 537.155 316.028 531.17C322.136 532.425 328.313 533.375 334.524 533.992C333.922 540.07 333.323 546.158 332.719 552.226ZM335.501 524.171C336.089 518.085 336.697 512.011 337.298 505.933C332.072 505.417 326.89 504.626 321.742 503.562C320.509 509.541 319.271 515.526 318.028 521.507C323.799 522.7 329.637 523.596 335.501 524.171ZM327.246 607.645C327.848 601.567 328.453 595.482 329.051 589.411C320.883 588.602 312.762 587.36 304.735 585.695C303.495 591.67 302.254 597.661 301.014 603.636C309.68 605.449 318.437 606.784 327.246 607.645ZM532.564 260.673C533.679 262.722 534.763 264.78 535.824 266.86C538.086 271.347 540.135 275.773 542.089 280.41C536.457 282.771 530.825 285.132 525.183 287.495C523.399 283.283 521.532 279.245 519.473 275.157C518.514 273.252 517.53 271.375 516.503 269.51C521.844 266.566 527.202 263.623 532.564 260.673ZM490.497 207.29C495.942 212.264 501.12 217.516 506.001 223.038C501.431 227.081 496.857 231.131 492.279 235.187C487.828 230.16 483.102 225.364 478.134 220.834C482.253 216.318 486.382 211.8 490.497 207.29ZM452.471 248.935C456.44 252.562 460.226 256.4 463.793 260.431C459.219 264.48 454.645 268.53 450.078 272.583C446.937 269.038 443.601 265.662 440.106 262.469C444.231 257.957 448.352 253.451 452.471 248.935ZM528.533 165.643C535.441 171.956 542.012 178.622 548.207 185.619C543.642 189.683 539.068 193.732 534.494 197.782C528.723 191.26 522.598 185.045 516.168 179.176C520.296 174.674 524.408 170.155 528.533 165.643ZM433.641 170.276C440.42 173.261 447.047 176.601 453.478 180.279C450.438 185.576 447.406 190.888 444.366 196.185C438.501 192.826 432.461 189.771 426.272 187.065C428.734 181.469 431.179 175.872 433.641 170.276ZM410.981 221.923C415.923 224.096 420.749 226.529 425.436 229.217C422.402 234.518 419.361 239.815 416.321 245.113C412.2 242.76 407.953 240.609 403.606 238.709C406.068 233.113 408.523 227.513 410.981 221.923ZM444.967 144.458C452.669 147.836 460.191 151.63 467.498 155.814C464.463 161.115 461.419 166.419 458.389 171.713C451.652 167.859 444.713 164.356 437.602 161.241C440.06 155.652 442.505 150.055 444.967 144.458ZM456.293 118.641C464.921 122.42 473.338 126.67 481.513 131.355C478.476 136.645 475.438 141.953 472.404 147.254C464.799 142.899 456.961 138.947 448.935 135.428C451.39 129.828 453.846 124.228 456.293 118.641ZM368.212 153.606C375.567 154.246 382.882 155.261 390.122 156.666C388.946 162.669 387.78 168.668 386.618 174.661C380.015 173.377 373.354 172.439 366.646 171.871C367.166 165.781 367.692 159.695 368.212 153.606ZM363.399 209.795C368.742 210.246 374.064 210.994 379.328 212.027C378.155 218.022 376.986 224.011 375.827 230.015C371.207 229.107 366.528 228.455 361.827 228.057C362.343 221.973 362.866 215.877 363.399 209.795ZM370.625 125.515C378.977 126.236 387.277 127.396 395.511 128.994C394.338 134.99 393.166 140.986 391.997 146.975C384.418 145.498 376.753 144.431 369.056 143.77C369.576 137.68 370.099 131.601 370.625 125.515ZM373.025 97.4165C372.505 103.506 371.989 109.59 371.459 115.682C380.165 116.431 388.827 117.64 397.399 119.31C398.571 113.315 399.731 107.311 400.903 101.315C391.687 99.5208 382.373 98.2176 373.025 97.4165ZM299.224 159.159C306.473 157.334 313.822 155.903 321.222 154.873C322.069 160.921 322.917 166.97 323.761 173.025C317.007 173.96 310.307 175.262 303.702 176.937C302.203 171.007 300.717 165.085 299.224 159.159ZM306.097 186.504C307.583 192.426 309.076 198.352 310.568 204.278C316.195 202.86 321.91 201.749 327.66 200.959C326.812 194.911 325.969 188.856 325.125 182.801C318.718 183.688 312.364 184.926 306.097 186.504ZM312.977 213.853C318.262 212.521 323.616 211.484 329.021 210.725C329.869 216.773 330.708 222.835 331.553 228.873C326.812 229.538 322.104 230.453 317.452 231.621C315.952 225.708 314.463 219.775 312.977 213.853ZM292.348 131.803C293.83 137.732 295.323 143.658 296.815 149.584C304.416 147.671 312.105 146.171 319.858 145.097C319.021 139.045 318.177 132.99 317.333 126.935C308.92 128.114 300.575 129.739 292.348 131.803ZM285.471 104.465C294.68 102.154 304.02 100.335 313.423 99.0204C314.264 105.065 315.111 111.113 315.959 117.162C307.203 118.382 298.507 120.079 289.946 122.233C288.449 116.313 286.964 110.391 285.471 104.465ZM237.309 186.092C243.519 182.103 249.568 178.622 256.151 175.256C256.209 175.201 256.559 175.04 256.668 174.988C259.416 180.455 262.168 185.914 264.91 191.36C264.821 191.406 264.509 191.579 264.44 191.592C258.439 194.668 252.934 197.835 247.263 201.473C243.936 196.352 240.622 191.222 237.309 186.092ZM252.623 209.764C255.943 214.898 259.26 220.021 262.573 225.151C267.394 222.066 272.093 219.361 277.188 216.752C277.251 216.736 277.513 216.587 277.598 216.547C274.843 211.094 272.091 205.634 269.353 200.182C269.257 200.225 268.964 200.365 268.903 200.409C263.211 203.318 258.004 206.322 252.623 209.764ZM267.939 233.446C272.472 230.539 276.859 228.008 281.659 225.556C281.695 225.524 281.967 225.406 282.034 225.366C284.782 230.832 287.531 236.282 290.276 241.738C290.216 241.765 289.999 241.896 289.947 241.91C285.737 244.058 281.894 246.275 277.903 248.824C274.573 243.693 271.252 238.576 267.939 233.446ZM221.989 162.417C225.302 167.547 228.622 172.681 231.939 177.804C238.462 173.625 244.788 169.985 251.676 166.459C251.76 166.436 252.115 166.235 252.224 166.183C249.475 160.734 246.72 155.281 243.979 149.818C243.859 149.872 243.457 150.047 243.392 150.115C235.916 153.939 229.068 157.887 221.989 162.417ZM206.669 138.742C214.573 133.671 222.277 129.237 230.629 124.965C230.722 124.895 231.16 124.688 231.301 124.628C234.053 130.088 236.787 135.546 239.543 140.999C239.426 141.064 239.025 141.284 238.92 141.312C231.134 145.292 223.994 149.407 216.622 154.139C213.313 149.003 209.989 143.875 206.669 138.742ZM187.113 231.688C189.112 229.174 191.141 226.731 193.252 224.299C196.01 221.146 198.8 218.134 201.734 215.135C206.09 219.408 210.452 223.686 214.811 227.97C212.14 230.697 209.591 233.459 207.073 236.335C205.157 238.552 203.295 240.783 201.473 243.08C196.695 239.279 191.906 235.48 187.113 231.688ZM209.212 249.21C210.943 247.037 212.699 244.93 214.519 242.818C216.909 240.087 219.315 237.482 221.854 234.891C226.205 239.171 230.574 243.452 234.937 247.729C232.654 250.061 230.486 252.407 228.347 254.857C226.703 256.755 225.126 258.645 223.578 260.607C218.789 256.808 214 253.009 209.212 249.21ZM231.303 266.728C232.772 264.889 234.254 263.103 235.797 261.333C237.808 259.029 239.836 256.833 241.983 254.644C246.339 258.917 250.704 263.205 255.068 267.465C253.182 269.399 251.389 271.342 249.611 273.365C248.263 274.92 246.954 276.498 245.667 278.115C240.885 274.319 236.096 270.521 231.303 266.728ZM165.028 214.173C167.301 211.323 169.597 208.556 171.988 205.792C175.114 202.214 178.283 198.776 181.607 195.392C185.963 199.666 190.321 203.95 194.683 208.227C191.614 211.369 188.699 214.52 185.819 217.825C183.605 220.373 181.487 222.924 179.385 225.555C174.599 221.767 169.81 217.968 165.028 214.173ZM142.926 196.657C145.46 193.463 148.042 190.367 150.713 187.286C154.222 183.276 157.757 179.449 161.469 175.652C165.838 179.934 170.194 184.207 174.552 188.491C171.092 192.035 167.793 195.592 164.541 199.326C162.054 202.195 159.655 205.079 157.286 208.05C152.501 204.245 147.718 200.45 142.926 196.657ZM154.111 291.16C156.612 284.164 159.481 277.283 162.722 270.581C168.221 273.243 173.723 275.898 179.225 278.553C176.283 284.659 173.654 290.928 171.377 297.32C165.627 295.264 159.868 293.221 154.111 291.16ZM180.674 300.628C182.834 294.575 185.317 288.637 188.109 282.852C193.615 285.501 199.117 288.156 204.615 290.818C202.109 296.017 199.879 301.349 197.934 306.784C192.19 304.731 186.439 302.675 180.674 300.628ZM207.241 310.089C209.059 304.996 211.15 299.982 213.51 295.113C219.016 297.762 224.508 300.42 230.016 303.079C227.942 307.361 226.101 311.76 224.501 316.245C218.757 314.193 212.985 312.142 207.241 310.089ZM127.557 281.707C130.394 273.747 133.662 265.929 137.338 258.321C142.837 260.983 148.332 263.634 153.841 266.293C150.454 273.308 147.436 280.51 144.825 287.849C139.06 285.802 133.305 283.753 127.557 281.707ZM100.994 272.239C104.17 263.325 107.822 254.581 111.937 246.06C117.446 248.719 122.938 251.377 128.444 254.025C124.618 261.954 121.214 270.099 118.264 278.392C112.493 276.341 106.745 274.296 100.994 272.239ZM142.146 357.671C142.254 350.212 142.759 342.77 143.667 335.366C149.736 336.104 155.799 336.856 161.869 337.594C161.045 344.348 160.579 351.14 160.479 357.941C154.364 357.849 148.262 357.763 142.146 357.671ZM170.337 358.073C170.432 351.632 170.87 345.195 171.648 338.795C177.718 339.533 183.781 340.284 189.85 341.022C189.138 346.771 188.754 352.55 188.67 358.344C182.551 358.258 176.452 358.166 170.337 358.073ZM198.531 358.487C198.616 353.057 198.984 347.613 199.647 342.224C205.713 342.969 211.776 343.72 217.845 344.458C217.258 349.21 216.945 353.978 216.87 358.761C210.755 358.668 204.642 358.586 198.531 358.487ZM113.955 357.268C120.054 357.36 126.169 357.452 132.271 357.537C132.391 349.723 132.921 341.916 133.87 334.164C127.8 333.426 121.738 332.675 115.685 331.938C114.652 340.339 114.073 348.798 113.955 357.268ZM85.7578 356.861C85.8911 347.384 86.5351 337.911 87.6963 328.506C93.7491 329.243 99.8218 329.991 105.881 330.732C104.804 339.487 104.202 348.305 104.078 357.124C97.9754 357.039 91.8666 356.95 85.7578 356.861ZM152.491 425.891C150.197 418.874 148.263 411.721 146.719 404.492C152.693 403.222 158.667 401.952 164.642 400.682C166.047 407.264 167.803 413.775 169.911 420.181C164.101 422.085 158.302 423.986 152.491 425.891ZM179.29 417.102C185.089 415.2 190.896 413.303 196.703 411.388C194.918 405.938 193.422 400.4 192.229 394.797C186.255 396.067 180.277 397.344 174.302 398.614C175.628 404.859 177.294 411.036 179.29 417.102ZM206.084 408.32C204.408 403.216 203.003 398.012 201.885 392.753C207.859 391.483 213.837 390.206 219.816 388.929C220.797 393.552 222.028 398.125 223.504 402.61C217.69 404.521 211.877 406.414 206.084 408.32ZM125.697 434.672C131.503 432.775 137.303 430.874 143.113 428.969C140.698 421.609 138.686 414.119 137.076 406.544C131.102 407.814 125.124 409.091 119.145 410.368C120.898 418.583 123.079 426.7 125.697 434.672ZM98.895 443.468C95.9747 434.534 93.5229 425.447 91.5551 416.242C97.5294 414.972 103.508 413.695 109.482 412.425C111.307 420.991 113.587 429.44 116.311 437.764C110.509 439.655 104.716 441.561 98.895 443.468ZM183.766 485.813C179.314 479.884 175.181 473.724 171.38 467.358C176.626 464.226 181.878 461.099 187.114 457.97C190.575 463.778 194.356 469.399 198.414 474.8C193.527 478.474 188.653 482.139 183.766 485.813ZM206.315 468.861C202.459 463.737 198.887 458.413 195.596 452.907C200.849 449.779 206.088 446.644 211.33 443.519C214.284 448.46 217.499 453.241 220.946 457.847C216.065 461.525 211.199 465.194 206.315 468.861ZM228.839 451.922C233.727 448.248 238.608 444.57 243.492 440.903C240.63 437.103 237.993 433.159 235.56 429.076C230.303 432.21 225.061 435.335 219.826 438.464C222.578 443.111 225.594 447.592 228.839 451.922ZM161.227 502.761C166.115 499.087 170.996 495.409 175.879 491.742C171.214 485.539 166.877 479.076 162.894 472.411C157.642 475.538 152.4 478.663 147.154 481.794C151.473 489.025 156.175 496.035 161.227 502.761ZM138.699 519.707C133.027 512.172 127.767 504.336 122.941 496.239C128.198 493.104 133.44 489.98 138.696 486.845C143.185 494.378 148.076 501.674 153.351 508.687C148.46 512.368 143.58 516.029 138.699 519.707ZM232.719 532.627C226.641 528.473 220.783 523.986 215.178 519.212C219.143 514.564 223.113 509.908 227.078 505.26C232.186 509.623 237.53 513.716 243.08 517.513C239.616 522.548 236.162 527.597 232.719 532.627ZM248.641 509.366C243.388 505.759 238.315 501.885 233.475 497.747C237.447 493.102 241.406 488.449 245.371 483.801C249.729 487.519 254.283 491.006 259.01 494.238C255.555 499.288 252.105 504.331 248.641 509.366ZM264.59 486.103C260.15 483.063 255.872 479.788 251.782 476.295C255.753 471.651 259.708 467.005 263.674 462.356C267.282 465.429 271.046 468.31 274.952 470.989C271.485 476.014 268.041 481.06 264.59 486.103ZM216.782 555.897C209.889 551.166 203.237 546.079 196.875 540.657C200.847 536.012 204.806 531.36 208.775 526.705C214.644 531.71 220.778 536.409 227.134 540.769C223.684 545.812 220.233 550.855 216.782 555.897ZM200.847 579.151C193.133 573.866 185.691 568.173 178.576 562.112C182.548 557.467 186.506 552.815 190.472 548.166C197.09 553.817 204.018 559.116 211.202 564.032C207.751 569.075 204.29 574.121 200.847 579.151ZM480.72 258.148C484.384 262.791 487.798 267.625 490.946 272.643C485.765 275.891 480.598 279.147 475.417 282.396C472.622 277.945 469.585 273.637 466.321 269.508C471.133 265.72 475.924 261.937 480.72 258.148ZM546.571 206.195C552.091 213.182 557.23 220.462 561.959 227.992C556.795 231.241 551.621 234.494 546.443 237.753C542.057 230.775 537.299 224.015 532.193 217.55C536.988 213.76 541.78 209.978 546.571 206.195ZM456.144 198.027C461.913 201.782 467.474 205.85 472.821 210.183C468.963 214.921 465.109 219.668 461.255 224.399C456.416 220.457 451.359 216.786 446.142 213.376C449.477 208.257 452.802 203.142 456.144 198.027ZM440.743 221.642C445.683 224.857 450.447 228.332 455.011 232.045C451.153 236.782 447.303 241.523 443.445 246.261C439.364 242.95 435.133 239.853 430.741 236.991C434.076 231.872 437.41 226.771 440.743 221.642ZM486.549 151.364C493.959 156.181 501.117 161.418 507.973 166.994C504.111 171.738 500.258 176.469 496.4 181.206C490.042 176.024 483.412 171.188 476.538 166.716C479.873 161.597 483.208 156.479 486.549 151.364ZM398.217 172.573C403.35 173.893 408.248 175.359 413.266 177.063C413.895 177.152 416.895 178.354 417.71 178.657C415.584 184.376 413.45 190.108 411.333 195.842C409.988 195.339 408.651 194.868 407.311 194.403C402.761 192.855 398.341 191.54 393.687 190.338C395.199 184.414 396.706 178.497 398.217 172.573ZM391.255 199.893C389.751 205.821 388.237 211.735 386.732 217.663C390.626 218.665 394.335 219.772 398.139 221.067C399.275 221.457 400.389 221.853 401.52 222.268C403.64 216.545 405.764 210.815 407.898 205.083C407.2 204.821 404.645 203.797 404.1 203.73C399.809 202.269 395.638 201.027 391.255 199.893ZM411.97 118.611C418.581 120.325 424.891 122.209 431.357 124.404C433.282 125.065 435.186 125.748 437.081 126.445C434.951 132.171 432.83 137.911 430.708 143.623C428.947 142.969 427.177 142.345 425.403 141.727C419.415 139.684 413.566 137.951 407.437 136.366C408.951 130.452 410.463 124.528 411.97 118.611ZM332.259 139.123C332.759 139.085 334.459 139.032 334.808 138.933C342.169 138.446 349.188 138.291 356.562 138.483C356.392 144.581 356.22 150.695 356.057 156.796C349.276 156.646 342.845 156.777 336.077 157.218C335.77 157.183 334.165 157.361 333.731 157.393C333.232 151.307 332.751 145.222 332.259 139.123ZM334.512 167.23C335.007 173.322 335.496 179.411 335.991 185.504C336.366 185.482 337.751 185.318 338.013 185.354C343.848 184.967 349.421 184.852 355.28 184.991C355.444 178.89 355.615 172.776 355.779 166.675C349.332 166.515 343.188 166.653 336.751 167.073C336.451 167.148 334.957 167.195 334.512 167.23ZM336.786 195.331C337.161 195.309 338.443 195.263 338.705 195.193C344.22 194.824 349.474 194.711 355 194.844C354.836 200.945 354.665 207.059 354.501 213.16C349.567 213.042 344.89 213.152 339.977 213.471C339.743 213.433 338.579 213.565 338.269 213.598C337.766 207.519 337.281 201.424 336.786 195.331ZM330.05 111.722C330.549 117.808 331.033 123.903 331.522 129.992C332.017 129.96 333.82 129.746 334.164 129.794C341.841 129.294 349.129 129.145 356.807 129.318C356.971 123.217 357.143 117.103 357.313 111.006C349.051 110.805 341.161 110.969 332.908 111.516C332.515 111.616 330.598 111.676 330.05 111.722ZM261.488 156.781C268.643 153.665 275.97 150.939 283.425 148.606C285.256 154.435 287.087 160.265 288.915 166.084C282.083 168.229 275.362 170.73 268.795 173.593C266.353 167.995 263.922 162.393 261.488 156.781ZM272.723 182.649C275.161 188.255 277.596 193.85 280.023 199.458C285.685 197 291.462 194.847 297.35 193.005C295.523 187.169 293.692 181.339 291.857 175.516C285.37 177.551 278.966 179.934 272.723 182.649ZM283.961 208.511C289.296 206.19 294.757 204.156 300.304 202.417C302.135 208.247 303.959 214.073 305.786 219.909C300.855 221.455 296 223.265 291.268 225.323C288.834 219.711 286.399 214.116 283.961 208.511ZM250.533 131.577C252.97 137.183 255.405 142.778 257.833 148.386C265.294 145.137 272.93 142.29 280.682 139.854C278.854 134.035 277.027 128.199 275.2 122.362C266.829 124.998 258.582 128.076 250.533 131.577ZM200.57 196.194C206.413 190.88 212.532 185.884 218.913 181.216C222.516 186.151 226.126 191.072 229.729 196.007C223.883 200.286 218.267 204.883 212.9 209.756C208.792 205.237 204.691 200.721 200.57 196.194ZM219.54 217.054C224.653 212.423 229.994 208.039 235.561 203.97C239.167 208.898 242.777 213.837 246.383 218.765C241.337 222.453 236.497 226.412 231.872 230.626C227.768 226.1 223.661 221.581 219.54 217.054ZM238.522 237.921C242.886 233.945 247.455 230.21 252.215 226.727C255.825 231.649 259.435 236.587 263.048 241.519C258.812 244.615 254.734 247.944 250.852 251.483C246.738 246.96 242.63 242.441 238.522 237.921ZM182.087 175.854C186.195 180.374 190.309 184.897 194.417 189.416C200.493 183.882 206.864 178.679 213.503 173.824C209.897 168.896 206.29 163.968 202.677 159.036C195.522 164.264 188.645 169.883 182.087 175.854ZM155.599 252.946C159.439 246.051 163.633 239.352 168.183 232.911C173.181 236.424 178.175 239.943 183.173 243.457C179.001 249.382 175.144 255.525 171.624 261.853C166.271 258.878 160.942 255.907 155.599 252.946ZM180.242 266.643C183.59 260.614 187.268 254.765 191.237 249.129C196.228 252.655 201.223 256.158 206.213 259.684C202.628 264.791 199.303 270.092 196.26 275.547C190.92 272.579 185.584 269.622 180.242 266.643ZM204.891 280.344C207.762 275.188 210.894 270.191 214.291 265.364C219.289 268.877 224.293 272.394 229.277 275.917C226.263 280.204 223.461 284.658 220.909 289.248C215.57 286.28 210.224 283.308 204.891 280.344ZM131.567 239.584C135.873 231.835 140.6 224.321 145.695 217.073C150.693 220.586 155.687 224.106 160.679 227.615C155.948 234.34 151.572 241.306 147.589 248.481C142.252 245.523 136.913 242.556 131.567 239.584ZM131.229 321.026C132.626 313.357 134.42 305.749 136.614 298.275C142.481 299.992 148.344 301.716 154.207 303.439C152.184 310.296 150.538 317.265 149.269 324.3C143.261 323.209 137.24 322.111 131.229 321.026ZM158.981 326.063C160.189 319.363 161.766 312.743 163.676 306.219C169.54 307.943 175.41 309.653 181.267 311.373C179.531 317.273 178.114 323.278 177.024 329.331C171.002 328.249 164.995 327.158 158.981 326.063ZM186.719 331.092C192.726 332.183 198.747 333.282 204.755 334.373C205.674 329.291 206.87 324.264 208.316 319.31C202.453 317.586 196.597 315.866 190.726 314.156C189.098 319.73 187.761 325.383 186.719 331.092ZM104.19 316.118C105.753 307.502 107.786 298.945 110.238 290.533C116.102 292.257 121.965 293.98 127.828 295.704C125.537 303.484 123.663 311.399 122.219 319.395C116.205 318.3 110.198 317.209 104.19 316.118ZM130.265 394.781C129.332 388.559 128.671 382.557 128.215 376.274C128.089 374.364 127.977 372.461 127.894 370.539C133.994 370.26 140.097 369.992 146.202 369.734C146.271 371.498 146.376 373.246 146.5 375.006C146.925 380.775 147.524 386.274 148.381 392C142.344 392.934 136.305 393.858 130.265 394.781ZM158.136 390.518C164.172 389.601 170.215 388.671 176.248 387.744C175.512 382.803 174.978 378.049 174.622 373.062C174.522 371.537 174.437 370.03 174.368 368.497C168.255 368.767 162.156 369.029 156.06 369.301C156.1 370.226 156.157 373.679 156.337 374.331C156.738 379.821 157.324 385.082 158.136 390.518ZM186.018 386.252C185.317 381.588 184.812 377.089 184.481 372.382C184.323 371.813 184.267 368.864 184.243 368.064C190.342 367.803 196.442 367.524 202.551 367.26C202.604 368.545 202.678 369.825 202.763 371.103C203.07 375.301 203.515 379.306 204.136 383.465C198.09 384.402 192.046 385.332 186.018 386.252ZM103.09 398.942C109.12 398.004 115.169 397.095 121.208 396.172C120.239 389.691 119.547 383.449 119.068 376.915C118.931 374.918 118.816 372.943 118.734 370.942C112.628 371.217 106.529 371.478 100.426 371.746C100.526 373.899 100.641 376.042 100.79 378.188C101.294 385.213 102.041 391.972 103.09 398.942ZM152.696 463.5C152.481 463.093 151.862 461.745 151.645 461.479C148.447 455.107 145.654 448.908 143.035 442.27C148.714 440.042 154.403 437.812 160.089 435.571C162.491 441.651 165.043 447.349 167.985 453.184C168.058 453.456 168.762 454.701 168.941 455.034C163.537 457.872 158.112 460.687 152.696 463.5ZM177.71 450.499C183.127 447.67 188.553 444.854 193.968 442.042C193.815 441.741 193.216 440.68 193.141 440.442C190.621 435.408 188.425 430.533 186.35 425.279C180.661 427.509 174.978 429.743 169.292 431.984C171.582 437.77 174.014 443.186 176.808 448.741C176.986 448.968 177.523 450.135 177.71 450.499ZM202.732 437.486C202.565 437.177 202.107 436.179 201.952 435.975C199.572 431.233 197.497 426.606 195.534 421.664C201.223 419.433 206.906 417.199 212.601 414.973C214.333 419.366 216.18 423.455 218.299 427.683C218.352 427.882 218.861 428.777 218.993 429.021C213.567 431.854 208.145 434.663 202.732 437.486ZM128.3 476.195C133.717 473.365 139.139 470.556 144.558 467.737C144.352 467.344 143.568 465.946 143.471 465.624C140.139 458.981 137.245 452.528 134.497 445.622C128.815 447.856 123.132 450.09 117.443 452.321C120.405 459.775 123.532 466.742 127.134 473.913C127.373 474.219 128.064 475.731 128.3 476.195ZM196.368 521.68C190.68 516.24 185.272 510.483 180.177 504.475C184.84 500.53 189.511 496.589 194.175 492.644C198.847 498.161 203.807 503.438 209.035 508.436C204.81 512.846 200.591 517.26 196.368 521.68ZM215.859 501.301C210.874 496.541 206.155 491.519 201.704 486.262C206.372 482.311 211.042 478.37 215.706 474.425C219.731 479.179 224.011 483.736 228.516 488.043C224.293 492.463 220.075 496.877 215.859 501.301Z" fill="url(#paint0_linear_2_22)"/>
<path fill-rule="evenodd" clip-rule="evenodd" d="M235.342 480.919C231.091 476.847 227.042 472.547 223.238 468.053C227.902 464.108 232.57 460.157 237.233 456.212C240.621 460.218 244.218 464.045 248.013 467.668C243.79 472.088 239.572 476.502 235.342 480.919ZM557.461 320.466C558.187 323.449 558.75 326.469 559.151 329.511C556.005 329.922 552.85 330.337 549.708 330.741C549.353 328.035 548.852 325.351 548.217 322.686C551.296 321.945 554.375 321.204 557.461 320.466ZM574.019 268.902C575.081 273.324 575.923 277.805 576.515 282.336C571.849 282.948 567.18 283.549 562.51 284.167C561.98 280.14 561.245 276.163 560.295 272.22C564.861 271.109 569.44 270.005 574.019 268.902ZM515.853 308.11C516.921 312.536 517.749 317.027 518.345 321.551C513.679 322.163 509.01 322.764 504.344 323.375C503.81 319.355 503.072 315.367 502.129 311.429C506.691 310.324 511.274 309.214 515.853 308.11ZM177.362 541.543C170.973 535.433 164.9 528.975 159.185 522.219C163.842 518.271 168.516 514.323 173.18 510.378C178.479 516.646 184.114 522.622 190.028 528.299C185.813 532.723 181.591 537.126 177.362 541.543ZM297.914 559.821C290.745 557.909 283.689 555.603 276.771 552.935C278.972 547.241 281.176 541.54 283.374 535.836C289.685 538.268 296.119 540.366 302.649 542.112C301.077 548.019 299.488 553.925 297.914 559.821ZM305.207 532.585C299.02 530.931 292.916 528.936 286.941 526.626C289.141 520.932 291.339 515.228 293.543 509.527C298.918 511.606 304.394 513.388 309.953 514.874C308.364 520.78 306.785 526.682 305.207 532.585ZM312.496 505.356C307.274 503.959 302.129 502.279 297.085 500.33C299.285 494.636 301.487 488.925 303.691 483.224C308.122 484.934 312.646 486.406 317.228 487.637C315.656 493.544 314.071 499.443 312.496 505.356ZM290.634 587.064C282.497 584.885 274.471 582.284 266.619 579.244C268.82 573.55 271.017 567.846 273.222 562.145C280.464 564.939 287.857 567.351 295.366 569.362C293.787 575.265 292.209 581.168 290.634 587.064ZM283.337 614.306C274.229 611.866 265.265 608.945 256.467 605.554C258.661 599.856 260.865 594.155 263.069 588.454C271.257 591.617 279.605 594.333 288.083 596.595C286.498 602.494 284.916 608.403 283.337 614.306ZM365.325 566.49C357.972 566.964 350.591 567.043 343.236 566.738C343.493 560.629 343.743 554.534 343.996 548.431C350.71 548.711 357.447 548.632 364.152 548.208C364.534 554.297 364.929 560.393 365.325 566.49ZM363.523 538.352C363.128 532.256 362.732 526.159 362.347 520.059C356.629 520.426 350.892 520.49 345.169 520.252C344.916 526.355 344.659 532.464 344.402 538.573C350.771 538.838 357.157 538.769 363.523 538.352ZM361.71 510.217C356.34 510.563 350.956 510.628 345.582 510.398C345.833 504.285 346.082 498.189 346.346 492.084C351.066 492.281 355.812 492.22 360.542 491.928C360.93 498.021 361.326 504.117 361.71 510.217ZM367.123 594.635C366.731 588.531 366.336 582.435 365.947 576.342C358.25 576.83 350.53 576.915 342.823 576.593C342.566 582.702 342.313 588.804 342.06 594.907C350.416 595.268 358.778 595.173 367.123 594.635ZM368.925 622.773C359.589 623.375 350.231 623.479 340.88 623.082C341.143 616.977 341.393 610.881 341.646 604.778C350.344 605.143 359.061 605.032 367.749 604.48C368.145 610.577 368.536 616.68 368.925 622.773ZM259.699 561.426C259.278 561.236 257.964 560.557 257.627 560.468C251.173 557.44 245.168 554.265 239.001 550.678C242.095 545.411 245.206 540.146 248.299 534.879C253.934 538.177 259.476 541.085 265.382 543.867C265.602 544.038 266.917 544.576 267.281 544.742C264.749 550.306 262.223 555.875 259.699 561.426ZM271.369 535.763C271.005 535.597 269.854 535.003 269.56 534.931C263.935 532.275 258.679 529.515 253.312 526.381C256.406 521.114 259.513 515.855 262.61 510.582C267.487 513.433 272.21 515.921 277.316 518.33C277.51 518.468 278.637 518.934 278.947 519.086C276.419 524.644 273.894 530.195 271.369 535.763ZM283.03 510.086C282.719 509.951 281.741 509.439 281.484 509.379C276.686 507.113 272.198 504.752 267.616 502.08C270.716 496.817 273.81 491.55 276.915 486.281C280.993 488.662 284.965 490.752 289.243 492.771C289.404 492.891 290.355 493.28 290.609 493.392C288.09 498.964 285.558 504.528 283.03 510.086ZM248.324 586.455C247.857 586.238 246.373 585.487 245.992 585.382C238.738 581.963 231.987 578.41 225.059 574.366C228.153 569.1 231.264 563.834 234.358 558.567C240.771 562.323 247.034 565.621 253.753 568.785C254.013 568.978 255.509 569.586 255.913 569.775C253.374 575.335 250.842 580.9 248.324 586.455ZM329.951 580.289C322.107 579.516 314.309 578.328 306.593 576.736C307.83 570.751 309.067 564.766 310.314 558.778C317.4 560.253 324.556 561.344 331.749 562.051C331.161 568.136 330.557 574.204 329.951 580.289ZM332.719 552.226C325.877 551.555 319.054 550.514 312.304 549.118C313.551 543.13 314.791 537.155 316.028 531.17C322.136 532.425 328.313 533.375 334.524 533.992C333.922 540.07 333.323 546.158 332.719 552.226ZM335.501 524.171C336.089 518.085 336.697 512.011 337.298 505.933C332.072 505.417 326.89 504.626 321.742 503.562C320.509 509.541 319.271 515.526 318.028 521.507C323.799 522.7 329.637 523.596 335.501 524.171ZM327.246 607.645C327.848 601.567 328.453 595.482 329.051 589.411C320.883 588.602 312.762 587.36 304.735 585.695C303.495 591.67 302.254 597.661 301.014 603.636C309.68 605.449 318.437 606.784 327.246 607.645ZM532.564 260.673C533.679 262.722 534.763 264.78 535.824 266.86C538.086 271.347 540.135 275.773 542.089 280.41C536.457 282.771 530.825 285.132 525.183 287.495C523.399 283.283 521.532 279.245 519.473 275.157C518.514 273.252 517.53 271.375 516.503 269.51C521.844 266.566 527.202 263.623 532.564 260.673ZM490.497 207.29C495.942 212.264 501.12 217.516 506.001 223.038C501.431 227.081 496.857 231.131 492.279 235.187C487.828 230.16 483.102 225.364 478.134 220.834C482.253 216.318 486.382 211.8 490.497 207.29ZM452.471 248.935C456.44 252.562 460.226 256.4 463.793 260.431C459.219 264.48 454.645 268.53 450.078 272.583C446.937 269.038 443.601 265.662 440.106 262.469C444.231 257.957 448.352 253.451 452.471 248.935ZM528.533 165.643C535.441 171.956 542.012 178.622 548.207 185.619C543.642 189.683 539.068 193.732 534.494 197.782C528.723 191.26 522.598 185.045 516.168 179.176C520.296 174.674 524.408 170.155 528.533 165.643ZM433.641 170.276C440.42 173.261 447.047 176.601 453.478 180.279C450.438 185.576 447.406 190.888 444.366 196.185C438.501 192.826 432.461 189.771 426.272 187.065C428.734 181.469 431.179 175.872 433.641 170.276ZM410.981 221.923C415.923 224.096 420.749 226.529 425.436 229.217C422.402 234.518 419.361 239.815 416.321 245.113C412.2 242.76 407.953 240.609 403.606 238.709C406.068 233.113 408.523 227.513 410.981 221.923ZM444.967 144.458C452.669 147.836 460.191 151.63 467.498 155.814C464.463 161.115 461.419 166.419 458.389 171.713C451.652 167.859 444.713 164.356 437.602 161.241C440.06 155.652 442.505 150.055 444.967 144.458ZM456.293 118.641C464.921 122.42 473.338 126.67 481.513 131.355C478.476 136.645 475.438 141.953 472.404 147.254C464.799 142.899 456.961 138.947 448.935 135.428C451.39 129.828 453.846 124.228 456.293 118.641ZM368.212 153.606C375.567 154.246 382.882 155.261 390.122 156.666C388.946 162.669 387.78 168.668 386.618 174.661C380.015 173.377 373.354 172.439 366.646 171.871C367.166 165.781 367.692 159.695 368.212 153.606ZM363.399 209.795C368.742 210.246 374.064 210.994 379.328 212.027C378.155 218.022 376.986 224.011 375.827 230.015C371.207 229.107 366.528 228.455 361.827 228.057C362.343 221.973 362.866 215.877 363.399 209.795ZM370.625 125.515C378.977 126.236 387.277 127.396 395.511 128.994C394.338 134.99 393.166 140.986 391.997 146.975C384.418 145.498 376.753 144.431 369.056 143.77C369.576 137.68 370.099 131.601 370.625 125.515ZM373.025 97.4165C372.505 103.506 371.989 109.59 371.459 115.682C380.165 116.431 388.827 117.64 397.399 119.31C398.571 113.315 399.731 107.311 400.903 101.315C391.687 99.5208 382.373 98.2176 373.025 97.4165ZM299.224 159.159C306.473 157.334 313.822 155.903 321.222 154.873C322.069 160.921 322.917 166.97 323.761 173.025C317.007 173.96 310.307 175.262 303.702 176.937C302.203 171.007 300.717 165.085 299.224 159.159ZM306.097 186.504C307.583 192.426 309.076 198.352 310.568 204.278C316.195 202.86 321.91 201.749 327.66 200.959C326.812 194.911 325.969 188.856 325.125 182.801C318.718 183.688 312.364 184.926 306.097 186.504ZM312.977 213.853C318.262 212.521 323.616 211.484 329.021 210.725C329.869 216.773 330.708 222.835 331.553 228.873C326.812 229.538 322.104 230.453 317.452 231.621C315.952 225.708 314.463 219.775 312.977 213.853ZM292.348 131.803C293.83 137.732 295.323 143.658 296.815 149.584C304.416 147.671 312.105 146.171 319.858 145.097C319.021 139.045 318.177 132.99 317.333 126.935C308.92 128.114 300.575 129.739 292.348 131.803ZM285.471 104.465C294.68 102.154 304.02 100.335 313.423 99.0204C314.264 105.065 315.111 111.113 315.959 117.162C307.203 118.382 298.507 120.079 289.946 122.233C288.449 116.313 286.964 110.391 285.471 104.465ZM237.309 186.092C243.519 182.103 249.568 178.622 256.151 175.256C256.209 175.201 256.559 175.04 256.668 174.988C259.416 180.455 262.168 185.914 264.91 191.36C264.821 191.406 264.509 191.579 264.44 191.592C258.439 194.668 252.934 197.835 247.263 201.473C243.936 196.352 240.622 191.222 237.309 186.092ZM252.623 209.764C255.943 214.898 259.26 220.021 262.573 225.151C267.394 222.066 272.093 219.361 277.188 216.752C277.251 216.736 277.513 216.587 277.598 216.547C274.843 211.094 272.091 205.634 269.353 200.182C269.257 200.225 268.964 200.365 268.903 200.409C263.211 203.318 258.004 206.322 252.623 209.764ZM267.939 233.446C272.472 230.539 276.859 228.008 281.659 225.556C281.695 225.524 281.967 225.406 282.034 225.366C284.782 230.832 287.531 236.282 290.276 241.738C290.216 241.765 289.999 241.896 289.947 241.91C285.737 244.058 281.894 246.275 277.903 248.824C274.573 243.693 271.252 238.576 267.939 233.446ZM221.989 162.417C225.302 167.547 228.622 172.681 231.939 177.804C238.462 173.625 244.788 169.985 251.676 166.459C251.76 166.436 252.115 166.235 252.224 166.183C249.475 160.734 246.72 155.281 243.979 149.818C243.859 149.872 243.457 150.047 243.392 150.115C235.916 153.939 229.068 157.887 221.989 162.417ZM206.669 138.742C214.573 133.671 222.277 129.237 230.629 124.965C230.722 124.895 231.16 124.688 231.301 124.628C234.053 130.088 236.787 135.546 239.543 140.999C239.426 141.064 239.025 141.284 238.92 141.312C231.134 145.292 223.994 149.407 216.622 154.139C213.313 149.003 209.989 143.875 206.669 138.742ZM187.113 231.688C189.112 229.174 191.141 226.731 193.252 224.299C196.01 221.146 198.8 218.134 201.734 215.135C206.09 219.408 210.452 223.686 214.811 227.97C212.14 230.697 209.591 233.459 207.073 236.335C205.157 238.552 203.295 240.783 201.473 243.08C196.695 239.279 191.906 235.48 187.113 231.688ZM209.212 249.21C210.943 247.037 212.699 244.93 214.519 242.818C216.909 240.087 219.315 237.482 221.854 234.891C226.205 239.171 230.574 243.452 234.937 247.729C232.654 250.061 230.486 252.407 228.347 254.857C226.703 256.755 225.126 258.645 223.578 260.607C218.789 256.808 214 253.009 209.212 249.21ZM231.303 266.728C232.772 264.889 234.254 263.103 235.797 261.333C237.808 259.029 239.836 256.833 241.983 254.644C246.339 258.917 250.704 263.205 255.068 267.465C253.182 269.399 251.389 271.342 249.611 273.365C248.263 274.92 246.954 276.498 245.667 278.115C240.885 274.319 236.096 270.521 231.303 266.728ZM165.028 214.173C167.301 211.323 169.597 208.556 171.988 205.792C175.114 202.214 178.283 198.776 181.607 195.392C185.963 199.666 190.321 203.95 194.683 208.227C191.614 211.369 188.699 214.52 185.819 217.825C183.605 220.373 181.487 222.924 179.385 225.555C174.599 221.767 169.81 217.968 165.028 214.173ZM142.926 196.657C145.46 193.463 148.042 190.367 150.713 187.286C154.222 183.276 157.757 179.449 161.469 175.652C165.838 179.934 170.194 184.207 174.552 188.491C171.092 192.035 167.793 195.592 164.541 199.326C162.054 202.195 159.655 205.079 157.286 208.05C152.501 204.245 147.718 200.45 142.926 196.657ZM154.111 291.16C156.612 284.164 159.481 277.283 162.722 270.581C168.221 273.243 173.723 275.898 179.225 278.553C176.283 284.659 173.654 290.928 171.377 297.32C165.627 295.264 159.868 293.221 154.111 291.16ZM180.674 300.628C182.834 294.575 185.317 288.637 188.109 282.852C193.615 285.501 199.117 288.156 204.615 290.818C202.109 296.017 199.879 301.349 197.934 306.784C192.19 304.731 186.439 302.675 180.674 300.628ZM207.241 310.089C209.059 304.996 211.15 299.982 213.51 295.113C219.016 297.762 224.508 300.42 230.016 303.079C227.942 307.361 226.101 311.76 224.501 316.245C218.757 314.193 212.985 312.142 207.241 310.089ZM127.557 281.707C130.394 273.747 133.662 265.929 137.338 258.321C142.837 260.983 148.332 263.634 153.841 266.293C150.454 273.308 147.436 280.51 144.825 287.849C139.06 285.802 133.305 283.753 127.557 281.707ZM100.994 272.239C104.17 263.325 107.822 254.581 111.937 246.06C117.446 248.719 122.938 251.377 128.444 254.025C124.618 261.954 121.214 270.099 118.264 278.392C112.493 276.341 106.745 274.296 100.994 272.239ZM142.146 357.671C142.254 350.212 142.759 342.77 143.667 335.366C149.736 336.104 155.799 336.856 161.869 337.594C161.045 344.348 160.579 351.14 160.479 357.941C154.364 357.849 148.262 357.763 142.146 357.671ZM170.337 358.073C170.432 351.632 170.87 345.195 171.648 338.795C177.718 339.533 183.781 340.284 189.85 341.022C189.138 346.771 188.754 352.55 188.67 358.344C182.551 358.258 176.452 358.166 170.337 358.073ZM198.531 358.487C198.616 353.057 198.984 347.613 199.647 342.224C205.713 342.969 211.776 343.72 217.845 344.458C217.258 349.21 216.945 353.978 216.87 358.761C210.755 358.668 204.642 358.586 198.531 358.487ZM113.955 357.268C120.054 357.36 126.169 357.452 132.271 357.537C132.391 349.723 132.921 341.916 133.87 334.164C127.8 333.426 121.738 332.675 115.685 331.938C114.652 340.339 114.073 348.798 113.955 357.268ZM85.7578 356.861C85.8911 347.384 86.5351 337.911 87.6963 328.506C93.7491 329.243 99.8218 329.991 105.881 330.732C104.804 339.487 104.202 348.305 104.078 357.124C97.9754 357.039 91.8666 356.95 85.7578 356.861ZM152.491 425.891C150.197 418.874 148.263 411.721 146.719 404.492C152.693 403.222 158.667 401.952 164.642 400.682C166.047 407.264 167.803 413.775 169.911 420.181C164.101 422.085 158.302 423.986 152.491 425.891ZM179.29 417.102C185.089 415.2 190.896 413.303 196.703 411.388C194.918 405.938 193.422 400.4 192.229 394.797C186.255 396.067 180.277 397.344 174.302 398.614C175.628 404.859 177.294 411.036 179.29 417.102ZM206.084 408.32C204.408 403.216 203.003 398.012 201.885 392.753C207.859 391.483 213.837 390.206 219.816 388.929C220.797 393.552 222.028 398.125 223.504 402.61C217.69 404.521 211.877 406.414 206.084 408.32ZM125.697 434.672C131.503 432.775 137.303 430.874 143.113 428.969C140.698 421.609 138.686 414.119 137.076 406.544C131.102 407.814 125.124 409.091 119.145 410.368C120.898 418.583 123.079 426.7 125.697 434.672ZM98.895 443.468C95.9747 434.534 93.5229 425.447 91.5551 416.242C97.5294 414.972 103.508 413.695 109.482 412.425C111.307 420.991 113.587 429.44 116.311 437.764C110.509 439.655 104.716 441.561 98.895 443.468ZM183.766 485.813C179.314 479.884 175.181 473.724 171.38 467.358C176.626 464.226 181.878 461.099 187.114 457.97C190.575 463.778 194.356 469.399 198.414 474.8C193.527 478.474 188.653 482.139 183.766 485.813ZM206.315 468.861C202.459 463.737 198.887 458.413 195.596 452.907C200.849 449.779 206.088 446.644 211.33 443.519C214.284 448.46 217.499 453.241 220.946 457.847C216.065 461.525 211.199 465.194 206.315 468.861ZM228.839 451.922C233.727 448.248 238.608 444.57 243.492 440.903C240.63 437.103 237.993 433.159 235.56 429.076C230.303 432.21 225.061 435.335 219.826 438.464C222.578 443.111 225.594 447.592 228.839 451.922ZM161.227 502.761C166.115 499.087 170.996 495.409 175.879 491.742C171.214 485.539 166.877 479.076 162.894 472.411C157.642 475.538 152.4 478.663 147.154 481.794C151.473 489.025 156.175 496.035 161.227 502.761ZM138.699 519.707C133.027 512.172 127.767 504.336 122.941 496.239C128.198 493.104 133.44 489.98 138.696 486.845C143.185 494.378 148.076 501.674 153.351 508.687C148.46 512.368 143.58 516.029 138.699 519.707ZM232.719 532.627C226.641 528.473 220.783 523.986 215.178 519.212C219.143 514.564 223.113 509.908 227.078 505.26C232.186 509.623 237.53 513.716 243.08 517.513C239.616 522.548 236.162 527.597 232.719 532.627ZM248.641 509.366C243.388 505.759 238.315 501.885 233.475 497.747C237.447 493.102 241.406 488.449 245.371 483.801C249.729 487.519 254.283 491.006 259.01 494.238C255.555 499.288 252.105 504.331 248.641 509.366ZM264.59 486.103C260.15 483.063 255.872 479.788 251.782 476.295C255.753 471.651 259.708 467.005 263.674 462.356C267.282 465.429 271.046 468.31 274.952 470.989C271.485 476.014 268.041 481.06 264.59 486.103ZM216.782 555.897C209.889 551.166 203.237 546.079 196.875 540.657C200.847 536.012 204.806 531.36 208.775 526.705C214.644 531.71 220.778 536.409 227.134 540.769C223.684 545.812 220.233 550.855 216.782 555.897ZM200.847 579.151C193.133 573.866 185.691 568.173 178.576 562.112C182.548 557.467 186.506 552.815 190.472 548.166C197.09 553.817 204.018 559.116 211.202 564.032C207.751 569.075 204.29 574.121 200.847 579.151ZM480.72 258.148C484.384 262.791 487.798 267.625 490.946 272.643C485.765 275.891 480.598 279.147 475.417 282.396C472.622 277.945 469.585 273.637 466.321 269.508C471.133 265.72 475.924 261.937 480.72 258.148ZM546.571 206.195C552.091 213.182 557.23 220.462 561.959 227.992C556.795 231.241 551.621 234.494 546.443 237.753C542.057 230.775 537.299 224.015 532.193 217.55C536.988 213.76 541.78 209.978 546.571 206.195ZM456.144 198.027C461.913 201.782 467.474 205.85 472.821 210.183C468.963 214.921 465.109 219.668 461.255 224.399C456.416 220.457 451.359 216.786 446.142 213.376C449.477 208.257 452.802 203.142 456.144 198.027ZM440.743 221.642C445.683 224.857 450.447 228.332 455.011 232.045C451.153 236.782 447.303 241.523 443.445 246.261C439.364 242.95 435.133 239.853 430.741 236.991C434.076 231.872 437.41 226.771 440.743 221.642ZM486.549 151.364C493.959 156.181 501.117 161.418 507.973 166.994C504.111 171.738 500.258 176.469 496.4 181.206C490.042 176.024 483.412 171.188 476.538 166.716C479.873 161.597 483.208 156.479 486.549 151.364ZM398.217 172.573C403.35 173.893 408.248 175.359 413.266 177.063C413.895 177.152 416.895 178.354 417.71 178.657C415.584 184.376 413.45 190.108 411.333 195.842C409.988 195.339 408.651 194.868 407.311 194.403C402.761 192.855 398.341 191.54 393.687 190.338C395.199 184.414 396.706 178.497 398.217 172.573ZM391.255 199.893C389.751 205.821 388.237 211.735 386.732 217.663C390.626 218.665 394.335 219.772 398.139 221.067C399.275 221.457 400.389 221.853 401.52 222.268C403.64 216.545 405.764 210.815 407.898 205.083C407.2 204.821 404.645 203.797 404.1 203.73C399.809 202.269 395.638 201.027 391.255 199.893ZM411.97 118.611C418.581 120.325 424.891 122.209 431.357 124.404C433.282 125.065 435.186 125.748 437.081 126.445C434.951 132.171 432.83 137.911 430.708 143.623C428.947 142.969 427.177 142.345 425.403 141.727C419.415 139.684 413.566 137.951 407.437 136.366C408.951 130.452 410.463 124.528 411.97 118.611ZM332.259 139.123C332.759 139.085 334.459 139.032 334.808 138.933C342.169 138.446 349.188 138.291 356.562 138.483C356.392 144.581 356.22 150.695 356.057 156.796C349.276 156.646 342.845 156.777 336.077 157.218C335.77 157.183 334.165 157.361 333.731 157.393C333.232 151.307 332.751 145.222 332.259 139.123ZM334.512 167.23C335.007 173.322 335.496 179.411 335.991 185.504C336.366 185.482 337.751 185.318 338.013 185.354C343.848 184.967 349.421 184.852 355.28 184.991C355.444 178.89 355.615 172.776 355.779 166.675C349.332 166.515 343.188 166.653 336.751 167.073C336.451 167.148 334.957 167.195 334.512 167.23ZM336.786 195.331C337.161 195.309 338.443 195.263 338.705 195.193C344.22 194.824 349.474 194.711 355 194.844C354.836 200.945 354.665 207.059 354.501 213.16C349.567 213.042 344.89 213.152 339.977 213.471C339.743 213.433 338.579 213.565 338.269 213.598C337.766 207.519 337.281 201.424 336.786 195.331ZM330.05 111.722C330.549 117.808 331.033 123.903 331.522 129.992C332.017 129.96 333.82 129.746 334.164 129.794C341.841 129.294 349.129 129.145 356.807 129.318C356.971 123.217 357.143 117.103 357.313 111.006C349.051 110.805 341.161 110.969 332.908 111.516C332.515 111.616 330.598 111.676 330.05 111.722ZM261.488 156.781C268.643 153.665 275.97 150.939 283.425 148.606C285.256 154.435 287.087 160.265 288.915 166.084C282.083 168.229 275.362 170.73 268.795 173.593C266.353 167.995 263.922 162.393 261.488 156.781ZM272.723 182.649C275.161 188.255 277.596 193.85 280.023 199.458C285.685 197 291.462 194.847 297.35 193.005C295.523 187.169 293.692 181.339 291.857 175.516C285.37 177.551 278.966 179.934 272.723 182.649ZM283.961 208.511C289.296 206.19 294.757 204.156 300.304 202.417C302.135 208.247 303.959 214.073 305.786 219.909C300.855 221.455 296 223.265 291.268 225.323C288.834 219.711 286.399 214.116 283.961 208.511ZM250.533 131.577C252.97 137.183 255.405 142.778 257.833 148.386C265.294 145.137 272.93 142.29 280.682 139.854C278.854 134.035 277.027 128.199 275.2 122.362C266.829 124.998 258.582 128.076 250.533 131.577ZM200.57 196.194C206.413 190.88 212.532 185.884 218.913 181.216C222.516 186.151 226.126 191.072 229.729 196.007C223.883 200.286 218.267 204.883 212.9 209.756C208.792 205.237 204.691 200.721 200.57 196.194ZM219.54 217.054C224.653 212.423 229.994 208.039 235.561 203.97C239.167 208.898 242.777 213.837 246.383 218.765C241.337 222.453 236.497 226.412 231.872 230.626C227.768 226.1 223.661 221.581 219.54 217.054ZM238.522 237.921C242.886 233.945 247.455 230.21 252.215 226.727C255.825 231.649 259.435 236.587 263.048 241.519C258.812 244.615 254.734 247.944 250.852 251.483C246.738 246.96 242.63 242.441 238.522 237.921ZM182.087 175.854C186.195 180.374 190.309 184.897 194.417 189.416C200.493 183.882 206.864 178.679 213.503 173.824C209.897 168.896 206.29 163.968 202.677 159.036C195.522 164.264 188.645 169.883 182.087 175.854ZM155.599 252.946C159.439 246.051 163.633 239.352 168.183 232.911C173.181 236.424 178.175 239.943 183.173 243.457C179.001 249.382 175.144 255.525 171.624 261.853C166.271 258.878 160.942 255.907 155.599 252.946ZM180.242 266.643C183.59 260.614 187.268 254.765 191.237 249.129C196.228 252.655 201.223 256.158 206.213 259.684C202.628 264.791 199.303 270.092 196.26 275.547C190.92 272.579 185.584 269.622 180.242 266.643ZM204.891 280.344C207.762 275.188 210.894 270.191 214.291 265.364C219.289 268.877 224.293 272.394 229.277 275.917C226.263 280.204 223.461 284.658 220.909 289.248C215.57 286.28 210.224 283.308 204.891 280.344ZM131.567 239.584C135.873 231.835 140.6 224.321 145.695 217.073C150.693 220.586 155.687 224.106 160.679 227.615C155.948 234.34 151.572 241.306 147.589 248.481C142.252 245.523 136.913 242.556 131.567 239.584ZM131.229 321.026C132.626 313.357 134.42 305.749 136.614 298.275C142.481 299.992 148.344 301.716 154.207 303.439C152.184 310.296 150.538 317.265 149.269 324.3C143.261 323.209 137.24 322.111 131.229 321.026ZM158.981 326.063C160.189 319.363 161.766 312.743 163.676 306.219C169.54 307.943 175.41 309.653 181.267 311.373C179.531 317.273 178.114 323.278 177.024 329.331C171.002 328.249 164.995 327.158 158.981 326.063ZM186.719 331.092C192.726 332.183 198.747 333.282 204.755 334.373C205.674 329.291 206.87 324.264 208.316 319.31C202.453 317.586 196.597 315.866 190.726 314.156C189.098 319.73 187.761 325.383 186.719 331.092ZM104.19 316.118C105.753 307.502 107.786 298.945 110.238 290.533C116.102 292.257 121.965 293.98 127.828 295.704C125.537 303.484 123.663 311.399 122.219 319.395C116.205 318.3 110.198 317.209 104.19 316.118ZM130.265 394.781C129.332 388.559 128.671 382.557 128.215 376.274C128.089 374.364 127.977 372.461 127.894 370.539C133.994 370.26 140.097 369.992 146.202 369.734C146.271 371.498 146.376 373.246 146.5 375.006C146.925 380.775 147.524 386.274 148.381 392C142.344 392.934 136.305 393.858 130.265 394.781ZM158.136 390.518C164.172 389.601 170.215 388.671 176.248 387.744C175.512 382.803 174.978 378.049 174.622 373.062C174.522 371.537 174.437 370.03 174.368 368.497C168.255 368.767 162.156 369.029 156.06 369.301C156.1 370.226 156.157 373.679 156.337 374.331C156.738 379.821 157.324 385.082 158.136 390.518ZM186.018 386.252C185.317 381.588 184.812 377.089 184.481 372.382C184.323 371.813 184.267 368.864 184.243 368.064C190.342 367.803 196.442 367.524 202.551 367.26C202.604 368.545 202.678 369.825 202.763 371.103C203.07 375.301 203.515 379.306 204.136 383.465C198.09 384.402 192.046 385.332 186.018 386.252ZM103.09 398.942C109.12 398.004 115.169 397.095 121.208 396.172C120.239 389.691 119.547 383.449 119.068 376.915C118.931 374.918 118.816 372.943 118.734 370.942C112.628 371.217 106.529 371.478 100.426 371.746C100.526 373.899 100.641 376.042 100.79 378.188C101.294 385.213 102.041 391.972 103.09 398.942ZM152.696 463.5C152.481 463.093 151.862 461.745 151.645 461.479C148.447 455.107 145.654 448.908 143.035 442.27C148.714 440.042 154.403 437.812 160.089 435.571C162.491 441.651 165.043 447.349 167.985 453.184C168.058 453.456 168.762 454.701 168.941 455.034C163.537 457.872 158.112 460.687 152.696 463.5ZM177.71 450.499C183.127 447.67 188.553 444.854 193.968 442.042C193.815 441.741 193.216 440.68 193.141 440.442C190.621 435.408 188.425 430.533 186.35 425.279C180.661 427.509 174.978 429.743 169.292 431.984C171.582 437.77 174.014 443.186 176.808 448.741C176.986 448.968 177.523 450.135 177.71 450.499ZM202.732 437.486C202.565 437.177 202.107 436.179 201.952 435.975C199.572 431.233 197.497 426.606 195.534 421.664C201.223 419.433 206.906 417.199 212.601 414.973C214.333 419.366 216.18 423.455 218.299 427.683C218.352 427.882 218.861 428.777 218.993 429.021C213.567 431.854 208.145 434.663 202.732 437.486ZM128.3 476.195C133.717 473.365 139.139 470.556 144.558 467.737C144.352 467.344 143.568 465.946 143.471 465.624C140.139 458.981 137.245 452.528 134.497 445.622C128.815 447.856 123.132 450.09 117.443 452.321C120.405 459.775 123.532 466.742 127.134 473.913C127.373 474.219 128.064 475.731 128.3 476.195ZM196.368 521.68C190.68 516.24 185.272 510.483 180.177 504.475C184.84 500.53 189.511 496.589 194.175 492.644C198.847 498.161 203.807 503.438 209.035 508.436C204.81 512.846 200.591 517.26 196.368 521.68ZM215.859 501.301C210.874 496.541 206.155 491.519 201.704 486.262C206.372 482.311 211.042 478.37 215.706 474.425C219.731 479.179 224.011 483.736 228.516 488.043C224.293 492.463 220.075 496.877 215.859 501.301Z" stroke="black" stroke-width="2" mask="url(#path-1-inside-1_2_22)"/>
</g>
<path d="M580.972 391.565V624.399H543.454L433.745 465.804H431.812V624.399H389.634V391.565H427.379L536.974 550.274H539.021V391.565H580.972Z" fill="url(#paint1_linear_2_22)"/>
<path d="M681.408 624.399H602.509V391.565H683C706.117 391.565 725.974 396.226 742.573 405.549C759.247 414.795 772.056 428.097 780.999 445.453C789.943 462.81 794.415 483.577 794.415 507.755C794.415 532.008 789.905 552.851 780.886 570.283C771.942 587.716 759.02 601.093 742.118 610.415C725.292 619.738 705.056 624.399 681.408 624.399ZM644.687 587.905H679.362C695.582 587.905 709.11 584.949 719.949 579.037C730.787 573.05 738.935 564.144 744.392 552.321C749.849 540.421 752.577 525.566 752.577 507.755C752.577 489.944 749.849 475.164 744.392 463.416C738.935 451.593 730.863 442.763 720.176 436.927C709.565 431.015 696.377 428.059 680.613 428.059H644.687V587.905Z" fill="url(#paint2_linear_2_22)"/>
<path fill-rule="evenodd" clip-rule="evenodd" d="M725.137 270.326H749.255C750.735 270.326 751.941 271.532 751.941 273.01V302.399C751.941 303.879 753.145 305.083 754.625 305.083H784.012C785.491 305.083 786.696 306.289 786.696 307.769V331.891C786.696 333.37 785.491 334.575 784.012 334.575H754.625C753.145 334.575 751.941 335.781 751.941 337.261V366.646C751.941 368.126 750.733 369.33 749.255 369.33H725.137C723.657 369.33 722.451 368.126 722.451 366.646V337.261C722.451 335.781 721.247 334.575 719.767 334.575H690.38C688.9 334.575 687.696 333.37 687.696 331.891V307.769C687.696 306.289 688.9 305.083 690.38 305.083H719.767C721.247 305.083 722.451 303.879 722.451 302.399V273.01C722.451 271.532 723.657 270.326 725.137 270.326Z" fill="url(#paint3_linear_2_22)"/>
</g>
</g>
<defs>
<filter id="filter0_d_2_22" x="-4" y="0" width="834.543" height="709.399" filterUnits="userSpaceOnUse" color-interpolation-filters="sRGB">
<feFlood flood-opacity="0" result="BackgroundImageFix"/>
<feColorMatrix in="SourceAlpha" type="matrix" values="0 0 0 0 0 0 0 0 0 0 0 0 0 0 0 0 0 0 127 0" result="hardAlpha"/>
<feOffset dy="4"/>
<feGaussianBlur stdDeviation="2"/>
<feComposite in2="hardAlpha" operator="out"/>
<feColorMatrix type="matrix" values="0 0 0 0 0 0 0 0 0 0 0 0 0 0 0 0 0 0 0.25 0"/>
<feBlend mode="normal" in2="BackgroundImageFix" result="effect1_dropShadow_2_22"/>
<feBlend mode="normal" in="SourceGraphic" in2="effect1_dropShadow_2_22" result="shape"/>
</filter>
<filter id="filter1_d_2_22" x="81.7578" y="97.4165" width="716.657" height="534.983" filterUnits="userSpaceOnUse" color-interpolation-filters="sRGB">
<feFlood flood-opacity="0" result="BackgroundImageFix"/>
<feColorMatrix in="SourceAlpha" type="matrix" values="0 0 0 0 0 0 0 0 0 0 0 0 0 0 0 0 0 0 127 0" result="hardAlpha"/>
<feOffset dy="4"/>
<feGaussianBlur stdDeviation="2"/>
<feComposite in2="hardAlpha" operator="out"/>
<feColorMatrix type="matrix" values="0 0 0 0 0 0 0 0 0 0 0 0 0 0 0 0 0 0 0.25 0"/>
<feBlend mode="normal" in2="BackgroundImageFix" result="effect1_dropShadow_2_22"/>
<feBlend mode="normal" in="SourceGraphic" in2="effect1_dropShadow_2_22" result="shape"/>
</filter>
<filter id="filter2_d_2_22" x="81.7578" y="97.4165" width="498.757" height="533.901" filterUnits="userSpaceOnUse" color-interpolation-filters="sRGB">
<feFlood flood-opacity="0" result="BackgroundImageFix"/>
<feColorMatrix in="SourceAlpha" type="matrix" values="0 0 0 0 0 0 0 0 0 0 0 0 0 0 0 0 0 0 127 0" result="hardAlpha"/>
<feOffset dy="4"/>
<feGaussianBlur stdDeviation="2"/>
<feComposite in2="hardAlpha" operator="out"/>
<feColorMatrix type="matrix" values="0 0 0 0 0 0 0 0 0 0 0 0 0 0 0 0 0 0 0.25 0"/>
<feBlend mode="normal" in2="BackgroundImageFix" result="effect1_dropShadow_2_22"/>
<feBlend mode="normal" in="SourceGraphic" in2="effect1_dropShadow_2_22" result="shape"/>
</filter>
<linearGradient id="paint0_linear_2_22" x1="376" y1="217.711" x2="239.476" y2="454.177" gradientUnits="userSpaceOnUse">
<stop stop-color="#579EF9"/>
<stop offset="1" stop-color="#024BAA"/>
</linearGradient>
<linearGradient id="paint1_linear_2_22" x1="485.669" y1="314.399" x2="485.669" y2="701.399" gradientUnits="userSpaceOnUse">
<stop stop-color="#579EF9"/>
<stop offset="1" stop-color="#024BAA"/>
</linearGradient>
<linearGradient id="paint2_linear_2_22" x1="695.544" y1="314.399" x2="695.544" y2="701.399" gradientUnits="userSpaceOnUse">
<stop stop-color="#579EF9"/>
<stop offset="1" stop-color="#024BAA"/>
</linearGradient>
<linearGradient id="paint3_linear_2_22" x1="759.5" y1="301.5" x2="716" y2="354" gradientUnits="userSpaceOnUse">
<stop stop-color="#9CC4F7"/>
<stop offset="1" stop-color="#1662C4"/>
</linearGradient>
</defs>
</svg>
