<svg width="822" height="702" viewBox="0 0 822 702" fill="none" xmlns="http://www.w3.org/2000/svg">
<g filter="url(#filter0_d_0_3)">
<g filter="url(#filter1_d_0_3)">
<mask id="path-1-inside-1_0_3" fill="white">
<path fill-rule="evenodd" clip-rule="evenodd" d="M245.41 480.919C241.159 476.847 237.11 472.547 233.306 468.053C237.97 464.108 242.637 460.157 247.301 456.212C250.689 460.218 254.286 464.045 258.081 467.668C253.858 472.088 249.639 476.502 245.41 480.919ZM567.529 320.466C568.255 323.449 568.818 326.469 569.218 329.511C566.073 329.922 562.917 330.337 559.776 330.741C559.421 328.035 558.92 325.351 558.284 322.686C561.364 321.945 564.443 321.204 567.529 320.466ZM584.087 268.902C585.148 273.324 585.991 277.805 586.583 282.336C581.917 282.948 577.248 283.549 572.578 284.167C572.048 280.14 571.313 276.163 570.363 272.22C574.929 271.109 579.508 270.005 584.087 268.902ZM525.921 308.11C526.989 312.536 527.817 317.027 528.413 321.551C523.747 322.163 519.078 322.764 514.412 323.375C513.878 319.355 513.14 315.367 512.197 311.429C516.759 310.324 521.342 309.214 525.921 308.11ZM187.43 541.543C181.041 535.433 174.968 528.975 169.252 522.219C173.91 518.271 178.584 514.323 183.248 510.378C188.547 516.646 194.182 522.622 200.096 528.299C195.88 532.723 191.659 537.126 187.43 541.543ZM307.982 559.821C300.813 557.909 293.757 555.603 286.839 552.935C289.04 547.241 291.244 541.54 293.441 535.836C299.752 538.268 306.187 540.366 312.717 542.112C311.145 548.019 309.556 553.925 307.982 559.821ZM315.274 532.585C309.088 530.931 302.984 528.936 297.008 526.626C299.209 520.932 301.406 515.228 303.611 509.527C308.986 511.606 314.462 513.388 320.02 514.874C318.431 520.78 316.853 526.682 315.274 532.585ZM322.563 505.356C317.342 503.959 312.197 502.279 307.153 500.33C309.353 494.636 311.555 488.925 313.759 483.224C318.189 484.934 322.713 486.406 327.296 487.637C325.724 493.544 324.139 499.443 322.563 505.356ZM300.702 587.064C292.565 584.885 284.539 582.284 276.687 579.244C278.888 573.55 281.085 567.846 283.289 562.145C290.532 564.939 297.924 567.351 305.434 569.362C303.855 575.265 302.277 581.168 300.702 587.064ZM293.405 614.306C284.296 611.866 275.333 608.945 266.535 605.554C268.729 599.856 270.933 594.155 273.137 588.454C281.325 591.617 289.673 594.333 298.151 596.595C296.566 602.494 294.984 608.403 293.405 614.306ZM375.393 566.49C368.039 566.964 360.659 567.043 353.304 566.738C353.561 560.629 353.811 554.534 354.064 548.431C360.778 548.711 367.514 548.632 374.22 548.208C374.602 554.297 374.997 560.393 375.393 566.49ZM373.591 538.352C373.195 532.256 372.8 526.159 372.415 520.059C366.697 520.426 360.96 520.49 355.237 520.252C354.984 526.355 354.727 532.464 354.47 538.573C360.839 538.838 367.225 538.769 373.591 538.352ZM371.778 510.217C366.408 510.563 361.024 510.628 355.65 510.398C355.901 504.285 356.15 498.189 356.414 492.084C361.134 492.281 365.88 492.22 370.609 491.928C370.998 498.021 371.393 504.117 371.778 510.217ZM377.191 594.635C376.799 588.531 376.404 582.435 376.015 576.342C368.318 576.83 360.598 576.915 352.891 576.593C352.634 582.702 352.381 588.804 352.128 594.907C360.484 595.268 368.846 595.173 377.191 594.635ZM378.993 622.773C369.657 623.375 360.299 623.479 350.948 623.082C351.211 616.977 351.46 610.881 351.714 604.778C360.412 605.143 369.129 605.032 377.817 604.48C378.212 610.577 378.604 616.68 378.993 622.773ZM269.767 561.426C269.346 561.236 268.032 560.557 267.695 560.468C261.241 557.44 255.235 554.265 249.069 550.678C252.163 545.411 255.273 540.146 258.367 534.879C264.002 538.177 269.544 541.085 275.45 543.867C275.669 544.038 276.985 544.576 277.349 544.742C274.817 550.306 272.291 555.875 269.767 561.426ZM281.437 535.763C281.073 535.597 279.922 535.003 279.628 534.931C274.003 532.275 268.747 529.515 263.38 526.381C266.473 521.114 269.581 515.855 272.678 510.582C277.555 513.433 282.278 515.921 287.383 518.33C287.577 518.468 288.705 518.934 289.015 519.086C286.487 524.644 283.962 530.195 281.437 535.763ZM293.097 510.086C292.787 509.951 291.809 509.439 291.552 509.379C286.754 507.113 282.266 504.752 277.684 502.08C280.784 496.817 283.878 491.55 286.982 486.281C291.061 488.662 295.033 490.752 299.311 492.771C299.472 492.891 300.423 493.28 300.677 493.392C298.158 498.964 295.626 504.528 293.097 510.086ZM258.392 586.455C257.925 586.238 256.44 585.487 256.059 585.382C248.806 581.963 242.055 578.41 235.127 574.366C238.221 569.1 241.332 563.834 244.425 558.567C250.839 562.323 257.101 565.621 263.821 568.785C264.081 568.978 265.577 569.586 265.98 569.775C263.442 575.335 260.91 580.9 258.392 586.455ZM340.019 580.289C332.175 579.516 324.377 578.328 316.66 576.736C317.898 570.751 319.135 564.766 320.382 558.778C327.467 560.253 334.624 561.344 341.817 562.051C341.229 568.136 340.624 574.204 340.019 580.289ZM342.787 552.226C335.945 551.555 329.122 550.514 322.371 549.118C323.619 543.13 324.859 537.155 326.096 531.17C332.203 532.425 338.38 533.375 344.591 533.992C343.99 540.07 343.391 546.158 342.787 552.226ZM345.568 524.171C346.157 518.085 346.765 512.011 347.366 505.933C342.14 505.417 336.958 504.626 331.81 503.562C330.576 509.541 329.339 515.526 328.096 521.507C333.867 522.7 339.705 523.596 345.568 524.171ZM337.314 607.645C337.916 601.567 338.521 595.482 339.118 589.411C330.951 588.602 322.83 587.36 314.803 585.695C313.563 591.67 312.322 597.661 311.082 603.636C319.748 605.449 328.505 606.784 337.314 607.645ZM542.632 260.673C543.747 262.722 544.831 264.78 545.892 266.86C548.154 271.347 550.202 275.773 552.157 280.41C546.525 282.771 540.893 285.132 535.251 287.495C533.467 283.283 531.6 279.245 529.541 275.157C528.582 273.252 527.598 271.375 526.571 269.51C531.912 266.566 537.27 263.623 542.632 260.673ZM500.565 207.29C506.01 212.264 511.188 217.516 516.069 223.038C511.499 227.081 506.925 231.131 502.347 235.187C497.896 230.16 493.17 225.364 488.202 220.834C492.321 216.318 496.45 211.8 500.565 207.29ZM462.539 248.935C466.508 252.562 470.293 256.4 473.861 260.431C469.287 264.48 464.713 268.53 460.146 272.583C457.005 269.038 453.669 265.662 450.174 262.469C454.299 257.957 458.42 253.451 462.539 248.935ZM538.601 165.643C545.509 171.956 552.08 178.622 558.275 185.619C553.71 189.683 549.136 193.732 544.562 197.782C538.791 191.26 532.666 185.045 526.235 179.176C530.363 174.674 534.475 170.155 538.601 165.643ZM443.709 170.276C450.488 173.261 457.114 176.601 463.546 180.279C460.505 185.576 457.474 190.888 454.433 196.185C448.569 192.826 442.529 189.771 436.34 187.065C438.802 181.469 441.247 175.872 443.709 170.276ZM421.049 221.923C425.99 224.096 430.817 226.529 435.504 229.217C432.47 234.518 429.429 239.815 426.389 245.113C422.267 242.76 418.021 240.609 413.674 238.709C416.136 233.113 418.591 227.513 421.049 221.923ZM455.035 144.458C462.737 147.836 470.259 151.63 477.565 155.814C474.531 161.115 471.487 166.419 468.456 171.713C461.72 167.859 454.78 164.356 447.67 161.241C450.128 155.652 452.573 150.055 455.035 144.458ZM466.361 118.641C474.988 122.42 483.406 126.67 491.581 131.355C488.544 136.645 485.506 141.953 482.472 147.254C474.867 142.899 467.028 138.947 459.003 135.428C461.458 129.828 463.914 124.228 466.361 118.641ZM378.28 153.606C385.635 154.246 392.95 155.261 400.19 156.666C399.014 162.669 397.848 168.668 396.686 174.661C390.083 173.377 383.422 172.439 376.714 171.871C377.234 165.781 377.76 159.695 378.28 153.606ZM373.467 209.795C378.81 210.246 384.132 210.994 389.395 212.027C388.223 218.022 387.054 224.011 385.895 230.015C381.275 229.107 376.596 228.455 371.894 228.057C372.41 221.973 372.934 215.877 373.467 209.795ZM380.693 125.515C389.044 126.236 397.345 127.396 405.579 128.994C404.406 134.99 403.234 140.986 402.065 146.975C394.486 145.498 386.821 144.431 379.124 143.77C379.644 137.68 380.167 131.601 380.693 125.515ZM383.093 97.4165C382.573 103.506 382.057 109.59 381.527 115.682C390.233 116.431 398.895 117.64 407.467 119.31C408.639 113.315 409.798 107.311 410.971 101.315C401.755 99.5208 392.441 98.2176 383.093 97.4165ZM309.292 159.159C316.541 157.334 323.89 155.903 331.29 154.873C332.137 160.921 332.985 166.97 333.828 173.025C327.075 173.96 320.375 175.262 313.77 176.937C312.27 171.007 310.784 165.085 309.292 159.159ZM316.165 186.504C317.651 192.426 319.144 198.352 320.636 204.278C326.263 202.86 331.977 201.749 337.727 200.959C336.88 194.911 336.036 188.856 335.193 182.801C328.785 183.688 322.432 184.926 316.165 186.504ZM323.045 213.853C328.33 212.521 333.684 211.484 339.089 210.725C339.937 216.773 340.776 222.835 341.621 228.873C336.88 229.538 332.171 230.453 327.52 231.621C326.02 225.708 324.531 219.775 323.045 213.853ZM302.416 131.803C303.898 137.732 305.391 143.658 306.883 149.584C314.484 147.671 322.173 146.171 329.925 145.097C329.088 139.045 328.245 132.99 327.401 126.935C318.987 128.114 310.643 129.739 302.416 131.803ZM295.539 104.465C304.747 102.154 314.088 100.335 323.491 99.0204C324.331 105.065 325.179 111.113 326.026 117.162C317.271 118.382 308.575 120.079 300.014 122.233C298.517 116.313 297.031 110.391 295.539 104.465ZM247.377 186.092C253.587 182.103 259.635 178.622 266.219 175.256C266.277 175.201 266.626 175.04 266.736 174.988C269.484 180.455 272.235 185.914 274.978 191.36C274.889 191.406 274.577 191.579 274.508 191.592C268.507 194.668 263.002 197.835 257.331 201.473C254.004 196.352 250.69 191.222 247.377 186.092ZM262.69 209.764C266.01 214.898 269.327 220.021 272.641 225.151C277.462 222.066 282.161 219.361 287.256 216.752C287.318 216.736 287.581 216.587 287.666 216.547C284.91 211.094 282.159 205.634 279.42 200.182C279.325 200.225 279.032 200.365 278.971 200.409C273.279 203.318 268.072 206.322 262.69 209.764ZM278.007 233.446C282.54 230.539 286.927 228.008 291.727 225.556C291.763 225.524 292.034 225.406 292.102 225.366C294.85 230.832 297.599 236.282 300.344 241.738C300.284 241.765 300.067 241.896 300.014 241.91C295.805 244.058 291.961 246.275 287.971 248.824C284.641 243.693 281.32 238.576 278.007 233.446ZM232.057 162.417C235.37 167.547 238.69 172.681 242.007 177.804C248.53 173.625 254.856 169.985 261.744 166.459C261.828 166.436 262.183 166.235 262.292 166.183C259.543 160.734 256.788 155.281 254.047 149.818C253.927 149.872 253.525 150.047 253.459 150.115C245.984 153.939 239.136 157.887 232.057 162.417ZM216.737 138.742C224.64 133.671 232.344 129.237 240.697 124.965C240.79 124.895 241.228 124.688 241.369 124.628C244.12 130.088 246.855 135.546 249.61 140.999C249.493 141.064 249.093 141.284 248.988 141.312C241.202 145.292 234.062 149.407 226.69 154.139C223.381 149.003 220.057 143.875 216.737 138.742ZM197.181 231.688C199.18 229.174 201.209 226.731 203.32 224.299C206.078 221.146 208.868 218.134 211.802 215.135C216.158 219.408 220.52 223.686 224.878 227.97C222.208 230.697 219.659 233.459 217.141 236.335C215.225 238.552 213.362 240.783 211.541 243.08C206.762 239.279 201.973 235.48 197.181 231.688ZM219.279 249.21C221.011 247.037 222.766 244.93 224.587 242.818C226.977 240.087 229.383 237.482 231.921 234.891C236.273 239.171 240.642 243.452 245.005 247.729C242.721 250.061 240.554 252.407 238.414 254.857C236.771 256.755 235.193 258.645 233.646 260.607C228.857 256.808 224.068 253.009 219.279 249.21ZM241.371 266.728C242.839 264.889 244.322 263.103 245.865 261.333C247.875 259.029 249.904 256.833 252.051 254.644C256.407 258.917 260.772 263.205 265.135 267.465C263.25 269.399 261.456 271.342 259.679 273.365C258.33 274.92 257.022 276.498 255.735 278.115C250.953 274.319 246.164 270.521 241.371 266.728ZM175.096 214.173C177.369 211.323 179.664 208.556 182.056 205.792C185.182 202.214 188.351 198.776 191.675 195.392C196.03 199.666 200.389 203.95 204.751 208.227C201.682 211.369 198.767 214.52 195.887 217.825C193.673 220.373 191.555 222.924 189.453 225.555C184.667 221.767 179.878 217.968 175.096 214.173ZM152.993 196.657C155.527 193.463 158.11 190.367 160.781 187.286C164.29 183.276 167.825 179.449 171.537 175.652C175.906 179.934 180.262 184.207 184.62 188.491C181.16 192.035 177.86 195.592 174.608 199.326C172.121 202.195 169.723 205.079 167.353 208.05C162.568 204.245 157.786 200.45 152.993 196.657ZM164.179 291.16C166.68 284.164 169.549 277.283 172.79 270.581C178.288 273.243 183.791 275.898 189.293 278.553C186.351 284.659 183.722 290.928 181.445 297.32C175.694 295.264 169.936 293.221 164.179 291.16ZM190.742 300.628C192.902 294.575 195.385 288.637 198.177 282.852C203.683 285.501 209.185 288.156 214.683 290.818C212.177 296.017 209.946 301.349 208.002 306.784C202.258 304.731 196.507 302.675 190.742 300.628ZM217.309 310.089C219.127 304.996 221.218 299.982 223.578 295.113C229.084 297.762 234.575 300.42 240.084 303.079C238.01 307.361 236.168 311.76 234.569 316.245C228.825 314.193 223.053 312.142 217.309 310.089ZM137.625 281.707C140.462 273.747 143.729 265.929 147.406 258.321C152.904 260.983 158.4 263.634 163.909 266.293C160.522 273.308 157.504 280.51 154.892 287.849C149.128 285.802 143.373 283.753 137.625 281.707ZM111.062 272.239C114.237 263.325 117.89 254.581 122.005 246.06C127.514 248.719 133.006 251.377 138.512 254.025C134.685 261.954 131.282 270.099 128.332 278.392C122.561 276.341 116.813 274.296 111.062 272.239ZM152.214 357.671C152.322 350.212 152.827 342.77 153.734 335.366C159.804 336.104 165.867 336.856 171.936 337.594C171.113 344.348 170.647 351.14 170.547 357.941C164.432 357.849 158.329 357.763 152.214 357.671ZM180.405 358.073C180.5 351.632 180.938 345.195 181.716 338.795C187.786 339.533 193.848 340.284 199.918 341.022C199.206 346.771 198.822 352.55 198.738 358.344C192.619 358.258 186.52 358.166 180.405 358.073ZM208.598 358.487C208.684 353.057 209.052 347.613 209.715 342.224C215.781 342.969 221.843 343.72 227.913 344.458C227.326 349.21 227.013 353.978 226.938 358.761C220.823 358.668 214.71 358.586 208.598 358.487ZM124.023 357.268C130.121 357.36 136.237 357.452 142.339 357.537C142.458 349.723 142.989 341.916 143.937 334.164C137.868 333.426 131.805 332.675 125.753 331.938C124.72 340.339 124.14 348.798 124.023 357.268ZM95.8256 356.861C95.9589 347.384 96.603 337.911 97.7641 328.506C103.817 329.243 109.89 329.991 115.949 330.732C114.871 339.487 114.27 348.305 114.145 357.124C108.043 357.039 101.934 356.95 95.8256 356.861ZM162.559 425.891C160.265 418.874 158.331 411.721 156.786 404.492C162.761 403.222 168.735 401.952 174.71 400.682C176.115 407.264 177.871 413.775 179.979 420.181C174.169 422.085 168.369 423.986 162.559 425.891ZM189.357 417.102C195.157 415.2 200.963 413.303 206.771 411.388C204.985 405.938 203.49 400.4 202.297 394.797C196.323 396.067 190.344 397.344 184.37 398.614C185.696 404.859 187.362 411.036 189.357 417.102ZM216.152 408.32C214.476 403.216 213.071 398.012 211.953 392.753C217.927 391.483 223.905 390.206 229.883 388.929C230.864 393.552 232.095 398.125 233.572 402.61C227.758 404.521 221.945 406.414 216.152 408.32ZM135.765 434.672C141.571 432.775 147.371 430.874 153.181 428.969C150.766 421.609 148.754 414.119 147.144 406.544C141.17 407.814 135.191 409.091 129.213 410.368C130.966 418.583 133.147 426.7 135.765 434.672ZM108.963 443.468C106.042 434.534 103.591 425.447 101.623 416.242C107.597 414.972 113.575 413.695 119.55 412.425C121.374 420.991 123.655 429.44 126.379 437.764C120.576 439.655 114.783 441.561 108.963 443.468ZM193.833 485.813C189.382 479.884 185.249 473.724 181.448 467.358C186.693 464.226 191.946 461.099 197.182 457.97C200.643 463.778 204.424 469.399 208.482 474.8C203.594 478.474 198.721 482.139 193.833 485.813ZM216.383 468.861C212.527 463.737 208.955 458.413 205.664 452.907C210.917 449.779 216.156 446.644 221.398 443.519C224.352 448.46 227.566 453.241 231.014 457.847C226.133 461.525 221.266 465.194 216.383 468.861ZM238.907 451.922C243.795 448.248 248.676 444.57 253.559 440.903C250.698 437.103 248.061 433.159 245.628 429.076C240.371 432.21 235.129 435.335 229.894 438.464C232.646 443.111 235.662 447.592 238.907 451.922ZM171.295 502.761C176.182 499.087 181.063 495.409 185.947 491.742C181.282 485.539 176.945 479.076 172.962 472.411C167.71 475.538 162.468 478.663 157.222 481.794C161.54 489.025 166.243 496.035 171.295 502.761ZM148.767 519.707C143.095 512.172 137.835 504.336 133.009 496.239C138.265 493.104 143.508 489.98 148.764 486.845C153.253 494.378 158.144 501.674 163.419 508.687C158.528 512.368 153.648 516.029 148.767 519.707ZM242.786 532.627C236.709 528.473 230.851 523.986 225.246 519.212C229.211 514.564 233.18 509.908 237.146 505.26C242.254 509.623 247.598 513.716 253.148 517.513C249.684 522.548 246.229 527.597 242.786 532.627ZM258.709 509.366C253.456 505.759 248.383 501.885 243.543 497.747C247.515 493.102 251.474 488.449 255.439 483.801C259.797 487.519 264.351 491.006 269.078 494.238C265.623 499.288 262.173 504.331 258.709 509.366ZM274.658 486.103C270.218 483.063 265.94 479.788 261.849 476.295C265.821 471.651 269.776 467.005 273.742 462.356C277.35 465.429 281.113 468.31 285.02 470.989C281.553 476.014 278.109 481.06 274.658 486.103ZM226.85 555.897C219.957 551.166 213.304 546.079 206.943 540.657C210.915 536.012 214.874 531.36 218.843 526.705C224.712 531.71 230.845 536.409 237.202 540.769C233.751 545.812 230.301 550.855 226.85 555.897ZM210.915 579.151C203.201 573.866 195.759 568.173 188.643 562.112C192.615 557.467 196.574 552.815 200.54 548.166C207.158 553.817 214.086 559.116 221.27 564.032C217.819 569.075 214.358 574.121 210.915 579.151ZM490.787 258.148C494.452 262.791 497.865 267.625 501.014 272.643C495.833 275.891 490.665 279.147 485.484 282.396C482.689 277.945 479.653 273.637 476.389 269.508C481.201 265.72 485.992 261.937 490.787 258.148ZM556.639 206.195C562.158 213.182 567.297 220.462 572.027 227.992C566.863 231.241 561.689 234.494 556.51 237.753C552.125 230.775 547.366 224.015 542.261 217.55C547.056 213.76 551.847 209.978 556.639 206.195ZM466.212 198.027C471.981 201.782 477.542 205.85 482.888 210.183C479.031 214.921 475.176 219.668 471.323 224.399C466.484 220.457 461.427 216.786 456.21 213.376C459.545 208.257 462.87 203.142 466.212 198.027ZM450.81 221.642C455.751 224.857 460.515 228.332 465.079 232.045C461.221 236.782 457.37 241.523 453.513 246.261C449.432 242.95 445.201 239.853 440.809 236.991C444.144 231.872 447.478 226.771 450.81 221.642ZM496.617 151.364C504.027 156.181 511.184 161.418 518.041 166.994C514.179 171.738 510.326 176.469 506.468 181.206C500.109 176.024 493.48 171.188 486.605 166.716C489.94 161.597 493.275 156.479 496.617 151.364ZM408.285 172.573C413.418 173.893 418.316 175.359 423.334 177.063C423.963 177.152 426.963 178.354 427.778 178.657C425.652 184.376 423.518 190.108 421.401 195.842C420.056 195.339 418.719 194.868 417.379 194.403C412.829 192.855 408.408 191.54 403.755 190.338C405.266 184.414 406.774 178.497 408.285 172.573ZM401.323 199.893C399.819 205.821 398.305 211.735 396.8 217.663C400.694 218.665 404.403 219.772 408.207 221.067C409.342 221.457 410.457 221.853 411.588 222.268C413.708 216.545 415.831 210.815 417.965 205.083C417.268 204.821 414.713 203.797 414.168 203.73C409.877 202.269 405.706 201.027 401.323 199.893ZM422.038 118.611C428.649 120.325 434.959 122.209 441.425 124.404C443.35 125.065 445.253 125.748 447.149 126.445C445.019 132.171 442.898 137.911 440.775 143.623C439.014 142.969 437.245 142.345 435.471 141.727C429.483 139.684 423.634 137.951 417.505 136.366C419.019 130.452 420.53 124.528 422.038 118.611ZM342.327 139.123C342.827 139.085 344.527 139.032 344.876 138.933C352.237 138.446 359.255 138.291 366.63 138.483C366.46 144.581 366.288 150.695 366.124 156.796C359.344 156.646 352.913 156.777 346.145 157.218C345.838 157.183 344.233 157.361 343.799 157.393C343.3 151.307 342.818 145.222 342.327 139.123ZM344.58 167.23C345.075 173.322 345.564 179.411 346.059 185.504C346.434 185.482 347.819 185.318 348.081 185.354C353.916 184.967 359.489 184.852 365.348 184.991C365.511 178.89 365.683 172.776 365.847 166.675C359.399 166.515 353.256 166.653 346.819 167.073C346.519 167.148 345.025 167.195 344.58 167.23ZM346.854 195.331C347.229 195.309 348.511 195.263 348.773 195.193C354.288 194.824 359.541 194.711 365.068 194.844C364.904 200.945 364.733 207.059 364.569 213.16C359.635 213.042 354.957 213.152 350.045 213.471C349.811 213.433 348.647 213.565 348.336 213.598C347.834 207.519 347.349 201.424 346.854 195.331ZM340.118 111.722C340.616 117.808 341.101 123.903 341.589 129.992C342.085 129.96 343.888 129.746 344.231 129.794C351.908 129.294 359.197 129.145 366.875 129.318C367.039 123.217 367.211 117.103 367.381 111.006C359.119 110.805 351.229 110.969 342.976 111.516C342.583 111.616 340.666 111.676 340.118 111.722ZM271.556 156.781C278.711 153.665 286.038 150.939 293.493 148.606C295.324 154.435 297.155 160.265 298.983 166.084C292.15 168.229 285.43 170.73 278.863 173.593C276.421 167.995 273.99 162.393 271.556 156.781ZM282.791 182.649C285.228 188.255 287.663 193.85 290.091 199.458C295.752 197 301.529 194.847 307.418 193.005C305.591 187.169 303.76 181.339 301.925 175.516C295.438 177.551 289.034 179.934 282.791 182.649ZM294.029 208.511C299.364 206.19 304.825 204.156 310.371 202.417C312.202 208.247 314.027 214.073 315.854 219.909C310.923 221.455 306.068 223.265 301.336 225.323C298.902 219.711 296.467 214.116 294.029 208.511ZM260.601 131.577C263.038 137.183 265.473 142.778 267.901 148.386C275.362 145.137 282.998 142.29 290.75 139.854C288.922 134.035 287.095 128.199 285.268 122.362C276.897 124.998 268.65 128.076 260.601 131.577ZM210.638 196.194C216.481 190.88 222.6 185.884 228.981 181.216C232.584 186.151 236.194 191.072 239.797 196.007C233.951 200.286 228.335 204.883 222.968 209.756C218.86 205.237 214.759 200.721 210.638 196.194ZM229.607 217.054C234.72 212.423 240.062 208.039 245.628 203.97C249.235 208.898 252.844 213.837 256.451 218.765C251.405 222.453 246.565 226.412 241.94 230.626C237.836 226.1 233.728 221.581 229.607 217.054ZM248.59 237.921C252.954 233.945 257.523 230.21 262.283 226.727C265.893 231.649 269.502 236.587 273.116 241.519C268.88 244.615 264.802 247.944 260.92 251.483C256.806 246.96 252.698 242.441 248.59 237.921ZM192.155 175.854C196.263 180.374 200.377 184.897 204.485 189.416C210.561 183.882 216.932 178.679 223.571 173.824C219.964 168.896 216.358 163.968 212.745 159.036C205.59 164.264 198.713 169.883 192.155 175.854ZM165.667 252.946C169.506 246.051 173.701 239.352 178.251 232.911C183.249 236.424 188.243 239.943 193.241 243.457C189.069 249.382 185.212 255.525 181.691 261.853C176.339 258.878 171.01 255.907 165.667 252.946ZM190.309 266.643C193.658 260.614 197.335 254.765 201.305 249.129C206.295 252.655 211.291 256.158 216.281 259.684C212.696 264.791 209.371 270.092 206.327 275.547C200.988 272.579 195.652 269.622 190.309 266.643ZM214.959 280.344C217.83 275.188 220.962 270.191 224.359 265.364C229.357 268.877 234.361 272.394 239.345 275.917C236.331 280.204 233.529 284.658 230.977 289.248C225.637 286.28 220.291 283.308 214.959 280.344ZM141.635 239.584C145.941 231.835 150.668 224.321 155.763 217.073C160.761 220.586 165.755 224.106 170.747 227.615C166.015 234.34 161.64 241.306 157.657 248.481C152.32 245.523 146.981 242.556 141.635 239.584ZM141.297 321.026C142.693 313.357 144.487 305.749 146.681 298.275C152.548 299.992 158.412 301.716 164.275 303.439C162.252 310.296 160.606 317.265 159.337 324.3C153.329 323.209 147.308 322.111 141.297 321.026ZM169.048 326.063C170.256 319.363 171.833 312.743 173.744 306.219C179.607 307.943 185.478 309.653 191.335 311.373C189.599 317.273 188.182 323.278 187.092 329.331C181.07 328.249 175.063 327.158 169.048 326.063ZM196.787 331.092C202.794 332.183 208.815 333.282 214.823 334.373C215.741 329.291 216.938 324.264 218.384 319.31C212.521 317.586 206.664 315.866 200.793 314.156C199.166 319.73 197.829 325.383 196.787 331.092ZM114.258 316.118C115.821 307.502 117.854 298.945 120.306 290.533C126.169 292.257 132.033 293.98 137.896 295.704C135.605 303.484 133.731 311.399 132.287 319.395C126.273 318.3 120.265 317.209 114.258 316.118ZM140.333 394.781C139.4 388.559 138.739 382.557 138.282 376.274C138.157 374.364 138.045 372.461 137.962 370.539C144.062 370.26 150.164 369.992 156.27 369.734C156.339 371.498 156.443 373.246 156.567 375.006C156.993 380.775 157.592 386.274 158.448 392C152.412 392.934 146.373 393.858 140.333 394.781ZM168.204 390.518C174.24 389.601 180.283 388.671 186.315 387.744C185.58 382.803 185.046 378.049 184.69 373.062C184.589 371.537 184.505 370.03 184.436 368.497C178.323 368.767 172.224 369.029 166.127 369.301C166.168 370.226 166.225 373.679 166.405 374.331C166.806 379.821 167.392 385.082 168.204 390.518ZM196.085 386.252C195.385 381.588 194.88 377.089 194.548 372.382C194.39 371.813 194.334 368.864 194.31 368.064C200.409 367.803 206.509 367.524 212.619 367.26C212.672 368.545 212.746 369.825 212.83 371.103C213.137 375.301 213.583 379.306 214.204 383.465C208.157 384.402 202.114 385.332 196.085 386.252ZM113.158 398.942C119.188 398.004 125.236 397.095 131.276 396.172C130.307 389.691 129.615 383.449 129.136 376.915C128.999 374.918 128.884 372.943 128.802 370.942C122.695 371.217 116.596 371.478 110.494 371.746C110.594 373.899 110.709 376.042 110.858 378.188C111.362 385.213 112.109 391.972 113.158 398.942ZM162.764 463.5C162.548 463.093 161.93 461.745 161.712 461.479C158.515 455.107 155.722 448.908 153.103 442.27C158.781 440.042 164.47 437.812 170.157 435.571C172.559 441.651 175.111 447.349 178.053 453.184C178.126 453.456 178.83 454.701 179.008 455.034C173.605 457.872 168.179 460.687 162.764 463.5ZM187.778 450.499C193.194 447.67 198.62 444.854 204.036 442.042C203.882 441.741 203.284 440.68 203.209 440.442C200.689 435.408 198.492 430.533 196.418 425.279C190.729 427.509 185.046 429.743 179.36 431.984C181.65 437.77 184.081 443.186 186.875 448.741C187.054 448.968 187.591 450.135 187.778 450.499ZM212.8 437.486C212.633 437.177 212.175 436.179 212.019 435.975C209.64 431.233 207.565 426.606 205.602 421.664C211.291 419.433 216.973 417.199 222.669 414.973C224.401 419.366 226.247 423.455 228.367 427.683C228.42 427.882 228.929 428.777 229.061 429.021C223.634 431.854 218.212 434.663 212.8 437.486ZM138.368 476.195C143.785 473.365 149.207 470.556 154.626 467.737C154.42 467.344 153.636 465.946 153.539 465.624C150.207 458.981 147.312 452.528 144.565 445.622C138.883 447.856 133.2 450.09 127.511 452.321C130.472 459.775 133.6 466.742 137.202 473.913C137.441 474.219 138.132 475.731 138.368 476.195ZM206.436 521.68C200.748 516.24 195.339 510.483 190.244 504.475C194.908 500.53 199.579 496.589 204.242 492.644C208.914 498.161 213.875 503.438 219.103 508.436C214.878 512.846 210.659 517.26 206.436 521.68ZM225.927 501.301C220.942 496.541 216.223 491.519 211.772 486.262C216.439 482.311 221.11 478.37 225.774 474.425C229.799 479.179 234.079 483.736 238.584 488.043C234.361 492.463 230.143 496.877 225.927 501.301Z"/>
</mask>
<path fill-rule="evenodd" clip-rule="evenodd" d="M245.41 480.919C241.159 476.847 237.11 472.547 233.306 468.053C237.97 464.108 242.637 460.157 247.301 456.212C250.689 460.218 254.286 464.045 258.081 467.668C253.858 472.088 249.639 476.502 245.41 480.919ZM567.529 320.466C568.255 323.449 568.818 326.469 569.218 329.511C566.073 329.922 562.917 330.337 559.776 330.741C559.421 328.035 558.92 325.351 558.284 322.686C561.364 321.945 564.443 321.204 567.529 320.466ZM584.087 268.902C585.148 273.324 585.991 277.805 586.583 282.336C581.917 282.948 577.248 283.549 572.578 284.167C572.048 280.14 571.313 276.163 570.363 272.22C574.929 271.109 579.508 270.005 584.087 268.902ZM525.921 308.11C526.989 312.536 527.817 317.027 528.413 321.551C523.747 322.163 519.078 322.764 514.412 323.375C513.878 319.355 513.14 315.367 512.197 311.429C516.759 310.324 521.342 309.214 525.921 308.11ZM187.43 541.543C181.041 535.433 174.968 528.975 169.252 522.219C173.91 518.271 178.584 514.323 183.248 510.378C188.547 516.646 194.182 522.622 200.096 528.299C195.88 532.723 191.659 537.126 187.43 541.543ZM307.982 559.821C300.813 557.909 293.757 555.603 286.839 552.935C289.04 547.241 291.244 541.54 293.441 535.836C299.752 538.268 306.187 540.366 312.717 542.112C311.145 548.019 309.556 553.925 307.982 559.821ZM315.274 532.585C309.088 530.931 302.984 528.936 297.008 526.626C299.209 520.932 301.406 515.228 303.611 509.527C308.986 511.606 314.462 513.388 320.02 514.874C318.431 520.78 316.853 526.682 315.274 532.585ZM322.563 505.356C317.342 503.959 312.197 502.279 307.153 500.33C309.353 494.636 311.555 488.925 313.759 483.224C318.189 484.934 322.713 486.406 327.296 487.637C325.724 493.544 324.139 499.443 322.563 505.356ZM300.702 587.064C292.565 584.885 284.539 582.284 276.687 579.244C278.888 573.55 281.085 567.846 283.289 562.145C290.532 564.939 297.924 567.351 305.434 569.362C303.855 575.265 302.277 581.168 300.702 587.064ZM293.405 614.306C284.296 611.866 275.333 608.945 266.535 605.554C268.729 599.856 270.933 594.155 273.137 588.454C281.325 591.617 289.673 594.333 298.151 596.595C296.566 602.494 294.984 608.403 293.405 614.306ZM375.393 566.49C368.039 566.964 360.659 567.043 353.304 566.738C353.561 560.629 353.811 554.534 354.064 548.431C360.778 548.711 367.514 548.632 374.22 548.208C374.602 554.297 374.997 560.393 375.393 566.49ZM373.591 538.352C373.195 532.256 372.8 526.159 372.415 520.059C366.697 520.426 360.96 520.49 355.237 520.252C354.984 526.355 354.727 532.464 354.47 538.573C360.839 538.838 367.225 538.769 373.591 538.352ZM371.778 510.217C366.408 510.563 361.024 510.628 355.65 510.398C355.901 504.285 356.15 498.189 356.414 492.084C361.134 492.281 365.88 492.22 370.609 491.928C370.998 498.021 371.393 504.117 371.778 510.217ZM377.191 594.635C376.799 588.531 376.404 582.435 376.015 576.342C368.318 576.83 360.598 576.915 352.891 576.593C352.634 582.702 352.381 588.804 352.128 594.907C360.484 595.268 368.846 595.173 377.191 594.635ZM378.993 622.773C369.657 623.375 360.299 623.479 350.948 623.082C351.211 616.977 351.46 610.881 351.714 604.778C360.412 605.143 369.129 605.032 377.817 604.48C378.212 610.577 378.604 616.68 378.993 622.773ZM269.767 561.426C269.346 561.236 268.032 560.557 267.695 560.468C261.241 557.44 255.235 554.265 249.069 550.678C252.163 545.411 255.273 540.146 258.367 534.879C264.002 538.177 269.544 541.085 275.45 543.867C275.669 544.038 276.985 544.576 277.349 544.742C274.817 550.306 272.291 555.875 269.767 561.426ZM281.437 535.763C281.073 535.597 279.922 535.003 279.628 534.931C274.003 532.275 268.747 529.515 263.38 526.381C266.473 521.114 269.581 515.855 272.678 510.582C277.555 513.433 282.278 515.921 287.383 518.33C287.577 518.468 288.705 518.934 289.015 519.086C286.487 524.644 283.962 530.195 281.437 535.763ZM293.097 510.086C292.787 509.951 291.809 509.439 291.552 509.379C286.754 507.113 282.266 504.752 277.684 502.08C280.784 496.817 283.878 491.55 286.982 486.281C291.061 488.662 295.033 490.752 299.311 492.771C299.472 492.891 300.423 493.28 300.677 493.392C298.158 498.964 295.626 504.528 293.097 510.086ZM258.392 586.455C257.925 586.238 256.44 585.487 256.059 585.382C248.806 581.963 242.055 578.41 235.127 574.366C238.221 569.1 241.332 563.834 244.425 558.567C250.839 562.323 257.101 565.621 263.821 568.785C264.081 568.978 265.577 569.586 265.98 569.775C263.442 575.335 260.91 580.9 258.392 586.455ZM340.019 580.289C332.175 579.516 324.377 578.328 316.66 576.736C317.898 570.751 319.135 564.766 320.382 558.778C327.467 560.253 334.624 561.344 341.817 562.051C341.229 568.136 340.624 574.204 340.019 580.289ZM342.787 552.226C335.945 551.555 329.122 550.514 322.371 549.118C323.619 543.13 324.859 537.155 326.096 531.17C332.203 532.425 338.38 533.375 344.591 533.992C343.99 540.07 343.391 546.158 342.787 552.226ZM345.568 524.171C346.157 518.085 346.765 512.011 347.366 505.933C342.14 505.417 336.958 504.626 331.81 503.562C330.576 509.541 329.339 515.526 328.096 521.507C333.867 522.7 339.705 523.596 345.568 524.171ZM337.314 607.645C337.916 601.567 338.521 595.482 339.118 589.411C330.951 588.602 322.83 587.36 314.803 585.695C313.563 591.67 312.322 597.661 311.082 603.636C319.748 605.449 328.505 606.784 337.314 607.645ZM542.632 260.673C543.747 262.722 544.831 264.78 545.892 266.86C548.154 271.347 550.202 275.773 552.157 280.41C546.525 282.771 540.893 285.132 535.251 287.495C533.467 283.283 531.6 279.245 529.541 275.157C528.582 273.252 527.598 271.375 526.571 269.51C531.912 266.566 537.27 263.623 542.632 260.673ZM500.565 207.29C506.01 212.264 511.188 217.516 516.069 223.038C511.499 227.081 506.925 231.131 502.347 235.187C497.896 230.16 493.17 225.364 488.202 220.834C492.321 216.318 496.45 211.8 500.565 207.29ZM462.539 248.935C466.508 252.562 470.293 256.4 473.861 260.431C469.287 264.48 464.713 268.53 460.146 272.583C457.005 269.038 453.669 265.662 450.174 262.469C454.299 257.957 458.42 253.451 462.539 248.935ZM538.601 165.643C545.509 171.956 552.08 178.622 558.275 185.619C553.71 189.683 549.136 193.732 544.562 197.782C538.791 191.26 532.666 185.045 526.235 179.176C530.363 174.674 534.475 170.155 538.601 165.643ZM443.709 170.276C450.488 173.261 457.114 176.601 463.546 180.279C460.505 185.576 457.474 190.888 454.433 196.185C448.569 192.826 442.529 189.771 436.34 187.065C438.802 181.469 441.247 175.872 443.709 170.276ZM421.049 221.923C425.99 224.096 430.817 226.529 435.504 229.217C432.47 234.518 429.429 239.815 426.389 245.113C422.267 242.76 418.021 240.609 413.674 238.709C416.136 233.113 418.591 227.513 421.049 221.923ZM455.035 144.458C462.737 147.836 470.259 151.63 477.565 155.814C474.531 161.115 471.487 166.419 468.456 171.713C461.72 167.859 454.78 164.356 447.67 161.241C450.128 155.652 452.573 150.055 455.035 144.458ZM466.361 118.641C474.988 122.42 483.406 126.67 491.581 131.355C488.544 136.645 485.506 141.953 482.472 147.254C474.867 142.899 467.028 138.947 459.003 135.428C461.458 129.828 463.914 124.228 466.361 118.641ZM378.28 153.606C385.635 154.246 392.95 155.261 400.19 156.666C399.014 162.669 397.848 168.668 396.686 174.661C390.083 173.377 383.422 172.439 376.714 171.871C377.234 165.781 377.76 159.695 378.28 153.606ZM373.467 209.795C378.81 210.246 384.132 210.994 389.395 212.027C388.223 218.022 387.054 224.011 385.895 230.015C381.275 229.107 376.596 228.455 371.894 228.057C372.41 221.973 372.934 215.877 373.467 209.795ZM380.693 125.515C389.044 126.236 397.345 127.396 405.579 128.994C404.406 134.99 403.234 140.986 402.065 146.975C394.486 145.498 386.821 144.431 379.124 143.77C379.644 137.68 380.167 131.601 380.693 125.515ZM383.093 97.4165C382.573 103.506 382.057 109.59 381.527 115.682C390.233 116.431 398.895 117.64 407.467 119.31C408.639 113.315 409.798 107.311 410.971 101.315C401.755 99.5208 392.441 98.2176 383.093 97.4165ZM309.292 159.159C316.541 157.334 323.89 155.903 331.29 154.873C332.137 160.921 332.985 166.97 333.828 173.025C327.075 173.96 320.375 175.262 313.77 176.937C312.27 171.007 310.784 165.085 309.292 159.159ZM316.165 186.504C317.651 192.426 319.144 198.352 320.636 204.278C326.263 202.86 331.977 201.749 337.727 200.959C336.88 194.911 336.036 188.856 335.193 182.801C328.785 183.688 322.432 184.926 316.165 186.504ZM323.045 213.853C328.33 212.521 333.684 211.484 339.089 210.725C339.937 216.773 340.776 222.835 341.621 228.873C336.88 229.538 332.171 230.453 327.52 231.621C326.02 225.708 324.531 219.775 323.045 213.853ZM302.416 131.803C303.898 137.732 305.391 143.658 306.883 149.584C314.484 147.671 322.173 146.171 329.925 145.097C329.088 139.045 328.245 132.99 327.401 126.935C318.987 128.114 310.643 129.739 302.416 131.803ZM295.539 104.465C304.747 102.154 314.088 100.335 323.491 99.0204C324.331 105.065 325.179 111.113 326.026 117.162C317.271 118.382 308.575 120.079 300.014 122.233C298.517 116.313 297.031 110.391 295.539 104.465ZM247.377 186.092C253.587 182.103 259.635 178.622 266.219 175.256C266.277 175.201 266.626 175.04 266.736 174.988C269.484 180.455 272.235 185.914 274.978 191.36C274.889 191.406 274.577 191.579 274.508 191.592C268.507 194.668 263.002 197.835 257.331 201.473C254.004 196.352 250.69 191.222 247.377 186.092ZM262.69 209.764C266.01 214.898 269.327 220.021 272.641 225.151C277.462 222.066 282.161 219.361 287.256 216.752C287.318 216.736 287.581 216.587 287.666 216.547C284.91 211.094 282.159 205.634 279.42 200.182C279.325 200.225 279.032 200.365 278.971 200.409C273.279 203.318 268.072 206.322 262.69 209.764ZM278.007 233.446C282.54 230.539 286.927 228.008 291.727 225.556C291.763 225.524 292.034 225.406 292.102 225.366C294.85 230.832 297.599 236.282 300.344 241.738C300.284 241.765 300.067 241.896 300.014 241.91C295.805 244.058 291.961 246.275 287.971 248.824C284.641 243.693 281.32 238.576 278.007 233.446ZM232.057 162.417C235.37 167.547 238.69 172.681 242.007 177.804C248.53 173.625 254.856 169.985 261.744 166.459C261.828 166.436 262.183 166.235 262.292 166.183C259.543 160.734 256.788 155.281 254.047 149.818C253.927 149.872 253.525 150.047 253.459 150.115C245.984 153.939 239.136 157.887 232.057 162.417ZM216.737 138.742C224.64 133.671 232.344 129.237 240.697 124.965C240.79 124.895 241.228 124.688 241.369 124.628C244.12 130.088 246.855 135.546 249.61 140.999C249.493 141.064 249.093 141.284 248.988 141.312C241.202 145.292 234.062 149.407 226.69 154.139C223.381 149.003 220.057 143.875 216.737 138.742ZM197.181 231.688C199.18 229.174 201.209 226.731 203.32 224.299C206.078 221.146 208.868 218.134 211.802 215.135C216.158 219.408 220.52 223.686 224.878 227.97C222.208 230.697 219.659 233.459 217.141 236.335C215.225 238.552 213.362 240.783 211.541 243.08C206.762 239.279 201.973 235.48 197.181 231.688ZM219.279 249.21C221.011 247.037 222.766 244.93 224.587 242.818C226.977 240.087 229.383 237.482 231.921 234.891C236.273 239.171 240.642 243.452 245.005 247.729C242.721 250.061 240.554 252.407 238.414 254.857C236.771 256.755 235.193 258.645 233.646 260.607C228.857 256.808 224.068 253.009 219.279 249.21ZM241.371 266.728C242.839 264.889 244.322 263.103 245.865 261.333C247.875 259.029 249.904 256.833 252.051 254.644C256.407 258.917 260.772 263.205 265.135 267.465C263.25 269.399 261.456 271.342 259.679 273.365C258.33 274.92 257.022 276.498 255.735 278.115C250.953 274.319 246.164 270.521 241.371 266.728ZM175.096 214.173C177.369 211.323 179.664 208.556 182.056 205.792C185.182 202.214 188.351 198.776 191.675 195.392C196.03 199.666 200.389 203.95 204.751 208.227C201.682 211.369 198.767 214.52 195.887 217.825C193.673 220.373 191.555 222.924 189.453 225.555C184.667 221.767 179.878 217.968 175.096 214.173ZM152.993 196.657C155.527 193.463 158.11 190.367 160.781 187.286C164.29 183.276 167.825 179.449 171.537 175.652C175.906 179.934 180.262 184.207 184.62 188.491C181.16 192.035 177.86 195.592 174.608 199.326C172.121 202.195 169.723 205.079 167.353 208.05C162.568 204.245 157.786 200.45 152.993 196.657ZM164.179 291.16C166.68 284.164 169.549 277.283 172.79 270.581C178.288 273.243 183.791 275.898 189.293 278.553C186.351 284.659 183.722 290.928 181.445 297.32C175.694 295.264 169.936 293.221 164.179 291.16ZM190.742 300.628C192.902 294.575 195.385 288.637 198.177 282.852C203.683 285.501 209.185 288.156 214.683 290.818C212.177 296.017 209.946 301.349 208.002 306.784C202.258 304.731 196.507 302.675 190.742 300.628ZM217.309 310.089C219.127 304.996 221.218 299.982 223.578 295.113C229.084 297.762 234.575 300.42 240.084 303.079C238.01 307.361 236.168 311.76 234.569 316.245C228.825 314.193 223.053 312.142 217.309 310.089ZM137.625 281.707C140.462 273.747 143.729 265.929 147.406 258.321C152.904 260.983 158.4 263.634 163.909 266.293C160.522 273.308 157.504 280.51 154.892 287.849C149.128 285.802 143.373 283.753 137.625 281.707ZM111.062 272.239C114.237 263.325 117.89 254.581 122.005 246.06C127.514 248.719 133.006 251.377 138.512 254.025C134.685 261.954 131.282 270.099 128.332 278.392C122.561 276.341 116.813 274.296 111.062 272.239ZM152.214 357.671C152.322 350.212 152.827 342.77 153.734 335.366C159.804 336.104 165.867 336.856 171.936 337.594C171.113 344.348 170.647 351.14 170.547 357.941C164.432 357.849 158.329 357.763 152.214 357.671ZM180.405 358.073C180.5 351.632 180.938 345.195 181.716 338.795C187.786 339.533 193.848 340.284 199.918 341.022C199.206 346.771 198.822 352.55 198.738 358.344C192.619 358.258 186.52 358.166 180.405 358.073ZM208.598 358.487C208.684 353.057 209.052 347.613 209.715 342.224C215.781 342.969 221.843 343.72 227.913 344.458C227.326 349.21 227.013 353.978 226.938 358.761C220.823 358.668 214.71 358.586 208.598 358.487ZM124.023 357.268C130.121 357.36 136.237 357.452 142.339 357.537C142.458 349.723 142.989 341.916 143.937 334.164C137.868 333.426 131.805 332.675 125.753 331.938C124.72 340.339 124.14 348.798 124.023 357.268ZM95.8256 356.861C95.9589 347.384 96.603 337.911 97.7641 328.506C103.817 329.243 109.89 329.991 115.949 330.732C114.871 339.487 114.27 348.305 114.145 357.124C108.043 357.039 101.934 356.95 95.8256 356.861ZM162.559 425.891C160.265 418.874 158.331 411.721 156.786 404.492C162.761 403.222 168.735 401.952 174.71 400.682C176.115 407.264 177.871 413.775 179.979 420.181C174.169 422.085 168.369 423.986 162.559 425.891ZM189.357 417.102C195.157 415.2 200.963 413.303 206.771 411.388C204.985 405.938 203.49 400.4 202.297 394.797C196.323 396.067 190.344 397.344 184.37 398.614C185.696 404.859 187.362 411.036 189.357 417.102ZM216.152 408.32C214.476 403.216 213.071 398.012 211.953 392.753C217.927 391.483 223.905 390.206 229.883 388.929C230.864 393.552 232.095 398.125 233.572 402.61C227.758 404.521 221.945 406.414 216.152 408.32ZM135.765 434.672C141.571 432.775 147.371 430.874 153.181 428.969C150.766 421.609 148.754 414.119 147.144 406.544C141.17 407.814 135.191 409.091 129.213 410.368C130.966 418.583 133.147 426.7 135.765 434.672ZM108.963 443.468C106.042 434.534 103.591 425.447 101.623 416.242C107.597 414.972 113.575 413.695 119.55 412.425C121.374 420.991 123.655 429.44 126.379 437.764C120.576 439.655 114.783 441.561 108.963 443.468ZM193.833 485.813C189.382 479.884 185.249 473.724 181.448 467.358C186.693 464.226 191.946 461.099 197.182 457.97C200.643 463.778 204.424 469.399 208.482 474.8C203.594 478.474 198.721 482.139 193.833 485.813ZM216.383 468.861C212.527 463.737 208.955 458.413 205.664 452.907C210.917 449.779 216.156 446.644 221.398 443.519C224.352 448.46 227.566 453.241 231.014 457.847C226.133 461.525 221.266 465.194 216.383 468.861ZM238.907 451.922C243.795 448.248 248.676 444.57 253.559 440.903C250.698 437.103 248.061 433.159 245.628 429.076C240.371 432.21 235.129 435.335 229.894 438.464C232.646 443.111 235.662 447.592 238.907 451.922ZM171.295 502.761C176.182 499.087 181.063 495.409 185.947 491.742C181.282 485.539 176.945 479.076 172.962 472.411C167.71 475.538 162.468 478.663 157.222 481.794C161.54 489.025 166.243 496.035 171.295 502.761ZM148.767 519.707C143.095 512.172 137.835 504.336 133.009 496.239C138.265 493.104 143.508 489.98 148.764 486.845C153.253 494.378 158.144 501.674 163.419 508.687C158.528 512.368 153.648 516.029 148.767 519.707ZM242.786 532.627C236.709 528.473 230.851 523.986 225.246 519.212C229.211 514.564 233.18 509.908 237.146 505.26C242.254 509.623 247.598 513.716 253.148 517.513C249.684 522.548 246.229 527.597 242.786 532.627ZM258.709 509.366C253.456 505.759 248.383 501.885 243.543 497.747C247.515 493.102 251.474 488.449 255.439 483.801C259.797 487.519 264.351 491.006 269.078 494.238C265.623 499.288 262.173 504.331 258.709 509.366ZM274.658 486.103C270.218 483.063 265.94 479.788 261.849 476.295C265.821 471.651 269.776 467.005 273.742 462.356C277.35 465.429 281.113 468.31 285.02 470.989C281.553 476.014 278.109 481.06 274.658 486.103ZM226.85 555.897C219.957 551.166 213.304 546.079 206.943 540.657C210.915 536.012 214.874 531.36 218.843 526.705C224.712 531.71 230.845 536.409 237.202 540.769C233.751 545.812 230.301 550.855 226.85 555.897ZM210.915 579.151C203.201 573.866 195.759 568.173 188.643 562.112C192.615 557.467 196.574 552.815 200.54 548.166C207.158 553.817 214.086 559.116 221.27 564.032C217.819 569.075 214.358 574.121 210.915 579.151ZM490.787 258.148C494.452 262.791 497.865 267.625 501.014 272.643C495.833 275.891 490.665 279.147 485.484 282.396C482.689 277.945 479.653 273.637 476.389 269.508C481.201 265.72 485.992 261.937 490.787 258.148ZM556.639 206.195C562.158 213.182 567.297 220.462 572.027 227.992C566.863 231.241 561.689 234.494 556.51 237.753C552.125 230.775 547.366 224.015 542.261 217.55C547.056 213.76 551.847 209.978 556.639 206.195ZM466.212 198.027C471.981 201.782 477.542 205.85 482.888 210.183C479.031 214.921 475.176 219.668 471.323 224.399C466.484 220.457 461.427 216.786 456.21 213.376C459.545 208.257 462.87 203.142 466.212 198.027ZM450.81 221.642C455.751 224.857 460.515 228.332 465.079 232.045C461.221 236.782 457.37 241.523 453.513 246.261C449.432 242.95 445.201 239.853 440.809 236.991C444.144 231.872 447.478 226.771 450.81 221.642ZM496.617 151.364C504.027 156.181 511.184 161.418 518.041 166.994C514.179 171.738 510.326 176.469 506.468 181.206C500.109 176.024 493.48 171.188 486.605 166.716C489.94 161.597 493.275 156.479 496.617 151.364ZM408.285 172.573C413.418 173.893 418.316 175.359 423.334 177.063C423.963 177.152 426.963 178.354 427.778 178.657C425.652 184.376 423.518 190.108 421.401 195.842C420.056 195.339 418.719 194.868 417.379 194.403C412.829 192.855 408.408 191.54 403.755 190.338C405.266 184.414 406.774 178.497 408.285 172.573ZM401.323 199.893C399.819 205.821 398.305 211.735 396.8 217.663C400.694 218.665 404.403 219.772 408.207 221.067C409.342 221.457 410.457 221.853 411.588 222.268C413.708 216.545 415.831 210.815 417.965 205.083C417.268 204.821 414.713 203.797 414.168 203.73C409.877 202.269 405.706 201.027 401.323 199.893ZM422.038 118.611C428.649 120.325 434.959 122.209 441.425 124.404C443.35 125.065 445.253 125.748 447.149 126.445C445.019 132.171 442.898 137.911 440.775 143.623C439.014 142.969 437.245 142.345 435.471 141.727C429.483 139.684 423.634 137.951 417.505 136.366C419.019 130.452 420.53 124.528 422.038 118.611ZM342.327 139.123C342.827 139.085 344.527 139.032 344.876 138.933C352.237 138.446 359.255 138.291 366.63 138.483C366.46 144.581 366.288 150.695 366.124 156.796C359.344 156.646 352.913 156.777 346.145 157.218C345.838 157.183 344.233 157.361 343.799 157.393C343.3 151.307 342.818 145.222 342.327 139.123ZM344.58 167.23C345.075 173.322 345.564 179.411 346.059 185.504C346.434 185.482 347.819 185.318 348.081 185.354C353.916 184.967 359.489 184.852 365.348 184.991C365.511 178.89 365.683 172.776 365.847 166.675C359.399 166.515 353.256 166.653 346.819 167.073C346.519 167.148 345.025 167.195 344.58 167.23ZM346.854 195.331C347.229 195.309 348.511 195.263 348.773 195.193C354.288 194.824 359.541 194.711 365.068 194.844C364.904 200.945 364.733 207.059 364.569 213.16C359.635 213.042 354.957 213.152 350.045 213.471C349.811 213.433 348.647 213.565 348.336 213.598C347.834 207.519 347.349 201.424 346.854 195.331ZM340.118 111.722C340.616 117.808 341.101 123.903 341.589 129.992C342.085 129.96 343.888 129.746 344.231 129.794C351.908 129.294 359.197 129.145 366.875 129.318C367.039 123.217 367.211 117.103 367.381 111.006C359.119 110.805 351.229 110.969 342.976 111.516C342.583 111.616 340.666 111.676 340.118 111.722ZM271.556 156.781C278.711 153.665 286.038 150.939 293.493 148.606C295.324 154.435 297.155 160.265 298.983 166.084C292.15 168.229 285.43 170.73 278.863 173.593C276.421 167.995 273.99 162.393 271.556 156.781ZM282.791 182.649C285.228 188.255 287.663 193.85 290.091 199.458C295.752 197 301.529 194.847 307.418 193.005C305.591 187.169 303.76 181.339 301.925 175.516C295.438 177.551 289.034 179.934 282.791 182.649ZM294.029 208.511C299.364 206.19 304.825 204.156 310.371 202.417C312.202 208.247 314.027 214.073 315.854 219.909C310.923 221.455 306.068 223.265 301.336 225.323C298.902 219.711 296.467 214.116 294.029 208.511ZM260.601 131.577C263.038 137.183 265.473 142.778 267.901 148.386C275.362 145.137 282.998 142.29 290.75 139.854C288.922 134.035 287.095 128.199 285.268 122.362C276.897 124.998 268.65 128.076 260.601 131.577ZM210.638 196.194C216.481 190.88 222.6 185.884 228.981 181.216C232.584 186.151 236.194 191.072 239.797 196.007C233.951 200.286 228.335 204.883 222.968 209.756C218.86 205.237 214.759 200.721 210.638 196.194ZM229.607 217.054C234.72 212.423 240.062 208.039 245.628 203.97C249.235 208.898 252.844 213.837 256.451 218.765C251.405 222.453 246.565 226.412 241.94 230.626C237.836 226.1 233.728 221.581 229.607 217.054ZM248.59 237.921C252.954 233.945 257.523 230.21 262.283 226.727C265.893 231.649 269.502 236.587 273.116 241.519C268.88 244.615 264.802 247.944 260.92 251.483C256.806 246.96 252.698 242.441 248.59 237.921ZM192.155 175.854C196.263 180.374 200.377 184.897 204.485 189.416C210.561 183.882 216.932 178.679 223.571 173.824C219.964 168.896 216.358 163.968 212.745 159.036C205.59 164.264 198.713 169.883 192.155 175.854ZM165.667 252.946C169.506 246.051 173.701 239.352 178.251 232.911C183.249 236.424 188.243 239.943 193.241 243.457C189.069 249.382 185.212 255.525 181.691 261.853C176.339 258.878 171.01 255.907 165.667 252.946ZM190.309 266.643C193.658 260.614 197.335 254.765 201.305 249.129C206.295 252.655 211.291 256.158 216.281 259.684C212.696 264.791 209.371 270.092 206.327 275.547C200.988 272.579 195.652 269.622 190.309 266.643ZM214.959 280.344C217.83 275.188 220.962 270.191 224.359 265.364C229.357 268.877 234.361 272.394 239.345 275.917C236.331 280.204 233.529 284.658 230.977 289.248C225.637 286.28 220.291 283.308 214.959 280.344ZM141.635 239.584C145.941 231.835 150.668 224.321 155.763 217.073C160.761 220.586 165.755 224.106 170.747 227.615C166.015 234.34 161.64 241.306 157.657 248.481C152.32 245.523 146.981 242.556 141.635 239.584ZM141.297 321.026C142.693 313.357 144.487 305.749 146.681 298.275C152.548 299.992 158.412 301.716 164.275 303.439C162.252 310.296 160.606 317.265 159.337 324.3C153.329 323.209 147.308 322.111 141.297 321.026ZM169.048 326.063C170.256 319.363 171.833 312.743 173.744 306.219C179.607 307.943 185.478 309.653 191.335 311.373C189.599 317.273 188.182 323.278 187.092 329.331C181.07 328.249 175.063 327.158 169.048 326.063ZM196.787 331.092C202.794 332.183 208.815 333.282 214.823 334.373C215.741 329.291 216.938 324.264 218.384 319.31C212.521 317.586 206.664 315.866 200.793 314.156C199.166 319.73 197.829 325.383 196.787 331.092ZM114.258 316.118C115.821 307.502 117.854 298.945 120.306 290.533C126.169 292.257 132.033 293.98 137.896 295.704C135.605 303.484 133.731 311.399 132.287 319.395C126.273 318.3 120.265 317.209 114.258 316.118ZM140.333 394.781C139.4 388.559 138.739 382.557 138.282 376.274C138.157 374.364 138.045 372.461 137.962 370.539C144.062 370.26 150.164 369.992 156.27 369.734C156.339 371.498 156.443 373.246 156.567 375.006C156.993 380.775 157.592 386.274 158.448 392C152.412 392.934 146.373 393.858 140.333 394.781ZM168.204 390.518C174.24 389.601 180.283 388.671 186.315 387.744C185.58 382.803 185.046 378.049 184.69 373.062C184.589 371.537 184.505 370.03 184.436 368.497C178.323 368.767 172.224 369.029 166.127 369.301C166.168 370.226 166.225 373.679 166.405 374.331C166.806 379.821 167.392 385.082 168.204 390.518ZM196.085 386.252C195.385 381.588 194.88 377.089 194.548 372.382C194.39 371.813 194.334 368.864 194.31 368.064C200.409 367.803 206.509 367.524 212.619 367.26C212.672 368.545 212.746 369.825 212.83 371.103C213.137 375.301 213.583 379.306 214.204 383.465C208.157 384.402 202.114 385.332 196.085 386.252ZM113.158 398.942C119.188 398.004 125.236 397.095 131.276 396.172C130.307 389.691 129.615 383.449 129.136 376.915C128.999 374.918 128.884 372.943 128.802 370.942C122.695 371.217 116.596 371.478 110.494 371.746C110.594 373.899 110.709 376.042 110.858 378.188C111.362 385.213 112.109 391.972 113.158 398.942ZM162.764 463.5C162.548 463.093 161.93 461.745 161.712 461.479C158.515 455.107 155.722 448.908 153.103 442.27C158.781 440.042 164.47 437.812 170.157 435.571C172.559 441.651 175.111 447.349 178.053 453.184C178.126 453.456 178.83 454.701 179.008 455.034C173.605 457.872 168.179 460.687 162.764 463.5ZM187.778 450.499C193.194 447.67 198.62 444.854 204.036 442.042C203.882 441.741 203.284 440.68 203.209 440.442C200.689 435.408 198.492 430.533 196.418 425.279C190.729 427.509 185.046 429.743 179.36 431.984C181.65 437.77 184.081 443.186 186.875 448.741C187.054 448.968 187.591 450.135 187.778 450.499ZM212.8 437.486C212.633 437.177 212.175 436.179 212.019 435.975C209.64 431.233 207.565 426.606 205.602 421.664C211.291 419.433 216.973 417.199 222.669 414.973C224.401 419.366 226.247 423.455 228.367 427.683C228.42 427.882 228.929 428.777 229.061 429.021C223.634 431.854 218.212 434.663 212.8 437.486ZM138.368 476.195C143.785 473.365 149.207 470.556 154.626 467.737C154.42 467.344 153.636 465.946 153.539 465.624C150.207 458.981 147.312 452.528 144.565 445.622C138.883 447.856 133.2 450.09 127.511 452.321C130.472 459.775 133.6 466.742 137.202 473.913C137.441 474.219 138.132 475.731 138.368 476.195ZM206.436 521.68C200.748 516.24 195.339 510.483 190.244 504.475C194.908 500.53 199.579 496.589 204.242 492.644C208.914 498.161 213.875 503.438 219.103 508.436C214.878 512.846 210.659 517.26 206.436 521.68ZM225.927 501.301C220.942 496.541 216.223 491.519 211.772 486.262C216.439 482.311 221.11 478.37 225.774 474.425C229.799 479.179 234.079 483.736 238.584 488.043C234.361 492.463 230.143 496.877 225.927 501.301Z" fill="url(#paint0_linear_0_3)"/>
<path fill-rule="evenodd" clip-rule="evenodd" d="M245.41 480.919C241.159 476.847 237.11 472.547 233.306 468.053C237.97 464.108 242.637 460.157 247.301 456.212C250.689 460.218 254.286 464.045 258.081 467.668C253.858 472.088 249.639 476.502 245.41 480.919ZM567.529 320.466C568.255 323.449 568.818 326.469 569.218 329.511C566.073 329.922 562.917 330.337 559.776 330.741C559.421 328.035 558.92 325.351 558.284 322.686C561.364 321.945 564.443 321.204 567.529 320.466ZM584.087 268.902C585.148 273.324 585.991 277.805 586.583 282.336C581.917 282.948 577.248 283.549 572.578 284.167C572.048 280.14 571.313 276.163 570.363 272.22C574.929 271.109 579.508 270.005 584.087 268.902ZM525.921 308.11C526.989 312.536 527.817 317.027 528.413 321.551C523.747 322.163 519.078 322.764 514.412 323.375C513.878 319.355 513.14 315.367 512.197 311.429C516.759 310.324 521.342 309.214 525.921 308.11ZM187.43 541.543C181.041 535.433 174.968 528.975 169.252 522.219C173.91 518.271 178.584 514.323 183.248 510.378C188.547 516.646 194.182 522.622 200.096 528.299C195.88 532.723 191.659 537.126 187.43 541.543ZM307.982 559.821C300.813 557.909 293.757 555.603 286.839 552.935C289.04 547.241 291.244 541.54 293.441 535.836C299.752 538.268 306.187 540.366 312.717 542.112C311.145 548.019 309.556 553.925 307.982 559.821ZM315.274 532.585C309.088 530.931 302.984 528.936 297.008 526.626C299.209 520.932 301.406 515.228 303.611 509.527C308.986 511.606 314.462 513.388 320.02 514.874C318.431 520.78 316.853 526.682 315.274 532.585ZM322.563 505.356C317.342 503.959 312.197 502.279 307.153 500.33C309.353 494.636 311.555 488.925 313.759 483.224C318.189 484.934 322.713 486.406 327.296 487.637C325.724 493.544 324.139 499.443 322.563 505.356ZM300.702 587.064C292.565 584.885 284.539 582.284 276.687 579.244C278.888 573.55 281.085 567.846 283.289 562.145C290.532 564.939 297.924 567.351 305.434 569.362C303.855 575.265 302.277 581.168 300.702 587.064ZM293.405 614.306C284.296 611.866 275.333 608.945 266.535 605.554C268.729 599.856 270.933 594.155 273.137 588.454C281.325 591.617 289.673 594.333 298.151 596.595C296.566 602.494 294.984 608.403 293.405 614.306ZM375.393 566.49C368.039 566.964 360.659 567.043 353.304 566.738C353.561 560.629 353.811 554.534 354.064 548.431C360.778 548.711 367.514 548.632 374.22 548.208C374.602 554.297 374.997 560.393 375.393 566.49ZM373.591 538.352C373.195 532.256 372.8 526.159 372.415 520.059C366.697 520.426 360.96 520.49 355.237 520.252C354.984 526.355 354.727 532.464 354.47 538.573C360.839 538.838 367.225 538.769 373.591 538.352ZM371.778 510.217C366.408 510.563 361.024 510.628 355.65 510.398C355.901 504.285 356.15 498.189 356.414 492.084C361.134 492.281 365.88 492.22 370.609 491.928C370.998 498.021 371.393 504.117 371.778 510.217ZM377.191 594.635C376.799 588.531 376.404 582.435 376.015 576.342C368.318 576.83 360.598 576.915 352.891 576.593C352.634 582.702 352.381 588.804 352.128 594.907C360.484 595.268 368.846 595.173 377.191 594.635ZM378.993 622.773C369.657 623.375 360.299 623.479 350.948 623.082C351.211 616.977 351.46 610.881 351.714 604.778C360.412 605.143 369.129 605.032 377.817 604.48C378.212 610.577 378.604 616.68 378.993 622.773ZM269.767 561.426C269.346 561.236 268.032 560.557 267.695 560.468C261.241 557.44 255.235 554.265 249.069 550.678C252.163 545.411 255.273 540.146 258.367 534.879C264.002 538.177 269.544 541.085 275.45 543.867C275.669 544.038 276.985 544.576 277.349 544.742C274.817 550.306 272.291 555.875 269.767 561.426ZM281.437 535.763C281.073 535.597 279.922 535.003 279.628 534.931C274.003 532.275 268.747 529.515 263.38 526.381C266.473 521.114 269.581 515.855 272.678 510.582C277.555 513.433 282.278 515.921 287.383 518.33C287.577 518.468 288.705 518.934 289.015 519.086C286.487 524.644 283.962 530.195 281.437 535.763ZM293.097 510.086C292.787 509.951 291.809 509.439 291.552 509.379C286.754 507.113 282.266 504.752 277.684 502.08C280.784 496.817 283.878 491.55 286.982 486.281C291.061 488.662 295.033 490.752 299.311 492.771C299.472 492.891 300.423 493.28 300.677 493.392C298.158 498.964 295.626 504.528 293.097 510.086ZM258.392 586.455C257.925 586.238 256.44 585.487 256.059 585.382C248.806 581.963 242.055 578.41 235.127 574.366C238.221 569.1 241.332 563.834 244.425 558.567C250.839 562.323 257.101 565.621 263.821 568.785C264.081 568.978 265.577 569.586 265.98 569.775C263.442 575.335 260.91 580.9 258.392 586.455ZM340.019 580.289C332.175 579.516 324.377 578.328 316.66 576.736C317.898 570.751 319.135 564.766 320.382 558.778C327.467 560.253 334.624 561.344 341.817 562.051C341.229 568.136 340.624 574.204 340.019 580.289ZM342.787 552.226C335.945 551.555 329.122 550.514 322.371 549.118C323.619 543.13 324.859 537.155 326.096 531.17C332.203 532.425 338.38 533.375 344.591 533.992C343.99 540.07 343.391 546.158 342.787 552.226ZM345.568 524.171C346.157 518.085 346.765 512.011 347.366 505.933C342.14 505.417 336.958 504.626 331.81 503.562C330.576 509.541 329.339 515.526 328.096 521.507C333.867 522.7 339.705 523.596 345.568 524.171ZM337.314 607.645C337.916 601.567 338.521 595.482 339.118 589.411C330.951 588.602 322.83 587.36 314.803 585.695C313.563 591.67 312.322 597.661 311.082 603.636C319.748 605.449 328.505 606.784 337.314 607.645ZM542.632 260.673C543.747 262.722 544.831 264.78 545.892 266.86C548.154 271.347 550.202 275.773 552.157 280.41C546.525 282.771 540.893 285.132 535.251 287.495C533.467 283.283 531.6 279.245 529.541 275.157C528.582 273.252 527.598 271.375 526.571 269.51C531.912 266.566 537.27 263.623 542.632 260.673ZM500.565 207.29C506.01 212.264 511.188 217.516 516.069 223.038C511.499 227.081 506.925 231.131 502.347 235.187C497.896 230.16 493.17 225.364 488.202 220.834C492.321 216.318 496.45 211.8 500.565 207.29ZM462.539 248.935C466.508 252.562 470.293 256.4 473.861 260.431C469.287 264.48 464.713 268.53 460.146 272.583C457.005 269.038 453.669 265.662 450.174 262.469C454.299 257.957 458.42 253.451 462.539 248.935ZM538.601 165.643C545.509 171.956 552.08 178.622 558.275 185.619C553.71 189.683 549.136 193.732 544.562 197.782C538.791 191.26 532.666 185.045 526.235 179.176C530.363 174.674 534.475 170.155 538.601 165.643ZM443.709 170.276C450.488 173.261 457.114 176.601 463.546 180.279C460.505 185.576 457.474 190.888 454.433 196.185C448.569 192.826 442.529 189.771 436.34 187.065C438.802 181.469 441.247 175.872 443.709 170.276ZM421.049 221.923C425.99 224.096 430.817 226.529 435.504 229.217C432.47 234.518 429.429 239.815 426.389 245.113C422.267 242.76 418.021 240.609 413.674 238.709C416.136 233.113 418.591 227.513 421.049 221.923ZM455.035 144.458C462.737 147.836 470.259 151.63 477.565 155.814C474.531 161.115 471.487 166.419 468.456 171.713C461.72 167.859 454.78 164.356 447.67 161.241C450.128 155.652 452.573 150.055 455.035 144.458ZM466.361 118.641C474.988 122.42 483.406 126.67 491.581 131.355C488.544 136.645 485.506 141.953 482.472 147.254C474.867 142.899 467.028 138.947 459.003 135.428C461.458 129.828 463.914 124.228 466.361 118.641ZM378.28 153.606C385.635 154.246 392.95 155.261 400.19 156.666C399.014 162.669 397.848 168.668 396.686 174.661C390.083 173.377 383.422 172.439 376.714 171.871C377.234 165.781 377.76 159.695 378.28 153.606ZM373.467 209.795C378.81 210.246 384.132 210.994 389.395 212.027C388.223 218.022 387.054 224.011 385.895 230.015C381.275 229.107 376.596 228.455 371.894 228.057C372.41 221.973 372.934 215.877 373.467 209.795ZM380.693 125.515C389.044 126.236 397.345 127.396 405.579 128.994C404.406 134.99 403.234 140.986 402.065 146.975C394.486 145.498 386.821 144.431 379.124 143.77C379.644 137.68 380.167 131.601 380.693 125.515ZM383.093 97.4165C382.573 103.506 382.057 109.59 381.527 115.682C390.233 116.431 398.895 117.64 407.467 119.31C408.639 113.315 409.798 107.311 410.971 101.315C401.755 99.5208 392.441 98.2176 383.093 97.4165ZM309.292 159.159C316.541 157.334 323.89 155.903 331.29 154.873C332.137 160.921 332.985 166.97 333.828 173.025C327.075 173.96 320.375 175.262 313.77 176.937C312.27 171.007 310.784 165.085 309.292 159.159ZM316.165 186.504C317.651 192.426 319.144 198.352 320.636 204.278C326.263 202.86 331.977 201.749 337.727 200.959C336.88 194.911 336.036 188.856 335.193 182.801C328.785 183.688 322.432 184.926 316.165 186.504ZM323.045 213.853C328.33 212.521 333.684 211.484 339.089 210.725C339.937 216.773 340.776 222.835 341.621 228.873C336.88 229.538 332.171 230.453 327.52 231.621C326.02 225.708 324.531 219.775 323.045 213.853ZM302.416 131.803C303.898 137.732 305.391 143.658 306.883 149.584C314.484 147.671 322.173 146.171 329.925 145.097C329.088 139.045 328.245 132.99 327.401 126.935C318.987 128.114 310.643 129.739 302.416 131.803ZM295.539 104.465C304.747 102.154 314.088 100.335 323.491 99.0204C324.331 105.065 325.179 111.113 326.026 117.162C317.271 118.382 308.575 120.079 300.014 122.233C298.517 116.313 297.031 110.391 295.539 104.465ZM247.377 186.092C253.587 182.103 259.635 178.622 266.219 175.256C266.277 175.201 266.626 175.04 266.736 174.988C269.484 180.455 272.235 185.914 274.978 191.36C274.889 191.406 274.577 191.579 274.508 191.592C268.507 194.668 263.002 197.835 257.331 201.473C254.004 196.352 250.69 191.222 247.377 186.092ZM262.69 209.764C266.01 214.898 269.327 220.021 272.641 225.151C277.462 222.066 282.161 219.361 287.256 216.752C287.318 216.736 287.581 216.587 287.666 216.547C284.91 211.094 282.159 205.634 279.42 200.182C279.325 200.225 279.032 200.365 278.971 200.409C273.279 203.318 268.072 206.322 262.69 209.764ZM278.007 233.446C282.54 230.539 286.927 228.008 291.727 225.556C291.763 225.524 292.034 225.406 292.102 225.366C294.85 230.832 297.599 236.282 300.344 241.738C300.284 241.765 300.067 241.896 300.014 241.91C295.805 244.058 291.961 246.275 287.971 248.824C284.641 243.693 281.32 238.576 278.007 233.446ZM232.057 162.417C235.37 167.547 238.69 172.681 242.007 177.804C248.53 173.625 254.856 169.985 261.744 166.459C261.828 166.436 262.183 166.235 262.292 166.183C259.543 160.734 256.788 155.281 254.047 149.818C253.927 149.872 253.525 150.047 253.459 150.115C245.984 153.939 239.136 157.887 232.057 162.417ZM216.737 138.742C224.64 133.671 232.344 129.237 240.697 124.965C240.79 124.895 241.228 124.688 241.369 124.628C244.12 130.088 246.855 135.546 249.61 140.999C249.493 141.064 249.093 141.284 248.988 141.312C241.202 145.292 234.062 149.407 226.69 154.139C223.381 149.003 220.057 143.875 216.737 138.742ZM197.181 231.688C199.18 229.174 201.209 226.731 203.32 224.299C206.078 221.146 208.868 218.134 211.802 215.135C216.158 219.408 220.52 223.686 224.878 227.97C222.208 230.697 219.659 233.459 217.141 236.335C215.225 238.552 213.362 240.783 211.541 243.08C206.762 239.279 201.973 235.48 197.181 231.688ZM219.279 249.21C221.011 247.037 222.766 244.93 224.587 242.818C226.977 240.087 229.383 237.482 231.921 234.891C236.273 239.171 240.642 243.452 245.005 247.729C242.721 250.061 240.554 252.407 238.414 254.857C236.771 256.755 235.193 258.645 233.646 260.607C228.857 256.808 224.068 253.009 219.279 249.21ZM241.371 266.728C242.839 264.889 244.322 263.103 245.865 261.333C247.875 259.029 249.904 256.833 252.051 254.644C256.407 258.917 260.772 263.205 265.135 267.465C263.25 269.399 261.456 271.342 259.679 273.365C258.33 274.92 257.022 276.498 255.735 278.115C250.953 274.319 246.164 270.521 241.371 266.728ZM175.096 214.173C177.369 211.323 179.664 208.556 182.056 205.792C185.182 202.214 188.351 198.776 191.675 195.392C196.03 199.666 200.389 203.95 204.751 208.227C201.682 211.369 198.767 214.52 195.887 217.825C193.673 220.373 191.555 222.924 189.453 225.555C184.667 221.767 179.878 217.968 175.096 214.173ZM152.993 196.657C155.527 193.463 158.11 190.367 160.781 187.286C164.29 183.276 167.825 179.449 171.537 175.652C175.906 179.934 180.262 184.207 184.62 188.491C181.16 192.035 177.86 195.592 174.608 199.326C172.121 202.195 169.723 205.079 167.353 208.05C162.568 204.245 157.786 200.45 152.993 196.657ZM164.179 291.16C166.68 284.164 169.549 277.283 172.79 270.581C178.288 273.243 183.791 275.898 189.293 278.553C186.351 284.659 183.722 290.928 181.445 297.32C175.694 295.264 169.936 293.221 164.179 291.16ZM190.742 300.628C192.902 294.575 195.385 288.637 198.177 282.852C203.683 285.501 209.185 288.156 214.683 290.818C212.177 296.017 209.946 301.349 208.002 306.784C202.258 304.731 196.507 302.675 190.742 300.628ZM217.309 310.089C219.127 304.996 221.218 299.982 223.578 295.113C229.084 297.762 234.575 300.42 240.084 303.079C238.01 307.361 236.168 311.76 234.569 316.245C228.825 314.193 223.053 312.142 217.309 310.089ZM137.625 281.707C140.462 273.747 143.729 265.929 147.406 258.321C152.904 260.983 158.4 263.634 163.909 266.293C160.522 273.308 157.504 280.51 154.892 287.849C149.128 285.802 143.373 283.753 137.625 281.707ZM111.062 272.239C114.237 263.325 117.89 254.581 122.005 246.06C127.514 248.719 133.006 251.377 138.512 254.025C134.685 261.954 131.282 270.099 128.332 278.392C122.561 276.341 116.813 274.296 111.062 272.239ZM152.214 357.671C152.322 350.212 152.827 342.77 153.734 335.366C159.804 336.104 165.867 336.856 171.936 337.594C171.113 344.348 170.647 351.14 170.547 357.941C164.432 357.849 158.329 357.763 152.214 357.671ZM180.405 358.073C180.5 351.632 180.938 345.195 181.716 338.795C187.786 339.533 193.848 340.284 199.918 341.022C199.206 346.771 198.822 352.55 198.738 358.344C192.619 358.258 186.52 358.166 180.405 358.073ZM208.598 358.487C208.684 353.057 209.052 347.613 209.715 342.224C215.781 342.969 221.843 343.72 227.913 344.458C227.326 349.21 227.013 353.978 226.938 358.761C220.823 358.668 214.71 358.586 208.598 358.487ZM124.023 357.268C130.121 357.36 136.237 357.452 142.339 357.537C142.458 349.723 142.989 341.916 143.937 334.164C137.868 333.426 131.805 332.675 125.753 331.938C124.72 340.339 124.14 348.798 124.023 357.268ZM95.8256 356.861C95.9589 347.384 96.603 337.911 97.7641 328.506C103.817 329.243 109.89 329.991 115.949 330.732C114.871 339.487 114.27 348.305 114.145 357.124C108.043 357.039 101.934 356.95 95.8256 356.861ZM162.559 425.891C160.265 418.874 158.331 411.721 156.786 404.492C162.761 403.222 168.735 401.952 174.71 400.682C176.115 407.264 177.871 413.775 179.979 420.181C174.169 422.085 168.369 423.986 162.559 425.891ZM189.357 417.102C195.157 415.2 200.963 413.303 206.771 411.388C204.985 405.938 203.49 400.4 202.297 394.797C196.323 396.067 190.344 397.344 184.37 398.614C185.696 404.859 187.362 411.036 189.357 417.102ZM216.152 408.32C214.476 403.216 213.071 398.012 211.953 392.753C217.927 391.483 223.905 390.206 229.883 388.929C230.864 393.552 232.095 398.125 233.572 402.61C227.758 404.521 221.945 406.414 216.152 408.32ZM135.765 434.672C141.571 432.775 147.371 430.874 153.181 428.969C150.766 421.609 148.754 414.119 147.144 406.544C141.17 407.814 135.191 409.091 129.213 410.368C130.966 418.583 133.147 426.7 135.765 434.672ZM108.963 443.468C106.042 434.534 103.591 425.447 101.623 416.242C107.597 414.972 113.575 413.695 119.55 412.425C121.374 420.991 123.655 429.44 126.379 437.764C120.576 439.655 114.783 441.561 108.963 443.468ZM193.833 485.813C189.382 479.884 185.249 473.724 181.448 467.358C186.693 464.226 191.946 461.099 197.182 457.97C200.643 463.778 204.424 469.399 208.482 474.8C203.594 478.474 198.721 482.139 193.833 485.813ZM216.383 468.861C212.527 463.737 208.955 458.413 205.664 452.907C210.917 449.779 216.156 446.644 221.398 443.519C224.352 448.46 227.566 453.241 231.014 457.847C226.133 461.525 221.266 465.194 216.383 468.861ZM238.907 451.922C243.795 448.248 248.676 444.57 253.559 440.903C250.698 437.103 248.061 433.159 245.628 429.076C240.371 432.21 235.129 435.335 229.894 438.464C232.646 443.111 235.662 447.592 238.907 451.922ZM171.295 502.761C176.182 499.087 181.063 495.409 185.947 491.742C181.282 485.539 176.945 479.076 172.962 472.411C167.71 475.538 162.468 478.663 157.222 481.794C161.54 489.025 166.243 496.035 171.295 502.761ZM148.767 519.707C143.095 512.172 137.835 504.336 133.009 496.239C138.265 493.104 143.508 489.98 148.764 486.845C153.253 494.378 158.144 501.674 163.419 508.687C158.528 512.368 153.648 516.029 148.767 519.707ZM242.786 532.627C236.709 528.473 230.851 523.986 225.246 519.212C229.211 514.564 233.18 509.908 237.146 505.26C242.254 509.623 247.598 513.716 253.148 517.513C249.684 522.548 246.229 527.597 242.786 532.627ZM258.709 509.366C253.456 505.759 248.383 501.885 243.543 497.747C247.515 493.102 251.474 488.449 255.439 483.801C259.797 487.519 264.351 491.006 269.078 494.238C265.623 499.288 262.173 504.331 258.709 509.366ZM274.658 486.103C270.218 483.063 265.94 479.788 261.849 476.295C265.821 471.651 269.776 467.005 273.742 462.356C277.35 465.429 281.113 468.31 285.02 470.989C281.553 476.014 278.109 481.06 274.658 486.103ZM226.85 555.897C219.957 551.166 213.304 546.079 206.943 540.657C210.915 536.012 214.874 531.36 218.843 526.705C224.712 531.71 230.845 536.409 237.202 540.769C233.751 545.812 230.301 550.855 226.85 555.897ZM210.915 579.151C203.201 573.866 195.759 568.173 188.643 562.112C192.615 557.467 196.574 552.815 200.54 548.166C207.158 553.817 214.086 559.116 221.27 564.032C217.819 569.075 214.358 574.121 210.915 579.151ZM490.787 258.148C494.452 262.791 497.865 267.625 501.014 272.643C495.833 275.891 490.665 279.147 485.484 282.396C482.689 277.945 479.653 273.637 476.389 269.508C481.201 265.72 485.992 261.937 490.787 258.148ZM556.639 206.195C562.158 213.182 567.297 220.462 572.027 227.992C566.863 231.241 561.689 234.494 556.51 237.753C552.125 230.775 547.366 224.015 542.261 217.55C547.056 213.76 551.847 209.978 556.639 206.195ZM466.212 198.027C471.981 201.782 477.542 205.85 482.888 210.183C479.031 214.921 475.176 219.668 471.323 224.399C466.484 220.457 461.427 216.786 456.21 213.376C459.545 208.257 462.87 203.142 466.212 198.027ZM450.81 221.642C455.751 224.857 460.515 228.332 465.079 232.045C461.221 236.782 457.37 241.523 453.513 246.261C449.432 242.95 445.201 239.853 440.809 236.991C444.144 231.872 447.478 226.771 450.81 221.642ZM496.617 151.364C504.027 156.181 511.184 161.418 518.041 166.994C514.179 171.738 510.326 176.469 506.468 181.206C500.109 176.024 493.48 171.188 486.605 166.716C489.94 161.597 493.275 156.479 496.617 151.364ZM408.285 172.573C413.418 173.893 418.316 175.359 423.334 177.063C423.963 177.152 426.963 178.354 427.778 178.657C425.652 184.376 423.518 190.108 421.401 195.842C420.056 195.339 418.719 194.868 417.379 194.403C412.829 192.855 408.408 191.54 403.755 190.338C405.266 184.414 406.774 178.497 408.285 172.573ZM401.323 199.893C399.819 205.821 398.305 211.735 396.8 217.663C400.694 218.665 404.403 219.772 408.207 221.067C409.342 221.457 410.457 221.853 411.588 222.268C413.708 216.545 415.831 210.815 417.965 205.083C417.268 204.821 414.713 203.797 414.168 203.73C409.877 202.269 405.706 201.027 401.323 199.893ZM422.038 118.611C428.649 120.325 434.959 122.209 441.425 124.404C443.35 125.065 445.253 125.748 447.149 126.445C445.019 132.171 442.898 137.911 440.775 143.623C439.014 142.969 437.245 142.345 435.471 141.727C429.483 139.684 423.634 137.951 417.505 136.366C419.019 130.452 420.53 124.528 422.038 118.611ZM342.327 139.123C342.827 139.085 344.527 139.032 344.876 138.933C352.237 138.446 359.255 138.291 366.63 138.483C366.46 144.581 366.288 150.695 366.124 156.796C359.344 156.646 352.913 156.777 346.145 157.218C345.838 157.183 344.233 157.361 343.799 157.393C343.3 151.307 342.818 145.222 342.327 139.123ZM344.58 167.23C345.075 173.322 345.564 179.411 346.059 185.504C346.434 185.482 347.819 185.318 348.081 185.354C353.916 184.967 359.489 184.852 365.348 184.991C365.511 178.89 365.683 172.776 365.847 166.675C359.399 166.515 353.256 166.653 346.819 167.073C346.519 167.148 345.025 167.195 344.58 167.23ZM346.854 195.331C347.229 195.309 348.511 195.263 348.773 195.193C354.288 194.824 359.541 194.711 365.068 194.844C364.904 200.945 364.733 207.059 364.569 213.16C359.635 213.042 354.957 213.152 350.045 213.471C349.811 213.433 348.647 213.565 348.336 213.598C347.834 207.519 347.349 201.424 346.854 195.331ZM340.118 111.722C340.616 117.808 341.101 123.903 341.589 129.992C342.085 129.96 343.888 129.746 344.231 129.794C351.908 129.294 359.197 129.145 366.875 129.318C367.039 123.217 367.211 117.103 367.381 111.006C359.119 110.805 351.229 110.969 342.976 111.516C342.583 111.616 340.666 111.676 340.118 111.722ZM271.556 156.781C278.711 153.665 286.038 150.939 293.493 148.606C295.324 154.435 297.155 160.265 298.983 166.084C292.15 168.229 285.43 170.73 278.863 173.593C276.421 167.995 273.99 162.393 271.556 156.781ZM282.791 182.649C285.228 188.255 287.663 193.85 290.091 199.458C295.752 197 301.529 194.847 307.418 193.005C305.591 187.169 303.76 181.339 301.925 175.516C295.438 177.551 289.034 179.934 282.791 182.649ZM294.029 208.511C299.364 206.19 304.825 204.156 310.371 202.417C312.202 208.247 314.027 214.073 315.854 219.909C310.923 221.455 306.068 223.265 301.336 225.323C298.902 219.711 296.467 214.116 294.029 208.511ZM260.601 131.577C263.038 137.183 265.473 142.778 267.901 148.386C275.362 145.137 282.998 142.29 290.75 139.854C288.922 134.035 287.095 128.199 285.268 122.362C276.897 124.998 268.65 128.076 260.601 131.577ZM210.638 196.194C216.481 190.88 222.6 185.884 228.981 181.216C232.584 186.151 236.194 191.072 239.797 196.007C233.951 200.286 228.335 204.883 222.968 209.756C218.86 205.237 214.759 200.721 210.638 196.194ZM229.607 217.054C234.72 212.423 240.062 208.039 245.628 203.97C249.235 208.898 252.844 213.837 256.451 218.765C251.405 222.453 246.565 226.412 241.94 230.626C237.836 226.1 233.728 221.581 229.607 217.054ZM248.59 237.921C252.954 233.945 257.523 230.21 262.283 226.727C265.893 231.649 269.502 236.587 273.116 241.519C268.88 244.615 264.802 247.944 260.92 251.483C256.806 246.96 252.698 242.441 248.59 237.921ZM192.155 175.854C196.263 180.374 200.377 184.897 204.485 189.416C210.561 183.882 216.932 178.679 223.571 173.824C219.964 168.896 216.358 163.968 212.745 159.036C205.59 164.264 198.713 169.883 192.155 175.854ZM165.667 252.946C169.506 246.051 173.701 239.352 178.251 232.911C183.249 236.424 188.243 239.943 193.241 243.457C189.069 249.382 185.212 255.525 181.691 261.853C176.339 258.878 171.01 255.907 165.667 252.946ZM190.309 266.643C193.658 260.614 197.335 254.765 201.305 249.129C206.295 252.655 211.291 256.158 216.281 259.684C212.696 264.791 209.371 270.092 206.327 275.547C200.988 272.579 195.652 269.622 190.309 266.643ZM214.959 280.344C217.83 275.188 220.962 270.191 224.359 265.364C229.357 268.877 234.361 272.394 239.345 275.917C236.331 280.204 233.529 284.658 230.977 289.248C225.637 286.28 220.291 283.308 214.959 280.344ZM141.635 239.584C145.941 231.835 150.668 224.321 155.763 217.073C160.761 220.586 165.755 224.106 170.747 227.615C166.015 234.34 161.64 241.306 157.657 248.481C152.32 245.523 146.981 242.556 141.635 239.584ZM141.297 321.026C142.693 313.357 144.487 305.749 146.681 298.275C152.548 299.992 158.412 301.716 164.275 303.439C162.252 310.296 160.606 317.265 159.337 324.3C153.329 323.209 147.308 322.111 141.297 321.026ZM169.048 326.063C170.256 319.363 171.833 312.743 173.744 306.219C179.607 307.943 185.478 309.653 191.335 311.373C189.599 317.273 188.182 323.278 187.092 329.331C181.07 328.249 175.063 327.158 169.048 326.063ZM196.787 331.092C202.794 332.183 208.815 333.282 214.823 334.373C215.741 329.291 216.938 324.264 218.384 319.31C212.521 317.586 206.664 315.866 200.793 314.156C199.166 319.73 197.829 325.383 196.787 331.092ZM114.258 316.118C115.821 307.502 117.854 298.945 120.306 290.533C126.169 292.257 132.033 293.98 137.896 295.704C135.605 303.484 133.731 311.399 132.287 319.395C126.273 318.3 120.265 317.209 114.258 316.118ZM140.333 394.781C139.4 388.559 138.739 382.557 138.282 376.274C138.157 374.364 138.045 372.461 137.962 370.539C144.062 370.26 150.164 369.992 156.27 369.734C156.339 371.498 156.443 373.246 156.567 375.006C156.993 380.775 157.592 386.274 158.448 392C152.412 392.934 146.373 393.858 140.333 394.781ZM168.204 390.518C174.24 389.601 180.283 388.671 186.315 387.744C185.58 382.803 185.046 378.049 184.69 373.062C184.589 371.537 184.505 370.03 184.436 368.497C178.323 368.767 172.224 369.029 166.127 369.301C166.168 370.226 166.225 373.679 166.405 374.331C166.806 379.821 167.392 385.082 168.204 390.518ZM196.085 386.252C195.385 381.588 194.88 377.089 194.548 372.382C194.39 371.813 194.334 368.864 194.31 368.064C200.409 367.803 206.509 367.524 212.619 367.26C212.672 368.545 212.746 369.825 212.83 371.103C213.137 375.301 213.583 379.306 214.204 383.465C208.157 384.402 202.114 385.332 196.085 386.252ZM113.158 398.942C119.188 398.004 125.236 397.095 131.276 396.172C130.307 389.691 129.615 383.449 129.136 376.915C128.999 374.918 128.884 372.943 128.802 370.942C122.695 371.217 116.596 371.478 110.494 371.746C110.594 373.899 110.709 376.042 110.858 378.188C111.362 385.213 112.109 391.972 113.158 398.942ZM162.764 463.5C162.548 463.093 161.93 461.745 161.712 461.479C158.515 455.107 155.722 448.908 153.103 442.27C158.781 440.042 164.47 437.812 170.157 435.571C172.559 441.651 175.111 447.349 178.053 453.184C178.126 453.456 178.83 454.701 179.008 455.034C173.605 457.872 168.179 460.687 162.764 463.5ZM187.778 450.499C193.194 447.67 198.62 444.854 204.036 442.042C203.882 441.741 203.284 440.68 203.209 440.442C200.689 435.408 198.492 430.533 196.418 425.279C190.729 427.509 185.046 429.743 179.36 431.984C181.65 437.77 184.081 443.186 186.875 448.741C187.054 448.968 187.591 450.135 187.778 450.499ZM212.8 437.486C212.633 437.177 212.175 436.179 212.019 435.975C209.64 431.233 207.565 426.606 205.602 421.664C211.291 419.433 216.973 417.199 222.669 414.973C224.401 419.366 226.247 423.455 228.367 427.683C228.42 427.882 228.929 428.777 229.061 429.021C223.634 431.854 218.212 434.663 212.8 437.486ZM138.368 476.195C143.785 473.365 149.207 470.556 154.626 467.737C154.42 467.344 153.636 465.946 153.539 465.624C150.207 458.981 147.312 452.528 144.565 445.622C138.883 447.856 133.2 450.09 127.511 452.321C130.472 459.775 133.6 466.742 137.202 473.913C137.441 474.219 138.132 475.731 138.368 476.195ZM206.436 521.68C200.748 516.24 195.339 510.483 190.244 504.475C194.908 500.53 199.579 496.589 204.242 492.644C208.914 498.161 213.875 503.438 219.103 508.436C214.878 512.846 210.659 517.26 206.436 521.68ZM225.927 501.301C220.942 496.541 216.223 491.519 211.772 486.262C216.439 482.311 221.11 478.37 225.774 474.425C229.799 479.179 234.079 483.736 238.584 488.043C234.361 492.463 230.143 496.877 225.927 501.301Z" stroke="white" stroke-width="2" mask="url(#path-1-inside-1_0_3)"/>
</g>
<mask id="path-2-outside-2_0_3" maskUnits="userSpaceOnUse" x="395.737" y="387.399" width="200" height="241" fill="black">
<rect fill="white" x="395.737" y="387.399" width="200" height="241"/>
<path d="M591.039 391.565V624.399H553.522L443.813 465.804H441.88V624.399H399.702V391.565H437.446L547.042 550.274H549.088V391.565H591.039Z"/>
</mask>
<path d="M591.039 391.565V624.399H553.522L443.813 465.804H441.88V624.399H399.702V391.565H437.446L547.042 550.274H549.088V391.565H591.039Z" fill="url(#paint1_linear_0_3)"/>
<path d="M591.039 391.565H594.775V387.83H591.039V391.565ZM591.039 624.399V628.135H594.775V624.399H591.039ZM553.522 624.399L550.45 626.524L551.564 628.135H553.522V624.399ZM443.813 465.804L446.885 463.679L445.771 462.068H443.813V465.804ZM441.88 465.804V462.068H438.145V465.804H441.88ZM441.88 624.399V628.135H445.616V624.399H441.88ZM399.702 624.399H395.966V628.135H399.702V624.399ZM399.702 391.565V387.83H395.966V391.565H399.702ZM437.446 391.565L440.52 389.442L439.406 387.83H437.446V391.565ZM547.042 550.274L543.968 552.397L545.082 554.01H547.042V550.274ZM549.088 550.274V554.01H552.824V550.274H549.088ZM549.088 391.565V387.83H545.353V391.565H549.088ZM591.039 391.565H587.304V624.399H591.039H594.775V391.565H591.039ZM591.039 624.399V620.664H553.522V624.399V628.135H591.039V624.399ZM553.522 624.399L556.594 622.274L446.885 463.679L443.813 465.804L440.741 467.929L550.45 626.524L553.522 624.399ZM443.813 465.804V462.068H441.88V465.804V469.539H443.813V465.804ZM441.88 465.804H438.145V624.399H441.88H445.616V465.804H441.88ZM441.88 624.399V620.664H399.702V624.399V628.135H441.88V624.399ZM399.702 624.399H403.437V391.565H399.702H395.966V624.399H399.702ZM399.702 391.565V395.301H437.446V391.565V387.83H399.702V391.565ZM437.446 391.565L434.372 393.688L543.968 552.397L547.042 550.274L550.116 548.152L440.52 389.442L437.446 391.565ZM547.042 550.274V554.01H549.088V550.274V546.539H547.042V550.274ZM549.088 550.274H552.824V391.565H549.088H545.353V550.274H549.088ZM549.088 391.565V395.301H591.039V391.565V387.83H549.088V391.565Z" fill="white" mask="url(#path-2-outside-2_0_3)"/>
<mask id="path-4-outside-3_0_3" maskUnits="userSpaceOnUse" x="608.611" y="387.399" width="200" height="241" fill="black">
<rect fill="white" x="608.611" y="387.399" width="200" height="241"/>
<path d="M691.476 624.399H612.576V391.565H693.068C716.184 391.565 736.042 396.226 752.641 405.549C769.315 414.795 782.124 428.097 791.067 445.453C800.011 462.81 804.483 483.577 804.483 507.755C804.483 532.008 799.973 552.851 790.954 570.283C782.01 587.716 769.087 601.093 752.186 610.415C735.36 619.738 715.123 624.399 691.476 624.399ZM654.755 587.905H689.43C705.649 587.905 719.178 584.949 730.017 579.037C740.855 573.05 749.003 564.144 754.46 552.321C759.917 540.421 762.645 525.566 762.645 507.755C762.645 489.944 759.917 475.164 754.46 463.416C749.003 451.593 740.931 442.763 730.244 436.927C719.633 431.015 706.445 428.059 690.68 428.059H654.755V587.905Z"/>
</mask>
<path d="M691.476 624.399H612.576V391.565H693.068C716.184 391.565 736.042 396.226 752.641 405.549C769.315 414.795 782.124 428.097 791.067 445.453C800.011 462.81 804.483 483.577 804.483 507.755C804.483 532.008 799.973 552.851 790.954 570.283C782.01 587.716 769.087 601.093 752.186 610.415C735.36 619.738 715.123 624.399 691.476 624.399ZM654.755 587.905H689.43C705.649 587.905 719.178 584.949 730.017 579.037C740.855 573.05 749.003 564.144 754.46 552.321C759.917 540.421 762.645 525.566 762.645 507.755C762.645 489.944 759.917 475.164 754.46 463.416C749.003 451.593 740.931 442.763 730.244 436.927C719.633 431.015 706.445 428.059 690.68 428.059H654.755V587.905Z" fill="url(#paint2_linear_0_3)"/>
<path d="M612.576 624.399H609.301V627.674H612.576V624.399ZM612.576 391.565V388.29H609.301V391.565H612.576ZM752.641 405.549L751.037 408.404L751.045 408.409L751.052 408.413L752.641 405.549ZM791.067 445.453L788.156 446.954L788.156 446.954L791.067 445.453ZM790.954 570.283L788.045 568.778L788.04 568.788L790.954 570.283ZM752.186 610.415L750.604 607.548L750.599 607.551L752.186 610.415ZM654.755 587.905H651.48V591.18H654.755V587.905ZM730.017 579.037L731.585 581.912L731.593 581.908L731.6 581.904L730.017 579.037ZM754.46 552.321L757.433 553.693L757.436 553.686L754.46 552.321ZM754.46 463.416L751.486 464.789L751.489 464.796L754.46 463.416ZM730.244 436.927L728.65 439.788L728.662 439.795L728.674 439.801L730.244 436.927ZM654.755 428.059V424.784H651.48V428.059H654.755ZM691.476 624.399V621.124H612.576V624.399V627.674H691.476V624.399ZM612.576 624.399H615.851V391.565H612.576H609.301V624.399H612.576ZM612.576 391.565V394.84H693.068V391.565V388.29H612.576V391.565ZM693.068 391.565V394.84C715.743 394.84 735.023 399.41 751.037 408.404L752.641 405.549L754.244 402.693C737.061 393.043 716.626 388.29 693.068 388.29V391.565ZM752.641 405.549L751.052 408.413C767.146 417.338 779.501 430.158 788.156 446.954L791.067 445.453L793.978 443.953C784.746 426.036 771.484 412.253 754.229 402.685L752.641 405.549ZM791.067 445.453L788.156 446.954C796.81 463.749 801.208 483.977 801.208 507.755H804.483H807.757C807.757 483.177 803.211 461.871 793.978 443.953L791.067 445.453ZM804.483 507.755H801.208C801.208 531.606 796.773 551.908 788.045 568.778L790.954 570.283L793.862 571.788C803.172 553.794 807.757 532.411 807.757 507.755H804.483ZM790.954 570.283L788.04 568.788C779.389 585.65 766.926 598.545 750.604 607.548L752.186 610.415L753.768 613.283C771.249 603.641 784.631 589.781 793.867 571.778L790.954 570.283ZM752.186 610.415L750.599 607.551C734.358 616.549 714.694 621.124 691.476 621.124V624.399V627.674C715.553 627.674 736.362 622.927 753.773 613.28L752.186 610.415ZM654.755 587.905V591.18H689.43V587.905V584.63H654.755V587.905ZM689.43 587.905V591.18C706.031 591.18 720.138 588.156 731.585 581.912L730.017 579.037L728.448 576.162C718.219 581.742 705.268 584.63 689.43 584.63V587.905ZM730.017 579.037L731.6 581.904C743.082 575.561 751.7 566.115 757.433 553.693L754.46 552.321L751.486 550.948C746.305 562.173 738.628 570.539 728.433 576.171L730.017 579.037ZM754.46 552.321L757.436 553.686C763.147 541.233 765.92 525.877 765.92 507.755H762.645H759.37C759.37 525.255 756.686 539.609 751.483 550.955L754.46 552.321ZM762.645 507.755H765.92C765.92 489.635 763.148 474.347 757.43 462.037L754.46 463.416L751.489 464.796C756.685 475.981 759.37 490.252 759.37 507.755H762.645ZM754.46 463.416L757.433 462.044C751.703 449.629 743.161 440.25 731.814 434.053L730.244 436.927L728.674 439.801C738.7 445.276 746.302 453.556 751.486 464.789L754.46 463.416ZM730.244 436.927L731.838 434.066C720.616 427.813 706.841 424.784 690.68 424.784V428.059V431.334C706.049 431.334 718.65 434.217 728.65 439.788L730.244 436.927ZM690.68 428.059V424.784H654.755V428.059V431.334H690.68V428.059ZM654.755 428.059H651.48V587.905H654.755H658.03V428.059H654.755Z" fill="white" mask="url(#path-4-outside-3_0_3)"/>
<path d="M735.204 272.576H759.323C759.561 272.576 759.759 272.776 759.759 273.01V302.399C759.759 305.122 761.97 307.333 764.692 307.333H794.08C794.315 307.333 794.513 307.53 794.514 307.769V331.891C794.514 332.127 794.317 332.325 794.08 332.325H764.692C761.968 332.325 759.759 334.541 759.759 337.261V366.646C759.759 366.88 759.561 367.08 759.323 367.08H735.204C734.966 367.08 734.769 366.881 734.769 366.646V337.261C734.769 334.541 732.559 332.325 729.835 332.325H700.447C700.211 332.325 700.014 332.127 700.014 331.891V307.769C700.014 307.53 700.213 307.333 700.447 307.333H729.835C732.557 307.333 734.769 305.121 734.769 302.399V273.01C734.769 272.776 734.967 272.576 735.204 272.576Z" fill="url(#paint3_linear_0_3)" stroke="white" stroke-width="4.50017"/>
</g>
<defs>
<filter id="filter0_d_0_3" x="91.8256" y="97.4165" width="719.932" height="538.718" filterUnits="userSpaceOnUse" color-interpolation-filters="sRGB">
<feFlood flood-opacity="0" result="BackgroundImageFix"/>
<feColorMatrix in="SourceAlpha" type="matrix" values="0 0 0 0 0 0 0 0 0 0 0 0 0 0 0 0 0 0 127 0" result="hardAlpha"/>
<feOffset dy="4"/>
<feGaussianBlur stdDeviation="2"/>
<feComposite in2="hardAlpha" operator="out"/>
<feColorMatrix type="matrix" values="0 0 0 0 0 0 0 0 0 0 0 0 0 0 0 0 0 0 0.25 0"/>
<feBlend mode="normal" in2="BackgroundImageFix" result="effect1_dropShadow_0_3"/>
<feBlend mode="normal" in="SourceGraphic" in2="effect1_dropShadow_0_3" result="shape"/>
</filter>
<filter id="filter1_d_0_3" x="91.8256" y="97.4165" width="498.757" height="533.901" filterUnits="userSpaceOnUse" color-interpolation-filters="sRGB">
<feFlood flood-opacity="0" result="BackgroundImageFix"/>
<feColorMatrix in="SourceAlpha" type="matrix" values="0 0 0 0 0 0 0 0 0 0 0 0 0 0 0 0 0 0 127 0" result="hardAlpha"/>
<feOffset dy="4"/>
<feGaussianBlur stdDeviation="2"/>
<feComposite in2="hardAlpha" operator="out"/>
<feColorMatrix type="matrix" values="0 0 0 0 0 0 0 0 0 0 0 0 0 0 0 0 0 0 0.25 0"/>
<feBlend mode="normal" in2="BackgroundImageFix" result="effect1_dropShadow_0_3"/>
<feBlend mode="normal" in="SourceGraphic" in2="effect1_dropShadow_0_3" result="shape"/>
</filter>
<linearGradient id="paint0_linear_0_3" x1="386.068" y1="217.711" x2="249.544" y2="454.177" gradientUnits="userSpaceOnUse">
<stop stop-color="white"/>
<stop offset="1" stop-color="white"/>
</linearGradient>
<linearGradient id="paint1_linear_0_3" x1="495.737" y1="314.399" x2="495.737" y2="701.399" gradientUnits="userSpaceOnUse">
<stop stop-color="white"/>
<stop offset="0.0001" stop-color="white"/>
<stop offset="1" stop-color="white"/>
</linearGradient>
<linearGradient id="paint2_linear_0_3" x1="705.611" y1="314.399" x2="705.611" y2="701.399" gradientUnits="userSpaceOnUse">
<stop stop-color="white"/>
<stop offset="0.0001" stop-color="white"/>
<stop offset="1" stop-color="white"/>
</linearGradient>
<linearGradient id="paint3_linear_0_3" x1="769.568" y1="301.5" x2="726.068" y2="354" gradientUnits="userSpaceOnUse">
<stop stop-color="white"/>
<stop offset="1" stop-color="white"/>
</linearGradient>
</defs>
</svg>
